<svg xmlns="http://www.w3.org/2000/svg" viewBox="0 0 156 156">
  <defs>
    <linearGradient id="bg" x1="0" y1="0" x2="1" y2="1">
      <stop offset="0" stop-color="#9cd39a"/>
      <stop offset="1" stop-color="#2a6c40"/>
    </linearGradient>
  </defs>
  <rect width="156" height="156" rx="28" fill="url(#bg)"/>
  <path d="M78 128c-3-26 2-55 16-82-30 13-49 44-43 78 9 5 17 7 27 4z" fill="#3f8f53"/>
  <path d="M79 128c21 7 40-1 52-22-9-31-32-52-58-58 10 25 14 50 6 80z" fill="#2f7b48"/>
  <path d="M63 102c16-10 30-24 39-46" fill="none" stroke="#b6e5b2" stroke-width="3" stroke-linecap="round"/>
  <path d="M92 109c17-8 28-22 35-38" fill="none" stroke="#bde8be" stroke-width="3" stroke-linecap="round"/>
  <ellipse cx="52" cy="40" rx="20" ry="12" fill="#fff" opacity=".12"/>
</svg>
