<svg xmlns="http://www.w3.org/2000/svg" width="2100" height="1400" viewBox="0 0 2100 1400" role="img" aria-label="Argentina Wine Map">
  <defs>
    <linearGradient id="bg" x1="0" y1="0" x2="1" y2="1">
      <stop offset="0" stop-color="#04131f"/>
      <stop offset="0.48" stop-color="#082d33"/>
      <stop offset="1" stop-color="#171f25"/>
    </linearGradient>
    <radialGradient id="glowGold" cx="20%" cy="16%" r="70%">
      <stop offset="0" stop-color="#edd4a8" stop-opacity="0.36"/>
      <stop offset="1" stop-color="#edd4a8" stop-opacity="0"/>
    </radialGradient>
    <radialGradient id="glowCyan" cx="60%" cy="45%" r="70%">
      <stop offset="0" stop-color="#48e5dc" stop-opacity="0.22"/>
      <stop offset="1" stop-color="#48e5dc" stop-opacity="0"/>
    </radialGradient>
    <linearGradient id="land" x1="0" y1="0" x2="1" y2="1">
      <stop offset="0" stop-color="#fff0ce"/>
      <stop offset="0.44" stop-color="#c99a22"/>
      <stop offset="1" stop-color="#3dd7ca"/>
    </linearGradient>
    <filter id="softShadow" x="-20%" y="-20%" width="140%" height="140%">
      <feDropShadow dx="0" dy="28" stdDeviation="26" flood-color="#000816" flood-opacity="0.52"/>
      <feDropShadow dx="0" dy="0" stdDeviation="12" flood-color="#48e5dc" flood-opacity="0.22"/>
    </filter>
    <style>
      .frame { fill: none; stroke: rgba(159, 218, 245, 0.32); stroke-width: 2; }
      .grid { stroke: rgba(159, 218, 245, 0.14); stroke-width: 1; }
      .micro { fill: rgba(217, 247, 255, 0.64); font: 800 19px 'Trebuchet MS', Arial, sans-serif; letter-spacing: 8px; text-transform: uppercase; }
      .title { fill: #fff0ce; font: 900 66px 'Trebuchet MS', Arial, sans-serif; letter-spacing: -2px; }
      .subtitle { fill: rgba(217, 247, 255, 0.78); font: 800 25px 'Trebuchet MS', Arial, sans-serif; }
      .land-core { fill: url(#land); stroke: #fff0ce; stroke-width: 3; stroke-linejoin: round; filter: url(#softShadow); }
      .land-line { fill: none; stroke: rgba(4, 13, 24, 0.72); stroke-width: 10; opacity: 0.55; stroke-linejoin: round; }
      .contour { fill: none; stroke: rgba(237, 212, 168, 0.16); stroke-width: 3; stroke-linecap: round; }
      .region-panel { fill: rgba(5, 18, 28, 0.72); stroke: rgba(159, 218, 245, 0.28); stroke-width: 2; }
      .region-heading { fill: #fff0ce; font: 900 34px 'Trebuchet MS', Arial, sans-serif; letter-spacing: 5px; text-transform: uppercase; }
      .region-subheading { fill: rgba(217, 247, 255, 0.68); font: 700 22px 'Trebuchet MS', Arial, sans-serif; }
      .region-row rect { fill: rgba(4, 19, 31, 0.82); stroke: rgba(159, 218, 245, 0.38); stroke-width: 1.6; }
      .region-row circle { fill: rgba(237, 212, 168, 0.95); }
      .region-number { fill: #04131f; font: 900 18px 'Trebuchet MS', Arial, sans-serif; }
      .region-name { fill: #fff0ce; font: 900 31px 'Trebuchet MS', Arial, sans-serif; }
      .badge { fill: rgba(7, 35, 48, 0.88); stroke: rgba(237, 212, 168, 0.48); stroke-width: 1.5; }
      .badge-text { fill: #edd4a8; font: 900 18px 'Trebuchet MS', Arial, sans-serif; letter-spacing: 3px; text-transform: uppercase; }
      .footer { fill: rgba(217, 247, 255, 0.58); font: 700 18px 'Trebuchet MS', Arial, sans-serif; }
    </style>
  </defs>
  <rect width="2100" height="1400" fill="url(#bg)"/>
  <rect width="2100" height="1400" fill="url(#glowGold)"/>
  <rect width="2100" height="1400" fill="url(#glowCyan)"/>
  <line class="grid" x1="120" y1="0" x2="120" y2="1400"/><line class="grid" x1="240" y1="0" x2="240" y2="1400"/><line class="grid" x1="360" y1="0" x2="360" y2="1400"/><line class="grid" x1="480" y1="0" x2="480" y2="1400"/><line class="grid" x1="600" y1="0" x2="600" y2="1400"/><line class="grid" x1="720" y1="0" x2="720" y2="1400"/><line class="grid" x1="840" y1="0" x2="840" y2="1400"/><line class="grid" x1="960" y1="0" x2="960" y2="1400"/><line class="grid" x1="1080" y1="0" x2="1080" y2="1400"/><line class="grid" x1="1200" y1="0" x2="1200" y2="1400"/><line class="grid" x1="1320" y1="0" x2="1320" y2="1400"/><line class="grid" x1="1440" y1="0" x2="1440" y2="1400"/><line class="grid" x1="1560" y1="0" x2="1560" y2="1400"/><line class="grid" x1="1680" y1="0" x2="1680" y2="1400"/><line class="grid" x1="1800" y1="0" x2="1800" y2="1400"/>
  <line class="grid" x1="0" y1="180" x2="2100" y2="180"/><line class="grid" x1="0" y1="300" x2="2100" y2="300"/><line class="grid" x1="0" y1="420" x2="2100" y2="420"/><line class="grid" x1="0" y1="540" x2="2100" y2="540"/><line class="grid" x1="0" y1="660" x2="2100" y2="660"/><line class="grid" x1="0" y1="780" x2="2100" y2="780"/><line class="grid" x1="0" y1="900" x2="2100" y2="900"/><line class="grid" x1="0" y1="1020" x2="2100" y2="1020"/>
  <rect x="34" y="34" width="2032" height="1332" rx="42" class="frame"/>
  <text x="80" y="108" class="micro">Sip Studios Maps / Country Study Plate</text>
  <text x="80" y="185" class="title">Argentina Wine Map</text>
  <text x="84" y="232" class="subtitle">South America / 5 study regions / Wine geography</text>
  <g opacity="0.9">
    <path class="contour" d="M134 341 C 390 269, 670 369, 922 320 S 1170 268, 1250 334"/><path class="contour" d="M134 382 C 390 310, 670 476, 922 394 S 1170 342, 1250 408"/><path class="contour" d="M134 487 C 390 415, 670 519, 922 468 S 1170 416, 1250 482"/><path class="contour" d="M134 528 C 390 456, 670 626, 922 542 S 1170 490, 1250 556"/><path class="contour" d="M134 633 C 390 561, 670 669, 922 616 S 1170 564, 1250 630"/><path class="contour" d="M134 674 C 390 602, 670 776, 922 690 S 1170 638, 1250 704"/><path class="contour" d="M134 779 C 390 707, 670 819, 922 764 S 1170 712, 1250 778"/><path class="contour" d="M134 820 C 390 748, 670 926, 922 838 S 1170 786, 1250 852"/>
    <path class="land-line" d="M604.61,805.35L611.00,813.09L619.34,825.63L641.05,835.63L664.42,839.76L656.90,848.17L641.05,849.00L632.56,843.06L622.49,842.61L604.61,842.61L604.61,805.35ZM788.46,431.04L784.25,444.42L779.74,461.55L779.97,478.15L776.29,481.91L775.01,492.73L773.88,501.37L795.07,515.72L792.82,527.21L803.19,534.50L802.36,542.69L786.36,564.03L761.56,572.97L728.05,576.50L709.72,574.85L713.33,584.76L709.87,597.24L712.95,605.65L702.89,611.51L685.83,613.84L669.75,607.75L663.29,612.11L665.62,628.72L676.96,633.75L686.06,628.49L691.01,637.20L675.69,642.31L662.24,652.76L659.83,669.51L655.85,678.45L640.08,678.53L627.00,687.09L622.19,699.56L638.57,711.81L654.58,715.19L648.79,730.14L629.11,739.61L618.29,759.14L603.04,765.75L596.20,773.57L601.53,790.92L612.65,800.54L605.67,799.71L590.19,797.08L549.84,794.83L542.93,785.14L543.23,772.59L532.11,773.72L526.25,767.63L524.82,749.98L537.60,742.61L542.93,732.02L540.90,723.53L549.84,709.33L555.85,687.24L554.05,677.40L561.41,674.24L559.61,667.93L551.87,664.63L557.36,657.64L549.84,651.25L545.94,632.02L552.62,628.64L549.84,608.28L553.75,591.15L558.26,576.27L568.17,570.19L563.14,553.96L563.07,538.56L575.69,527.66L575.31,513.69L584.85,497.46L584.93,482.06L580.57,478.98L572.91,450.20L583.20,433.07L581.55,416.84L587.56,401.67L598.53,386.04L610.25,375.67L605.29,369.06L608.75,363.73L608.22,335.85L626.40,327.66L632.19,310.31L630.08,306.10L643.98,291.00L665.85,295.13L675.69,307.15L682.22,293.78L701.23,294.46L703.94,297.99L734.67,325.26L748.26,327.74L768.62,340.14L785.83,346.67L788.23,354.04L771.86,379.43L788.68,383.94L807.39,386.49L820.62,383.79L835.79,371.01L838.50,356.29L846.76,353.06L855.18,362.68L854.80,376.05L840.75,385.21L829.56,392.05L810.70,408.28L788.46,431.04Z"/>
    <path class="land-core" d="M604.61,805.35L611.00,813.09L619.34,825.63L641.05,835.63L664.42,839.76L656.90,848.17L641.05,849.00L632.56,843.06L622.49,842.61L604.61,842.61L604.61,805.35ZM788.46,431.04L784.25,444.42L779.74,461.55L779.97,478.15L776.29,481.91L775.01,492.73L773.88,501.37L795.07,515.72L792.82,527.21L803.19,534.50L802.36,542.69L786.36,564.03L761.56,572.97L728.05,576.50L709.72,574.85L713.33,584.76L709.87,597.24L712.95,605.65L702.89,611.51L685.83,613.84L669.75,607.75L663.29,612.11L665.62,628.72L676.96,633.75L686.06,628.49L691.01,637.20L675.69,642.31L662.24,652.76L659.83,669.51L655.85,678.45L640.08,678.53L627.00,687.09L622.19,699.56L638.57,711.81L654.58,715.19L648.79,730.14L629.11,739.61L618.29,759.14L603.04,765.75L596.20,773.57L601.53,790.92L612.65,800.54L605.67,799.71L590.19,797.08L549.84,794.83L542.93,785.14L543.23,772.59L532.11,773.72L526.25,767.63L524.82,749.98L537.60,742.61L542.93,732.02L540.90,723.53L549.84,709.33L555.85,687.24L554.05,677.40L561.41,674.24L559.61,667.93L551.87,664.63L557.36,657.64L549.84,651.25L545.94,632.02L552.62,628.64L549.84,608.28L553.75,591.15L558.26,576.27L568.17,570.19L563.14,553.96L563.07,538.56L575.69,527.66L575.31,513.69L584.85,497.46L584.93,482.06L580.57,478.98L572.91,450.20L583.20,433.07L581.55,416.84L587.56,401.67L598.53,386.04L610.25,375.67L605.29,369.06L608.75,363.73L608.22,335.85L626.40,327.66L632.19,310.31L630.08,306.10L643.98,291.00L665.85,295.13L675.69,307.15L682.22,293.78L701.23,294.46L703.94,297.99L734.67,325.26L748.26,327.74L768.62,340.14L785.83,346.67L788.23,354.04L771.86,379.43L788.68,383.94L807.39,386.49L820.62,383.79L835.79,371.01L838.50,356.29L846.76,353.06L855.18,362.68L854.80,376.05L840.75,385.21L829.56,392.05L810.70,408.28L788.46,431.04Z" fill-rule="evenodd"/>
  </g>
  <rect x="1370" y="305" width="610" height="132" rx="24" class="badge"/>
  <text x="1410" y="358" class="badge-text">Argentina / atlas outline</text>
  <text x="1410" y="398" class="footer">Primary atlas outline fitted for country-scale study.</text>
  <rect x="88" y="940" width="1924" height="382" rx="30" class="region-panel"/>
  <text x="132" y="998" class="region-heading">Study Region Index</text>
  <text x="132" y="1335" class="footer">Showing 5 of 5 study regions. Internal wine-region borders require an authoritative GIS layer before drawing.</text>
  
      <g class="region-row" transform="translate(135 1038)">
        <rect width="850" height="40" rx="13"/>
        <circle cx="26" cy="20" r="15"/>
        <text x="26" y="27" text-anchor="middle" class="region-number">1</text>
        <text x="54" y="28" class="region-name">Lujan de Cuyo</text>
      </g>
      <g class="region-row" transform="translate(1045 1038)">
        <rect width="850" height="40" rx="13"/>
        <circle cx="26" cy="20" r="15"/>
        <text x="26" y="27" text-anchor="middle" class="region-number">2</text>
        <text x="54" y="28" class="region-name">Uco Valley</text>
      </g>
      <g class="region-row" transform="translate(135 1086)">
        <rect width="850" height="40" rx="13"/>
        <circle cx="26" cy="20" r="15"/>
        <text x="26" y="27" text-anchor="middle" class="region-number">3</text>
        <text x="54" y="28" class="region-name">Salta</text>
      </g>
      <g class="region-row" transform="translate(1045 1086)">
        <rect width="850" height="40" rx="13"/>
        <circle cx="26" cy="20" r="15"/>
        <text x="26" y="27" text-anchor="middle" class="region-number">4</text>
        <text x="54" y="28" class="region-name">Patagonia</text>
      </g>
      <g class="region-row" transform="translate(135 1134)">
        <rect width="850" height="40" rx="13"/>
        <circle cx="26" cy="20" r="15"/>
        <text x="26" y="27" text-anchor="middle" class="region-number">5</text>
        <text x="54" y="28" class="region-name">San Juan</text>
      </g>
</svg>
