<svg xmlns="http://www.w3.org/2000/svg" width="2100" height="1400" viewBox="0 0 2100 1400" role="img" aria-label="Canada Wine Map">
  <defs>
    <linearGradient id="bg" x1="0" y1="0" x2="1" y2="1">
      <stop offset="0" stop-color="#04131f"/>
      <stop offset="0.48" stop-color="#082d33"/>
      <stop offset="1" stop-color="#171f25"/>
    </linearGradient>
    <radialGradient id="glowGold" cx="20%" cy="16%" r="70%">
      <stop offset="0" stop-color="#edd4a8" stop-opacity="0.36"/>
      <stop offset="1" stop-color="#edd4a8" stop-opacity="0"/>
    </radialGradient>
    <radialGradient id="glowCyan" cx="60%" cy="45%" r="70%">
      <stop offset="0" stop-color="#48e5dc" stop-opacity="0.22"/>
      <stop offset="1" stop-color="#48e5dc" stop-opacity="0"/>
    </radialGradient>
    <linearGradient id="land" x1="0" y1="0" x2="1" y2="1">
      <stop offset="0" stop-color="#fff0ce"/>
      <stop offset="0.44" stop-color="#c99a22"/>
      <stop offset="1" stop-color="#3dd7ca"/>
    </linearGradient>
    <filter id="softShadow" x="-20%" y="-20%" width="140%" height="140%">
      <feDropShadow dx="0" dy="28" stdDeviation="26" flood-color="#000816" flood-opacity="0.52"/>
      <feDropShadow dx="0" dy="0" stdDeviation="12" flood-color="#48e5dc" flood-opacity="0.22"/>
    </filter>
    <style>
      .frame { fill: none; stroke: rgba(159, 218, 245, 0.32); stroke-width: 2; }
      .grid { stroke: rgba(159, 218, 245, 0.14); stroke-width: 1; }
      .micro { fill: rgba(217, 247, 255, 0.64); font: 800 19px 'Trebuchet MS', Arial, sans-serif; letter-spacing: 8px; text-transform: uppercase; }
      .title { fill: #fff0ce; font: 900 66px 'Trebuchet MS', Arial, sans-serif; letter-spacing: -2px; }
      .subtitle { fill: rgba(217, 247, 255, 0.78); font: 800 25px 'Trebuchet MS', Arial, sans-serif; }
      .land-core { fill: url(#land); stroke: #fff0ce; stroke-width: 3; stroke-linejoin: round; filter: url(#softShadow); }
      .land-line { fill: none; stroke: rgba(4, 13, 24, 0.72); stroke-width: 10; opacity: 0.55; stroke-linejoin: round; }
      .contour { fill: none; stroke: rgba(237, 212, 168, 0.16); stroke-width: 3; stroke-linecap: round; }
      .region-panel { fill: rgba(5, 18, 28, 0.72); stroke: rgba(159, 218, 245, 0.28); stroke-width: 2; }
      .region-heading { fill: #fff0ce; font: 900 34px 'Trebuchet MS', Arial, sans-serif; letter-spacing: 5px; text-transform: uppercase; }
      .region-subheading { fill: rgba(217, 247, 255, 0.68); font: 700 22px 'Trebuchet MS', Arial, sans-serif; }
      .region-row rect { fill: rgba(4, 19, 31, 0.82); stroke: rgba(159, 218, 245, 0.38); stroke-width: 1.6; }
      .region-row circle { fill: rgba(237, 212, 168, 0.95); }
      .region-number { fill: #04131f; font: 900 18px 'Trebuchet MS', Arial, sans-serif; }
      .region-name { fill: #fff0ce; font: 900 31px 'Trebuchet MS', Arial, sans-serif; }
      .badge { fill: rgba(7, 35, 48, 0.88); stroke: rgba(237, 212, 168, 0.48); stroke-width: 1.5; }
      .badge-text { fill: #edd4a8; font: 900 18px 'Trebuchet MS', Arial, sans-serif; letter-spacing: 3px; text-transform: uppercase; }
      .footer { fill: rgba(217, 247, 255, 0.58); font: 700 18px 'Trebuchet MS', Arial, sans-serif; }
    </style>
  </defs>
  <rect width="2100" height="1400" fill="url(#bg)"/>
  <rect width="2100" height="1400" fill="url(#glowGold)"/>
  <rect width="2100" height="1400" fill="url(#glowCyan)"/>
  <line class="grid" x1="120" y1="0" x2="120" y2="1400"/><line class="grid" x1="240" y1="0" x2="240" y2="1400"/><line class="grid" x1="360" y1="0" x2="360" y2="1400"/><line class="grid" x1="480" y1="0" x2="480" y2="1400"/><line class="grid" x1="600" y1="0" x2="600" y2="1400"/><line class="grid" x1="720" y1="0" x2="720" y2="1400"/><line class="grid" x1="840" y1="0" x2="840" y2="1400"/><line class="grid" x1="960" y1="0" x2="960" y2="1400"/><line class="grid" x1="1080" y1="0" x2="1080" y2="1400"/><line class="grid" x1="1200" y1="0" x2="1200" y2="1400"/><line class="grid" x1="1320" y1="0" x2="1320" y2="1400"/><line class="grid" x1="1440" y1="0" x2="1440" y2="1400"/><line class="grid" x1="1560" y1="0" x2="1560" y2="1400"/><line class="grid" x1="1680" y1="0" x2="1680" y2="1400"/><line class="grid" x1="1800" y1="0" x2="1800" y2="1400"/>
  <line class="grid" x1="0" y1="180" x2="2100" y2="180"/><line class="grid" x1="0" y1="300" x2="2100" y2="300"/><line class="grid" x1="0" y1="420" x2="2100" y2="420"/><line class="grid" x1="0" y1="540" x2="2100" y2="540"/><line class="grid" x1="0" y1="660" x2="2100" y2="660"/><line class="grid" x1="0" y1="780" x2="2100" y2="780"/><line class="grid" x1="0" y1="900" x2="2100" y2="900"/><line class="grid" x1="0" y1="1020" x2="2100" y2="1020"/>
  <rect x="34" y="34" width="2032" height="1332" rx="42" class="frame"/>
  <text x="80" y="108" class="micro">Sip Studios Maps / Country Study Plate</text>
  <text x="80" y="185" class="title">Canada Wine Map</text>
  <text x="84" y="232" class="subtitle">North America / 5 study regions / Wine geography</text>
  <g opacity="0.9">
    <path class="contour" d="M134 308 C 390 236, 670 402, 922 320 S 1170 268, 1250 334"/><path class="contour" d="M134 413 C 390 341, 670 445, 922 394 S 1170 342, 1250 408"/><path class="contour" d="M134 454 C 390 382, 670 552, 922 468 S 1170 416, 1250 482"/><path class="contour" d="M134 559 C 390 487, 670 595, 922 542 S 1170 490, 1250 556"/><path class="contour" d="M134 600 C 390 528, 670 702, 922 616 S 1170 564, 1250 630"/><path class="contour" d="M134 705 C 390 633, 670 745, 922 690 S 1170 638, 1250 704"/><path class="contour" d="M134 746 C 390 674, 670 852, 922 764 S 1170 712, 1250 778"/><path class="contour" d="M134 851 C 390 779, 670 895, 922 838 S 1170 786, 1250 852"/>
    <path class="land-line" d="M382.62,728.97L380.97,728.97L358.16,717.32L349.65,712.22L328.27,707.33L321.68,696.90L323.38,689.62L308.22,684.57L306.20,675.05L291.90,666.49L291.63,660.43L298.17,654.74L297.91,647.24L277.75,639.74L265.68,626.23L258.35,617.78L247.50,612.46L239.52,607.62L233.25,601.51L221.39,605.34L209.90,611.93L199.43,604.17L191.13,599.01L179.65,595.71L168.00,595.39L168.05,528.07L168.16,484.20L190.17,487.07L208.79,492.76L221.12,493.83L231.49,488.88L245.80,485.21L263.34,486.65L281.05,481.49L300.41,478.51L308.54,483.40L317.32,480.64L319.98,475.11L328.17,476.38L348.16,486.97L363.85,478.94L365.44,487.92L379.96,486.01L384.43,482.50L398.78,483.19L416.81,488.19L444.46,492.50L460.73,494.52L472.32,493.72L488.22,499.73L471.63,505.63L493.01,508.13L524.92,506.75L534.91,504.67L547.52,511.75L560.38,505.79L548.31,500.79L555.97,496.75L570.33,496.17L579.79,495.00L589.36,497.81L601.22,504.25L614.41,503.29L635.31,508.61L653.60,506.75L670.83,507.01L669.50,499.68L679.98,497.60L698.32,501.64L698.27,512.81L705.77,503.40L715.29,503.72L720.60,491.81L707.95,484.52L694.17,479.79L695.08,466.71L709.12,458.14L724.64,460.01L736.61,465.27L752.72,478.56L742.19,484.36L764.21,486.75L764.15,498.82L779.95,489.57L794.04,497.18L790.53,505.95L801.96,513.93L814.30,505.36L822.91,495.21L823.55,482.18L840.35,483.14L857.80,484.84L873.70,490.74L874.39,496.59L865.61,502.87L873.96,509.19L872.42,514.99L849.29,523.23L832.86,525.04L820.63,521.48L817.12,527.43L805.68,537.38L802.28,542.59L788.56,550.56L771.65,551.31L762.29,556.31L761.55,564.02L747.83,565.51L733.36,575.08L720.55,588.37L715.92,597.68L715.29,611.40L732.67,613.36L737.99,624.43L743.52,633.41L760.01,631.07L782.02,636.18L793.77,640.70L802.28,646.28L817.06,649.52L829.56,654.47L849.08,655.16L861.94,656.33L860.03,666.54L863.70,678.45L872.26,691.64L889.86,702.86L898.95,699.03L905.34,686.91L899.17,668.19L890.82,661.97L909.75,656.49L923.10,648.19L929.69,639.95L928.68,632.03L920.70,622.03L906.29,613.10L920.28,600.71L915.12,590.02L911.18,571.57L919.43,568.86L939.69,572.05L951.81,573.22L961.60,570.13L972.60,574.12L987.12,580.98L990.74,585.55L1011.79,586.46L1011.47,596.35L1015.41,611.29L1026.20,613.15L1034.77,620.12L1051.83,613.52L1063.16,600.50L1070.98,595.02L1080.18,605.55L1095.60,620.65L1108.63,634.85L1103.89,642.24L1119.63,648.89L1130.27,655.69L1149.04,658.72L1156.64,662.50L1161.32,672.50L1170.52,674.04L1175.31,678.51L1176.16,691.80L1167.55,696.21L1159.09,700.36L1139.63,704.56L1124.74,714.29L1104.74,716.21L1079.49,713.71L1061.78,713.65L1049.55,714.45L1039.66,722.91L1024.56,728.17L1007.54,743.81L993.93,754.71L1003.92,752.79L1022.91,737.26L1047.74,727.37L1065.39,726.26L1075.82,732.00L1064.70,739.98L1068.43,752.69L1072.31,761.62L1087.68,767.52L1107.19,765.82L1119.00,752.53L1119.85,761.09L1127.50,765.39L1112.83,773.10L1086.66,780.12L1074.97,784.91L1061.78,793.42L1052.79,792.57L1052.31,782.57L1072.84,772.79L1053.91,773.16L1040.77,774.59L1033.06,767.95L1033.06,751.83L1027.85,748.43L1019.88,750.40L1015.99,747.31L1006.95,756.25L1003.39,765.45L999.19,770.82L994.14,772.63L990.36,773.21L989.19,776.14L967.39,776.14L949.47,776.24L944.15,778.42L931.60,786.93L930.17,787.83L926.39,792.46L915.55,792.46L903.95,792.51L898.64,794.38L900.50,796.66L901.56,800.28L901.35,801.50L885.87,807.35L873.75,809.21L859.98,815.54L857.00,815.54L853.01,813.68L851.68,811.98L851.95,810.75L854.55,806.61L860.14,800.12L863.54,793.15L861.20,782.84L858.65,772.15L846.31,766.62L847.80,764.49L846.10,763.05L842.85,763.05L840.46,761.19L839.88,758.38L837.59,759.60L834.40,759.23L835.09,758.06L832.32,756.89L831.21,753.80L822.01,750.03L812.49,746.09L800.90,741.52L789.78,737.21L779.26,740.56L775.37,740.67L760.80,737.58L751.23,739.13L739.80,735.46L727.73,733.60L719.49,732.85L715.82,730.88L713.74,724.40L709.75,724.45L709.70,728.97L685.24,728.97L644.77,728.97L604.63,728.97L569.16,728.97L533.69,728.97L498.86,728.97L462.81,728.97L451.21,728.97L416.17,728.97L382.62,728.97ZM841.63,570.03L850.40,564.55L866.62,564.66L866.36,566.94L852.53,573.48L844.18,573.22L841.63,570.03ZM891.46,447.72L878.43,441.45L878.96,437.19L884.60,436.40L911.66,437.67L932.03,444.16L933.09,447.40L920.54,447.08L907.78,446.82L894.86,448.41L891.46,447.72ZM885.08,574.33L889.65,570.82L894.49,571.09L897.47,573.48L892.89,579.70L887.63,578.69L884.54,575.18L885.08,574.33ZM727.94,421.99L721.51,426.56L704.38,425.71L690.03,422.57L696.35,417.25L713.32,414.06L723.63,418.26L727.94,421.99ZM725.28,391.94L719.91,392.31L697.74,391.52L694.60,388.22L718.37,388.43L726.66,390.61L725.28,391.94ZM690.82,377.26L704.97,381.36L701.73,385.61L684.23,388.06L674.66,385.29L669.55,380.88L668.65,375.99L683.96,376.47L690.82,377.26ZM792.50,428.90L773.41,427.46L742.03,423.69L737.94,417.15L736.50,411.30L724.64,406.14L700.18,404.70L686.52,401.03L690.93,396.19L715.29,396.94L728.42,400.77L751.66,400.71L761.87,404.60L759.16,409.06L772.71,411.72L780.27,414.54L796.17,415.02L813.45,416.03L832.22,413.48L856.31,412.47L875.45,413.32L888.16,417.78L890.77,422.62L883.37,425.76L865.77,428.31L850.67,426.88L816.74,428.69L792.50,428.90ZM519.39,384.50L536.03,386.30L532.09,389.87L510.03,393.27L492.58,389.44L502.10,385.67L519.39,384.50ZM522.95,376.79L538.32,379.18L523.85,381.47L504.28,381.47L504.50,379.76L516.62,376.25L522.95,376.79ZM1177.12,701.58L1170.84,709.03L1163.03,719.40L1170.68,715.41L1178.66,717.91L1174.51,722.06L1184.99,725.25L1190.46,722.38L1202.22,726.04L1198.55,734.71L1206.84,732.69L1208.33,738.91L1212.00,746.25L1207.05,756.67L1201.74,757.10L1193.92,754.92L1196.47,745.19L1193.23,743.70L1179.51,753.96L1172.44,753.54L1180.79,748.01L1169.41,745.13L1156.75,745.83L1133.83,745.45L1131.97,742.00L1139.36,737.80L1134.20,734.61L1144.15,727.48L1156.38,708.66L1163.66,701.96L1173.93,697.86L1179.40,698.39L1177.12,701.58ZM842.91,538.60L855.88,542.64L869.39,546.36L870.45,551.95L879.12,551.04L887.57,554.98L877.10,558.70L858.70,555.83L852.05,550.51L840.35,556.79L823.55,562.90L819.51,555.99L803.45,557.16L813.77,551.31L815.26,542.00L819.30,531.16L827.81,532.17L829.99,537.32L836.10,535.52L842.91,538.60ZM903.31,453.04L914.53,448.31L940.75,454.32L957.02,459.95L958.56,465.11L980.47,462.40L992.81,469.95L1021.31,474.63L1031.57,479.36L1042.79,490.42L1021.10,495.95L1048.91,503.66L1067.68,506.27L1084.70,517.12L1103.26,517.91L1099.59,526.21L1078.85,539.93L1064.33,534.88L1045.72,523.50L1030.46,524.99L1028.97,531.74L1041.36,538.65L1057.42,544.08L1062.26,547.21L1069.97,558.91L1065.87,567.37L1050.98,564.18L1021.36,554.71L1038.06,564.92L1050.35,572.05L1052.26,576.14L1020.25,571.46L994.88,564.60L980.53,558.86L984.67,555.51L967.07,549.45L949.84,543.70L950.06,547.11L915.86,549.02L905.87,544.93L913.68,536.26L935.86,536.05L960.16,534.51L956.28,530.30L960.32,524.40L975.63,512.92L972.39,507.70L967.82,503.61L949.74,497.92L925.81,493.88L933.36,490.90L920.86,483.56L910.44,482.87L901.13,478.83L894.81,482.34L873.38,483.88L830.36,481.22L805.36,477.77L786.22,475.96L776.38,471.81L788.72,466.44L771.97,466.39L768.25,454.42L777.29,443.84L789.47,439.00L819.94,435.86L811.27,443.52L820.57,450.86L831.47,441.34L861.41,436.50L881.73,448.73L879.92,456.44L903.31,453.04ZM717.41,431.98L742.09,432.35L764.63,435.23L746.98,445.75L732.89,448.04L720.18,456.92L706.72,456.44L699.33,446.07L699.55,440.22L705.71,435.17L717.41,431.98ZM382.40,408.53L402.45,399.70L426.70,392.05L444.83,392.21L461.05,390.51L459.40,399.55L450.31,403.64L439.30,404.22L417.29,409.28L398.41,411.08L382.40,408.53ZM265.95,669.41L277.33,668.45L273.71,681.91L284.03,691.37L279.30,691.37L272.22,685.95L267.81,680.53L261.86,676.86L259.68,671.65L260.37,667.87L265.95,669.41ZM587.56,370.88L610.79,372.53L642.75,376.84L651.74,382.42L656.37,387.37L637.06,386.04L617.65,382.21L591.28,381.78L602.71,378.27L588.46,375.46L587.56,370.88ZM374.69,734.77L368.74,736.41L349.33,731.04L345.77,726.84L335.18,722.69L333.06,719.34L320.93,717.22L316.36,710.78L317.37,708.07L329.76,710.62L337.05,712.43L348.16,713.65L352.15,717.75L358.00,723.33L369.80,728.22L374.69,734.77ZM397.93,428.26L414.84,430.71L444.99,431.34L456.48,434.80L469.19,439.75L454.30,442.72L425.37,451.02L410.69,459.31L410.69,464.47L379.64,470.16L373.36,465.00L346.09,458.73L351.14,453.73L359.33,445.12L369.59,437.35L358.00,430.12L397.93,428.26ZM560.06,411.72L570.59,409.75L582.98,410.29L585.06,416.08L577.88,421.67L537.89,423.53L508.06,428.63L490.03,428.90L488.54,425.02L513.11,419.81L459.72,421.24L443.18,419.11L459.30,407.57L470.46,404.28L503.70,408.27L524.70,415.23L545.34,416.14L528.43,404.86L539.27,400.56L551.45,401.88L555.44,407.52L560.06,411.72ZM575.38,444.48L588.62,449.26L596.06,460.75L599.73,469.10L619.57,474.95L640.89,480.53L639.56,485.74L620.21,486.70L627.76,491.22L623.77,495.58L602.34,493.72L582.03,490.53L568.31,491.22L546.13,495.26L516.19,497.02L495.14,498.13L488.76,492.55L472.59,489.31L462.17,490.64L447.55,481.28L455.42,480.05L473.65,478.03L490.35,478.56L505.77,476.49L482.91,473.73L457.65,474.68L440.90,474.42L434.68,470.11L462.06,465.32L443.88,465.54L423.24,462.40L433.13,453.52L441.32,448.84L473.02,441.66L485.09,443.95L479.18,449.48L505.45,445.91L521.88,451.87L535.23,445.81L546.03,449.69L555.70,461.28L561.66,456.44L553.26,444.32L563.63,442.56L575.38,444.48ZM647.27,448.84L634.25,441.13L648.28,435.39L662.32,437.88L683.43,436.40L686.52,439.80L675.51,445.49L693.38,450.54L691.25,461.23L671.89,465.80L660.46,464.79L652.32,460.27L622.97,451.18L623.18,447.40L647.27,448.84ZM574.48,438.26L590.32,437.78L599.31,440.38L588.94,448.20L570.43,439.96L574.48,438.26ZM670.19,401.41L679.23,406.88L679.60,412.95L674.23,421.72L654.72,422.94L642.06,421.08L642.27,414.17L622.92,415.07L622.12,405.93L634.88,406.30L652.70,402.26L669.29,402.95L670.19,401.41ZM699.55,355.52L707.73,351.95L719.86,351.10L714.65,348.39L742.14,347.81L757.24,354.08L777.18,356.63L796.54,358.87L805.90,366.68L820.09,370.46L803.88,374.02L782.07,382.90L761.12,383.75L736.66,382.21L723.95,377.42L724.11,373.12L733.47,369.98L711.88,370.09L698.85,366.15L691.36,360.78L699.55,355.52ZM751.87,340.25L769.47,338.02L783.24,337.65L806.43,335.73L823.82,331.32L838.44,331.91L851.20,335.26L860.19,328.87L875.82,326.96L896.99,325.68L933.09,325.21L939.42,326.43L973.51,324.46L999.08,325.21L1024.71,325.95L1056.25,326.85L1081.67,328.40L1103.26,331.59L1102.78,334.72L1073.90,339.88L1045.35,342.27L1034.66,344.93L1060.40,344.88L1032.48,352.01L1013.28,355.36L993.02,365.03L968.61,367.00L961.12,369.39L925.33,370.67L941.60,372.16L933.47,374.23L943.25,380.08L932.03,384.12L913.74,387.47L908.15,392.10L891.62,395.61L893.32,398.32L913.52,397.84L913.74,400.71L882.20,407.84L851.31,404.54L816.58,406.40L798.98,404.97L776.65,404.33L775.16,398.64L797.02,395.98L791.22,387.47L798.45,386.62L829.99,391.73L813.87,384.18L794.73,381.89L804.30,377.32L825.25,374.50L828.60,370.40L811.91,365.78L806.91,359.66L839.18,360.19L848.54,361.47L866.94,357.16L840.35,355.78L799.04,356.58L778.14,352.54L768.25,347.75L754.48,344.30L751.87,340.25ZM945.32,511.00L937.67,514.51L924.37,515.10L921.45,509.30L926.50,502.71L937.35,501.06L946.55,504.30L946.71,509.41L945.32,511.00ZM696.73,486.86L703.91,491.38L696.57,495.53L680.61,491.91L671.04,493.24L654.88,487.92L665.30,484.25L673.54,479.15L686.09,482.50L693.16,484.63L696.73,486.86ZM1071.78,718.65L1075.82,717.70L1091.34,720.62L1103.47,725.57L1103.79,727.75L1098.04,727.96L1082.73,724.24L1071.78,718.65ZM1077.73,752.15L1081.83,757.95L1090.44,759.49L1101.34,759.17L1095.55,764.01L1091.18,764.81L1076.19,759.81L1073.26,755.82L1077.73,752.15Z"/>
    <path class="land-core" d="M382.62,728.97L380.97,728.97L358.16,717.32L349.65,712.22L328.27,707.33L321.68,696.90L323.38,689.62L308.22,684.57L306.20,675.05L291.90,666.49L291.63,660.43L298.17,654.74L297.91,647.24L277.75,639.74L265.68,626.23L258.35,617.78L247.50,612.46L239.52,607.62L233.25,601.51L221.39,605.34L209.90,611.93L199.43,604.17L191.13,599.01L179.65,595.71L168.00,595.39L168.05,528.07L168.16,484.20L190.17,487.07L208.79,492.76L221.12,493.83L231.49,488.88L245.80,485.21L263.34,486.65L281.05,481.49L300.41,478.51L308.54,483.40L317.32,480.64L319.98,475.11L328.17,476.38L348.16,486.97L363.85,478.94L365.44,487.92L379.96,486.01L384.43,482.50L398.78,483.19L416.81,488.19L444.46,492.50L460.73,494.52L472.32,493.72L488.22,499.73L471.63,505.63L493.01,508.13L524.92,506.75L534.91,504.67L547.52,511.75L560.38,505.79L548.31,500.79L555.97,496.75L570.33,496.17L579.79,495.00L589.36,497.81L601.22,504.25L614.41,503.29L635.31,508.61L653.60,506.75L670.83,507.01L669.50,499.68L679.98,497.60L698.32,501.64L698.27,512.81L705.77,503.40L715.29,503.72L720.60,491.81L707.95,484.52L694.17,479.79L695.08,466.71L709.12,458.14L724.64,460.01L736.61,465.27L752.72,478.56L742.19,484.36L764.21,486.75L764.15,498.82L779.95,489.57L794.04,497.18L790.53,505.95L801.96,513.93L814.30,505.36L822.91,495.21L823.55,482.18L840.35,483.14L857.80,484.84L873.70,490.74L874.39,496.59L865.61,502.87L873.96,509.19L872.42,514.99L849.29,523.23L832.86,525.04L820.63,521.48L817.12,527.43L805.68,537.38L802.28,542.59L788.56,550.56L771.65,551.31L762.29,556.31L761.55,564.02L747.83,565.51L733.36,575.08L720.55,588.37L715.92,597.68L715.29,611.40L732.67,613.36L737.99,624.43L743.52,633.41L760.01,631.07L782.02,636.18L793.77,640.70L802.28,646.28L817.06,649.52L829.56,654.47L849.08,655.16L861.94,656.33L860.03,666.54L863.70,678.45L872.26,691.64L889.86,702.86L898.95,699.03L905.34,686.91L899.17,668.19L890.82,661.97L909.75,656.49L923.10,648.19L929.69,639.95L928.68,632.03L920.70,622.03L906.29,613.10L920.28,600.71L915.12,590.02L911.18,571.57L919.43,568.86L939.69,572.05L951.81,573.22L961.60,570.13L972.60,574.12L987.12,580.98L990.74,585.55L1011.79,586.46L1011.47,596.35L1015.41,611.29L1026.20,613.15L1034.77,620.12L1051.83,613.52L1063.16,600.50L1070.98,595.02L1080.18,605.55L1095.60,620.65L1108.63,634.85L1103.89,642.24L1119.63,648.89L1130.27,655.69L1149.04,658.72L1156.64,662.50L1161.32,672.50L1170.52,674.04L1175.31,678.51L1176.16,691.80L1167.55,696.21L1159.09,700.36L1139.63,704.56L1124.74,714.29L1104.74,716.21L1079.49,713.71L1061.78,713.65L1049.55,714.45L1039.66,722.91L1024.56,728.17L1007.54,743.81L993.93,754.71L1003.92,752.79L1022.91,737.26L1047.74,727.37L1065.39,726.26L1075.82,732.00L1064.70,739.98L1068.43,752.69L1072.31,761.62L1087.68,767.52L1107.19,765.82L1119.00,752.53L1119.85,761.09L1127.50,765.39L1112.83,773.10L1086.66,780.12L1074.97,784.91L1061.78,793.42L1052.79,792.57L1052.31,782.57L1072.84,772.79L1053.91,773.16L1040.77,774.59L1033.06,767.95L1033.06,751.83L1027.85,748.43L1019.88,750.40L1015.99,747.31L1006.95,756.25L1003.39,765.45L999.19,770.82L994.14,772.63L990.36,773.21L989.19,776.14L967.39,776.14L949.47,776.24L944.15,778.42L931.60,786.93L930.17,787.83L926.39,792.46L915.55,792.46L903.95,792.51L898.64,794.38L900.50,796.66L901.56,800.28L901.35,801.50L885.87,807.35L873.75,809.21L859.98,815.54L857.00,815.54L853.01,813.68L851.68,811.98L851.95,810.75L854.55,806.61L860.14,800.12L863.54,793.15L861.20,782.84L858.65,772.15L846.31,766.62L847.80,764.49L846.10,763.05L842.85,763.05L840.46,761.19L839.88,758.38L837.59,759.60L834.40,759.23L835.09,758.06L832.32,756.89L831.21,753.80L822.01,750.03L812.49,746.09L800.90,741.52L789.78,737.21L779.26,740.56L775.37,740.67L760.80,737.58L751.23,739.13L739.80,735.46L727.73,733.60L719.49,732.85L715.82,730.88L713.74,724.40L709.75,724.45L709.70,728.97L685.24,728.97L644.77,728.97L604.63,728.97L569.16,728.97L533.69,728.97L498.86,728.97L462.81,728.97L451.21,728.97L416.17,728.97L382.62,728.97ZM841.63,570.03L850.40,564.55L866.62,564.66L866.36,566.94L852.53,573.48L844.18,573.22L841.63,570.03ZM891.46,447.72L878.43,441.45L878.96,437.19L884.60,436.40L911.66,437.67L932.03,444.16L933.09,447.40L920.54,447.08L907.78,446.82L894.86,448.41L891.46,447.72ZM885.08,574.33L889.65,570.82L894.49,571.09L897.47,573.48L892.89,579.70L887.63,578.69L884.54,575.18L885.08,574.33ZM727.94,421.99L721.51,426.56L704.38,425.71L690.03,422.57L696.35,417.25L713.32,414.06L723.63,418.26L727.94,421.99ZM725.28,391.94L719.91,392.31L697.74,391.52L694.60,388.22L718.37,388.43L726.66,390.61L725.28,391.94ZM690.82,377.26L704.97,381.36L701.73,385.61L684.23,388.06L674.66,385.29L669.55,380.88L668.65,375.99L683.96,376.47L690.82,377.26ZM792.50,428.90L773.41,427.46L742.03,423.69L737.94,417.15L736.50,411.30L724.64,406.14L700.18,404.70L686.52,401.03L690.93,396.19L715.29,396.94L728.42,400.77L751.66,400.71L761.87,404.60L759.16,409.06L772.71,411.72L780.27,414.54L796.17,415.02L813.45,416.03L832.22,413.48L856.31,412.47L875.45,413.32L888.16,417.78L890.77,422.62L883.37,425.76L865.77,428.31L850.67,426.88L816.74,428.69L792.50,428.90ZM519.39,384.50L536.03,386.30L532.09,389.87L510.03,393.27L492.58,389.44L502.10,385.67L519.39,384.50ZM522.95,376.79L538.32,379.18L523.85,381.47L504.28,381.47L504.50,379.76L516.62,376.25L522.95,376.79ZM1177.12,701.58L1170.84,709.03L1163.03,719.40L1170.68,715.41L1178.66,717.91L1174.51,722.06L1184.99,725.25L1190.46,722.38L1202.22,726.04L1198.55,734.71L1206.84,732.69L1208.33,738.91L1212.00,746.25L1207.05,756.67L1201.74,757.10L1193.92,754.92L1196.47,745.19L1193.23,743.70L1179.51,753.96L1172.44,753.54L1180.79,748.01L1169.41,745.13L1156.75,745.83L1133.83,745.45L1131.97,742.00L1139.36,737.80L1134.20,734.61L1144.15,727.48L1156.38,708.66L1163.66,701.96L1173.93,697.86L1179.40,698.39L1177.12,701.58ZM842.91,538.60L855.88,542.64L869.39,546.36L870.45,551.95L879.12,551.04L887.57,554.98L877.10,558.70L858.70,555.83L852.05,550.51L840.35,556.79L823.55,562.90L819.51,555.99L803.45,557.16L813.77,551.31L815.26,542.00L819.30,531.16L827.81,532.17L829.99,537.32L836.10,535.52L842.91,538.60ZM903.31,453.04L914.53,448.31L940.75,454.32L957.02,459.95L958.56,465.11L980.47,462.40L992.81,469.95L1021.31,474.63L1031.57,479.36L1042.79,490.42L1021.10,495.95L1048.91,503.66L1067.68,506.27L1084.70,517.12L1103.26,517.91L1099.59,526.21L1078.85,539.93L1064.33,534.88L1045.72,523.50L1030.46,524.99L1028.97,531.74L1041.36,538.65L1057.42,544.08L1062.26,547.21L1069.97,558.91L1065.87,567.37L1050.98,564.18L1021.36,554.71L1038.06,564.92L1050.35,572.05L1052.26,576.14L1020.25,571.46L994.88,564.60L980.53,558.86L984.67,555.51L967.07,549.45L949.84,543.70L950.06,547.11L915.86,549.02L905.87,544.93L913.68,536.26L935.86,536.05L960.16,534.51L956.28,530.30L960.32,524.40L975.63,512.92L972.39,507.70L967.82,503.61L949.74,497.92L925.81,493.88L933.36,490.90L920.86,483.56L910.44,482.87L901.13,478.83L894.81,482.34L873.38,483.88L830.36,481.22L805.36,477.77L786.22,475.96L776.38,471.81L788.72,466.44L771.97,466.39L768.25,454.42L777.29,443.84L789.47,439.00L819.94,435.86L811.27,443.52L820.57,450.86L831.47,441.34L861.41,436.50L881.73,448.73L879.92,456.44L903.31,453.04ZM717.41,431.98L742.09,432.35L764.63,435.23L746.98,445.75L732.89,448.04L720.18,456.92L706.72,456.44L699.33,446.07L699.55,440.22L705.71,435.17L717.41,431.98ZM382.40,408.53L402.45,399.70L426.70,392.05L444.83,392.21L461.05,390.51L459.40,399.55L450.31,403.64L439.30,404.22L417.29,409.28L398.41,411.08L382.40,408.53ZM265.95,669.41L277.33,668.45L273.71,681.91L284.03,691.37L279.30,691.37L272.22,685.95L267.81,680.53L261.86,676.86L259.68,671.65L260.37,667.87L265.95,669.41ZM587.56,370.88L610.79,372.53L642.75,376.84L651.74,382.42L656.37,387.37L637.06,386.04L617.65,382.21L591.28,381.78L602.71,378.27L588.46,375.46L587.56,370.88ZM374.69,734.77L368.74,736.41L349.33,731.04L345.77,726.84L335.18,722.69L333.06,719.34L320.93,717.22L316.36,710.78L317.37,708.07L329.76,710.62L337.05,712.43L348.16,713.65L352.15,717.75L358.00,723.33L369.80,728.22L374.69,734.77ZM397.93,428.26L414.84,430.71L444.99,431.34L456.48,434.80L469.19,439.75L454.30,442.72L425.37,451.02L410.69,459.31L410.69,464.47L379.64,470.16L373.36,465.00L346.09,458.73L351.14,453.73L359.33,445.12L369.59,437.35L358.00,430.12L397.93,428.26ZM560.06,411.72L570.59,409.75L582.98,410.29L585.06,416.08L577.88,421.67L537.89,423.53L508.06,428.63L490.03,428.90L488.54,425.02L513.11,419.81L459.72,421.24L443.18,419.11L459.30,407.57L470.46,404.28L503.70,408.27L524.70,415.23L545.34,416.14L528.43,404.86L539.27,400.56L551.45,401.88L555.44,407.52L560.06,411.72ZM575.38,444.48L588.62,449.26L596.06,460.75L599.73,469.10L619.57,474.95L640.89,480.53L639.56,485.74L620.21,486.70L627.76,491.22L623.77,495.58L602.34,493.72L582.03,490.53L568.31,491.22L546.13,495.26L516.19,497.02L495.14,498.13L488.76,492.55L472.59,489.31L462.17,490.64L447.55,481.28L455.42,480.05L473.65,478.03L490.35,478.56L505.77,476.49L482.91,473.73L457.65,474.68L440.90,474.42L434.68,470.11L462.06,465.32L443.88,465.54L423.24,462.40L433.13,453.52L441.32,448.84L473.02,441.66L485.09,443.95L479.18,449.48L505.45,445.91L521.88,451.87L535.23,445.81L546.03,449.69L555.70,461.28L561.66,456.44L553.26,444.32L563.63,442.56L575.38,444.48ZM647.27,448.84L634.25,441.13L648.28,435.39L662.32,437.88L683.43,436.40L686.52,439.80L675.51,445.49L693.38,450.54L691.25,461.23L671.89,465.80L660.46,464.79L652.32,460.27L622.97,451.18L623.18,447.40L647.27,448.84ZM574.48,438.26L590.32,437.78L599.31,440.38L588.94,448.20L570.43,439.96L574.48,438.26ZM670.19,401.41L679.23,406.88L679.60,412.95L674.23,421.72L654.72,422.94L642.06,421.08L642.27,414.17L622.92,415.07L622.12,405.93L634.88,406.30L652.70,402.26L669.29,402.95L670.19,401.41ZM699.55,355.52L707.73,351.95L719.86,351.10L714.65,348.39L742.14,347.81L757.24,354.08L777.18,356.63L796.54,358.87L805.90,366.68L820.09,370.46L803.88,374.02L782.07,382.90L761.12,383.75L736.66,382.21L723.95,377.42L724.11,373.12L733.47,369.98L711.88,370.09L698.85,366.15L691.36,360.78L699.55,355.52ZM751.87,340.25L769.47,338.02L783.24,337.65L806.43,335.73L823.82,331.32L838.44,331.91L851.20,335.26L860.19,328.87L875.82,326.96L896.99,325.68L933.09,325.21L939.42,326.43L973.51,324.46L999.08,325.21L1024.71,325.95L1056.25,326.85L1081.67,328.40L1103.26,331.59L1102.78,334.72L1073.90,339.88L1045.35,342.27L1034.66,344.93L1060.40,344.88L1032.48,352.01L1013.28,355.36L993.02,365.03L968.61,367.00L961.12,369.39L925.33,370.67L941.60,372.16L933.47,374.23L943.25,380.08L932.03,384.12L913.74,387.47L908.15,392.10L891.62,395.61L893.32,398.32L913.52,397.84L913.74,400.71L882.20,407.84L851.31,404.54L816.58,406.40L798.98,404.97L776.65,404.33L775.16,398.64L797.02,395.98L791.22,387.47L798.45,386.62L829.99,391.73L813.87,384.18L794.73,381.89L804.30,377.32L825.25,374.50L828.60,370.40L811.91,365.78L806.91,359.66L839.18,360.19L848.54,361.47L866.94,357.16L840.35,355.78L799.04,356.58L778.14,352.54L768.25,347.75L754.48,344.30L751.87,340.25ZM945.32,511.00L937.67,514.51L924.37,515.10L921.45,509.30L926.50,502.71L937.35,501.06L946.55,504.30L946.71,509.41L945.32,511.00ZM696.73,486.86L703.91,491.38L696.57,495.53L680.61,491.91L671.04,493.24L654.88,487.92L665.30,484.25L673.54,479.15L686.09,482.50L693.16,484.63L696.73,486.86ZM1071.78,718.65L1075.82,717.70L1091.34,720.62L1103.47,725.57L1103.79,727.75L1098.04,727.96L1082.73,724.24L1071.78,718.65ZM1077.73,752.15L1081.83,757.95L1090.44,759.49L1101.34,759.17L1095.55,764.01L1091.18,764.81L1076.19,759.81L1073.26,755.82L1077.73,752.15Z" fill-rule="evenodd"/>
  </g>
  <rect x="1370" y="305" width="610" height="132" rx="24" class="badge"/>
  <text x="1410" y="358" class="badge-text">Canada / atlas outline</text>
  <text x="1410" y="398" class="footer">Primary atlas outline fitted for country-scale study.</text>
  <rect x="88" y="940" width="1924" height="382" rx="30" class="region-panel"/>
  <text x="132" y="998" class="region-heading">Study Region Index</text>
  <text x="132" y="1335" class="footer">Showing 5 of 5 study regions. Internal wine-region borders require an authoritative GIS layer before drawing.</text>
  
      <g class="region-row" transform="translate(135 1038)">
        <rect width="850" height="40" rx="13"/>
        <circle cx="26" cy="20" r="15"/>
        <text x="26" y="27" text-anchor="middle" class="region-number">1</text>
        <text x="54" y="28" class="region-name">Okanagan Valley</text>
      </g>
      <g class="region-row" transform="translate(1045 1038)">
        <rect width="850" height="40" rx="13"/>
        <circle cx="26" cy="20" r="15"/>
        <text x="26" y="27" text-anchor="middle" class="region-number">2</text>
        <text x="54" y="28" class="region-name">Niagara Peninsula</text>
      </g>
      <g class="region-row" transform="translate(135 1086)">
        <rect width="850" height="40" rx="13"/>
        <circle cx="26" cy="20" r="15"/>
        <text x="26" y="27" text-anchor="middle" class="region-number">3</text>
        <text x="54" y="28" class="region-name">Similkameen</text>
      </g>
      <g class="region-row" transform="translate(1045 1086)">
        <rect width="850" height="40" rx="13"/>
        <circle cx="26" cy="20" r="15"/>
        <text x="26" y="27" text-anchor="middle" class="region-number">4</text>
        <text x="54" y="28" class="region-name">Prince Edward County</text>
      </g>
      <g class="region-row" transform="translate(135 1134)">
        <rect width="850" height="40" rx="13"/>
        <circle cx="26" cy="20" r="15"/>
        <text x="26" y="27" text-anchor="middle" class="region-number">5</text>
        <text x="54" y="28" class="region-name">Nova Scotia</text>
      </g>
</svg>
