<svg xmlns="http://www.w3.org/2000/svg" width="2100" height="1400" viewBox="0 0 2100 1400" role="img" aria-label="United States Wine Map">
  <defs>
    <linearGradient id="bg" x1="0" y1="0" x2="1" y2="1">
      <stop offset="0" stop-color="#04131f"/>
      <stop offset="0.48" stop-color="#082d33"/>
      <stop offset="1" stop-color="#171f25"/>
    </linearGradient>
    <radialGradient id="glowGold" cx="20%" cy="16%" r="70%">
      <stop offset="0" stop-color="#edd4a8" stop-opacity="0.36"/>
      <stop offset="1" stop-color="#edd4a8" stop-opacity="0"/>
    </radialGradient>
    <radialGradient id="glowCyan" cx="60%" cy="45%" r="70%">
      <stop offset="0" stop-color="#48e5dc" stop-opacity="0.22"/>
      <stop offset="1" stop-color="#48e5dc" stop-opacity="0"/>
    </radialGradient>
    <linearGradient id="land" x1="0" y1="0" x2="1" y2="1">
      <stop offset="0" stop-color="#fff0ce"/>
      <stop offset="0.44" stop-color="#c99a22"/>
      <stop offset="1" stop-color="#3dd7ca"/>
    </linearGradient>
    <filter id="softShadow" x="-20%" y="-20%" width="140%" height="140%">
      <feDropShadow dx="0" dy="28" stdDeviation="26" flood-color="#000816" flood-opacity="0.52"/>
      <feDropShadow dx="0" dy="0" stdDeviation="12" flood-color="#48e5dc" flood-opacity="0.22"/>
    </filter>
    <style>
      .frame { fill: none; stroke: rgba(159, 218, 245, 0.32); stroke-width: 2; }
      .grid { stroke: rgba(159, 218, 245, 0.14); stroke-width: 1; }
      .micro { fill: rgba(217, 247, 255, 0.64); font: 800 19px 'Trebuchet MS', Arial, sans-serif; letter-spacing: 8px; text-transform: uppercase; }
      .title { fill: #fff0ce; font: 900 66px 'Trebuchet MS', Arial, sans-serif; letter-spacing: -2px; }
      .subtitle { fill: rgba(217, 247, 255, 0.78); font: 800 25px 'Trebuchet MS', Arial, sans-serif; }
      .land-core { fill: url(#land); stroke: #fff0ce; stroke-width: 3; stroke-linejoin: round; filter: url(#softShadow); }
      .land-line { fill: none; stroke: rgba(4, 13, 24, 0.72); stroke-width: 10; opacity: 0.55; stroke-linejoin: round; }
      .contour { fill: none; stroke: rgba(237, 212, 168, 0.16); stroke-width: 3; stroke-linecap: round; }
      .region-panel { fill: rgba(5, 18, 28, 0.72); stroke: rgba(159, 218, 245, 0.28); stroke-width: 2; }
      .region-heading { fill: #fff0ce; font: 900 34px 'Trebuchet MS', Arial, sans-serif; letter-spacing: 5px; text-transform: uppercase; }
      .region-subheading { fill: rgba(217, 247, 255, 0.68); font: 700 22px 'Trebuchet MS', Arial, sans-serif; }
      .region-row rect { fill: rgba(4, 19, 31, 0.82); stroke: rgba(159, 218, 245, 0.38); stroke-width: 1.6; }
      .region-row circle { fill: rgba(237, 212, 168, 0.95); }
      .region-number { fill: #04131f; font: 900 18px 'Trebuchet MS', Arial, sans-serif; }
      .region-name { fill: #fff0ce; font: 900 31px 'Trebuchet MS', Arial, sans-serif; }
      .badge { fill: rgba(7, 35, 48, 0.88); stroke: rgba(237, 212, 168, 0.48); stroke-width: 1.5; }
      .badge-text { fill: #edd4a8; font: 900 18px 'Trebuchet MS', Arial, sans-serif; letter-spacing: 3px; text-transform: uppercase; }
      .footer { fill: rgba(217, 247, 255, 0.58); font: 700 18px 'Trebuchet MS', Arial, sans-serif; }
    </style>
  </defs>
  <rect width="2100" height="1400" fill="url(#bg)"/>
  <rect width="2100" height="1400" fill="url(#glowGold)"/>
  <rect width="2100" height="1400" fill="url(#glowCyan)"/>
  <line class="grid" x1="120" y1="0" x2="120" y2="1400"/><line class="grid" x1="240" y1="0" x2="240" y2="1400"/><line class="grid" x1="360" y1="0" x2="360" y2="1400"/><line class="grid" x1="480" y1="0" x2="480" y2="1400"/><line class="grid" x1="600" y1="0" x2="600" y2="1400"/><line class="grid" x1="720" y1="0" x2="720" y2="1400"/><line class="grid" x1="840" y1="0" x2="840" y2="1400"/><line class="grid" x1="960" y1="0" x2="960" y2="1400"/><line class="grid" x1="1080" y1="0" x2="1080" y2="1400"/><line class="grid" x1="1200" y1="0" x2="1200" y2="1400"/><line class="grid" x1="1320" y1="0" x2="1320" y2="1400"/><line class="grid" x1="1440" y1="0" x2="1440" y2="1400"/><line class="grid" x1="1560" y1="0" x2="1560" y2="1400"/><line class="grid" x1="1680" y1="0" x2="1680" y2="1400"/><line class="grid" x1="1800" y1="0" x2="1800" y2="1400"/>
  <line class="grid" x1="0" y1="180" x2="2100" y2="180"/><line class="grid" x1="0" y1="300" x2="2100" y2="300"/><line class="grid" x1="0" y1="420" x2="2100" y2="420"/><line class="grid" x1="0" y1="540" x2="2100" y2="540"/><line class="grid" x1="0" y1="660" x2="2100" y2="660"/><line class="grid" x1="0" y1="780" x2="2100" y2="780"/><line class="grid" x1="0" y1="900" x2="2100" y2="900"/><line class="grid" x1="0" y1="1020" x2="2100" y2="1020"/>
  <rect x="34" y="34" width="2032" height="1332" rx="42" class="frame"/>
  <text x="80" y="108" class="micro">Sip Studios Maps / Country Study Plate</text>
  <text x="80" y="185" class="title">United States Wine Map</text>
  <text x="84" y="232" class="subtitle">North America / 5 study regions / Wine geography</text>
  <g opacity="0.9">
    <path class="contour" d="M134 294 C 390 222, 670 416, 922 320 S 1170 268, 1250 334"/><path class="contour" d="M134 399 C 390 327, 670 459, 922 394 S 1170 342, 1250 408"/><path class="contour" d="M134 440 C 390 368, 670 566, 922 468 S 1170 416, 1250 482"/><path class="contour" d="M134 545 C 390 473, 670 609, 922 542 S 1170 490, 1250 556"/><path class="contour" d="M134 586 C 390 514, 670 716, 922 616 S 1170 564, 1250 630"/><path class="contour" d="M134 691 C 390 619, 670 759, 922 690 S 1170 638, 1250 704"/><path class="contour" d="M134 732 C 390 660, 670 866, 922 764 S 1170 712, 1250 778"/><path class="contour" d="M134 837 C 390 765, 670 909, 922 838 S 1170 786, 1250 852"/>
    <path class="land-line" d="M655.56,531.53L683.84,531.53L713.37,531.53L723.14,531.53L753.53,531.53L782.88,531.53L812.77,531.53L842.67,531.53L876.50,531.53L910.61,531.53L931.22,531.53L931.27,527.72L934.63,527.67L936.38,533.14L939.47,534.80L946.42,535.42L956.59,536.99L966.23,540.08L974.29,538.79L986.57,541.38L989.84,541.30L998.72,538.47L1008.08,542.10L1017.85,545.96L1025.88,549.27L1033.63,552.45L1034.57,555.05L1036.90,556.04L1036.32,557.03L1039.01,557.34L1040.94,556.31L1041.43,558.68L1043.45,560.25L1046.18,560.25L1047.61,561.46L1046.36,563.26L1056.76,567.92L1058.91,576.92L1060.88,585.62L1058.01,591.49L1053.30,596.96L1051.11,600.45L1050.88,601.48L1052.01,602.92L1055.37,604.49L1057.88,604.49L1069.48,599.15L1079.70,597.58L1092.74,592.65L1092.92,591.62L1092.03,588.58L1090.46,586.65L1094.94,585.08L1104.71,585.04L1113.85,585.04L1117.03,581.14L1118.24,580.38L1128.82,573.20L1133.30,571.37L1148.41,571.28L1166.78,571.28L1167.77,568.81L1170.95,568.32L1175.21,566.80L1178.75,562.27L1181.75,554.52L1189.37,546.99L1192.64,549.59L1199.36,547.93L1203.75,550.80L1203.75,564.38L1210.25,569.98L1212.00,573.25L1201.38,578.09L1191.12,581.54L1180.63,584.45L1175.34,590.41L1173.64,592.65L1173.55,597.90L1176.86,603.19L1180.99,603.46L1179.91,599.78L1182.91,602.02L1182.11,604.84L1175.38,606.46L1170.59,606.28L1163.24,608.03L1158.94,608.52L1153.11,609.01L1144.82,611.88L1159.48,610.00L1162.39,611.88L1148.45,614.88L1142.09,614.88L1142.40,613.67L1139.40,616.45L1142.31,616.90L1140.16,624.07L1132.90,631.73L1132.18,629.18L1129.99,628.64L1126.71,626.18L1128.78,631.51L1131.24,633.30L1131.42,637.07L1128.24,640.92L1122.59,648.90L1121.69,648.50L1124.79,641.68L1119.68,637.92L1118.51,629.63L1116.63,633.93L1118.74,640.25L1112.15,638.68L1119.01,641.91L1119.45,651.36L1122.28,652.08L1123.31,655.49L1124.70,665.48L1118.42,672.88L1108.07,675.83L1101.57,681.66L1096.55,682.29L1091.53,685.96L1090.10,689.32L1079.16,695.78L1073.56,700.48L1068.86,706.40L1067.33,713.48L1069.13,720.43L1072.40,728.90L1076.83,735.98L1076.88,740.28L1081.63,751.84L1081.32,758.52L1080.87,762.42L1078.40,768.51L1075.40,769.77L1070.51,768.56L1068.95,764.17L1065.18,761.88L1059.85,753.32L1055.23,745.70L1053.71,741.80L1055.77,735.17L1052.99,729.70L1045.24,721.37L1041.34,719.89L1031.30,724.37L1029.51,723.88L1024.67,719.26L1018.44,716.75L1007.19,718.05L998.32,716.93L990.74,717.60L986.66,719.17L988.46,721.82L988.28,725.85L990.38,727.82L988.46,729.12L984.78,727.64L981.06,729.52L973.80,729.26L966.41,723.97L957.71,725.22L950.45,722.89L944.27,723.61L935.89,725.94L926.79,733.33L916.93,737.64L911.46,742.39L909.22,746.87L909.09,753.73L909.58,758.52L911.46,761.88L907.61,762.20L900.53,760.00L892.73,756.91L889.95,752.25L887.75,745.25L881.88,739.56L878.43,733.74L873.46,726.92L866.42,722.94L858.31,723.12L852.03,731.00L843.79,728.05L838.59,725.04L836.12,719.53L832.85,714.33L826.94,709.94L821.83,706.80L818.15,703.26L800.94,703.26L800.94,707.38L793.01,707.38L773.20,707.47L750.48,700.44L735.47,695.60L736.41,693.67L723.72,694.75L712.39,695.51L710.77,690.40L704.32,684.71L699.66,683.50L698.58,680.63L692.98,680.14L689.39,677.45L680.12,676.46L677.61,674.85L676.40,669.38L666.72,659.39L658.43,645.54L658.79,643.25L654.39,639.94L646.68,631.60L645.34,623.49L640.01,618.02L642.20,609.77L641.84,601.26L638.66,593.60L642.56,584.23L643.77,575.18L644.98,566.17L643.19,552.81L640.01,544.25L637.14,539.64L638.35,537.71L652.74,541.07L658.07,550.48L660.53,547.88L658.92,539.68L655.56,531.53ZM331.22,819.56L333.01,820.41L334.63,821.76L337.14,825.25L336.91,825.79L333.01,827.90L329.83,829.47L328.35,831.12L325.89,829.73L326.20,826.96L324.54,823.28L325.04,822.20L326.74,820.55L326.07,818.62L326.65,817.68L327.41,817.86L331.22,819.56ZM325.31,812.75L324.50,813.91L321.14,814.63L319.43,812.52L318.31,811.72L318.18,811.09L319.17,810.28L322.71,811.22L325.31,812.75ZM317.73,808.63L317.42,809.70L312.04,809.39L312.80,808.18L317.73,808.63ZM305.09,803.25L305.95,803.87L308.81,807.19L308.28,807.77L307.56,807.64L304.11,807.28L302.85,805.04L302.45,804.64L305.09,803.25ZM291.78,798.27L291.96,800.60L290.75,801.59L287.44,799.80L287.93,799.08L289.45,798.09L291.78,798.27ZM221.02,418.14L228.91,419.08L229.89,422.89L223.75,424.41L217.21,422.58L211.20,419.84L221.02,418.14ZM352.87,442.21L359.50,442.88L363.67,445.97L355.06,450.72L345.16,454.49L340.05,451.93L338.53,447.27L347.53,443.73L352.87,442.21ZM474.81,325.23L474.72,362.21L474.68,418.95L484.49,419.21L494.17,421.99L501.17,426.34L509.99,432.88L519.67,427.33L529.67,424.10L534.96,429.25L541.68,433.33L550.82,437.81L557.01,444.94L567.18,456.32L584.17,462.64L584.39,468.96L578.88,473.76L573.41,469.99L564.63,466.81L561.80,458.12L548.98,450.09L543.61,440.68L534.02,440.01L518.20,439.79L506.54,436.92L485.93,426.56L476.43,424.68L458.99,421.14L445.19,421.99L425.61,417.42L413.77,413.16L402.70,415.27L404.77,422.22L399.25,422.85L387.74,424.91L378.95,428.27L367.93,430.37L366.54,424.50L371.02,414.73L381.60,411.69L378.86,409.18L366.18,414.73L359.37,421.37L345.03,428.45L352.29,433.29L342.87,440.46L332.16,444.63L322.21,447.63L319.75,452.07L304.15,457.17L301.06,461.88L289.41,466.14L282.55,465.38L273.27,468.15L263.15,471.52L254.85,474.88L237.78,477.70L236.21,476.04L247.15,471.38L256.83,468.33L267.45,462.87L279.82,461.75L284.75,457.67L298.55,451.71L300.75,449.69L308.10,446.19L309.84,438.62L314.91,432.75L303.44,435.75L300.21,434.05L294.83,437.68L288.33,432.62L285.64,436.20L281.92,431.23L271.93,435.21L265.83,435.21L264.98,429.30L266.78,425.62L260.37,422.08L247.41,423.97L238.99,419.30L232.18,416.93L232.13,411.28L224.47,407.02L228.32,401.33L236.43,395.73L239.98,390.62L248.04,389.90L254.90,391.52L262.92,386.68L270.14,387.57L277.76,384.48L275.87,379.91L270.32,378.12L277.67,374.31L271.57,374.40L260.99,376.55L257.95,378.79L250.10,376.55L236.03,377.71L221.47,375.29L217.25,371.31L204.66,365.52L218.64,361.36L240.87,356.47L249.07,356.47L247.68,361.45L268.70,361.09L260.64,354.90L248.40,351.09L241.32,346.12L231.73,341.86L218.10,338.72L223.66,333.53L241.32,333.21L253.87,328.64L256.24,323.80L266.42,319.05L276.14,317.93L295.01,313.49L304.15,314.17L319.48,308.88L334.58,310.94L341.80,315.46L346.19,313.54L363.00,314.12L362.41,316.41L377.65,318.11L387.82,317.12L408.80,320.26L427.94,321.20L435.60,322.50L448.86,320.89L463.97,323.85L474.81,325.23ZM168.63,384.30L174.72,386.23L180.95,385.20L189.02,387.80L198.92,389.14L198.07,390.22L190.50,392.33L182.97,390.17L179.16,388.38L170.38,388.92L168.00,388.07L168.63,384.30Z"/>
    <path class="land-core" d="M655.56,531.53L683.84,531.53L713.37,531.53L723.14,531.53L753.53,531.53L782.88,531.53L812.77,531.53L842.67,531.53L876.50,531.53L910.61,531.53L931.22,531.53L931.27,527.72L934.63,527.67L936.38,533.14L939.47,534.80L946.42,535.42L956.59,536.99L966.23,540.08L974.29,538.79L986.57,541.38L989.84,541.30L998.72,538.47L1008.08,542.10L1017.85,545.96L1025.88,549.27L1033.63,552.45L1034.57,555.05L1036.90,556.04L1036.32,557.03L1039.01,557.34L1040.94,556.31L1041.43,558.68L1043.45,560.25L1046.18,560.25L1047.61,561.46L1046.36,563.26L1056.76,567.92L1058.91,576.92L1060.88,585.62L1058.01,591.49L1053.30,596.96L1051.11,600.45L1050.88,601.48L1052.01,602.92L1055.37,604.49L1057.88,604.49L1069.48,599.15L1079.70,597.58L1092.74,592.65L1092.92,591.62L1092.03,588.58L1090.46,586.65L1094.94,585.08L1104.71,585.04L1113.85,585.04L1117.03,581.14L1118.24,580.38L1128.82,573.20L1133.30,571.37L1148.41,571.28L1166.78,571.28L1167.77,568.81L1170.95,568.32L1175.21,566.80L1178.75,562.27L1181.75,554.52L1189.37,546.99L1192.64,549.59L1199.36,547.93L1203.75,550.80L1203.75,564.38L1210.25,569.98L1212.00,573.25L1201.38,578.09L1191.12,581.54L1180.63,584.45L1175.34,590.41L1173.64,592.65L1173.55,597.90L1176.86,603.19L1180.99,603.46L1179.91,599.78L1182.91,602.02L1182.11,604.84L1175.38,606.46L1170.59,606.28L1163.24,608.03L1158.94,608.52L1153.11,609.01L1144.82,611.88L1159.48,610.00L1162.39,611.88L1148.45,614.88L1142.09,614.88L1142.40,613.67L1139.40,616.45L1142.31,616.90L1140.16,624.07L1132.90,631.73L1132.18,629.18L1129.99,628.64L1126.71,626.18L1128.78,631.51L1131.24,633.30L1131.42,637.07L1128.24,640.92L1122.59,648.90L1121.69,648.50L1124.79,641.68L1119.68,637.92L1118.51,629.63L1116.63,633.93L1118.74,640.25L1112.15,638.68L1119.01,641.91L1119.45,651.36L1122.28,652.08L1123.31,655.49L1124.70,665.48L1118.42,672.88L1108.07,675.83L1101.57,681.66L1096.55,682.29L1091.53,685.96L1090.10,689.32L1079.16,695.78L1073.56,700.48L1068.86,706.40L1067.33,713.48L1069.13,720.43L1072.40,728.90L1076.83,735.98L1076.88,740.28L1081.63,751.84L1081.32,758.52L1080.87,762.42L1078.40,768.51L1075.40,769.77L1070.51,768.56L1068.95,764.17L1065.18,761.88L1059.85,753.32L1055.23,745.70L1053.71,741.80L1055.77,735.17L1052.99,729.70L1045.24,721.37L1041.34,719.89L1031.30,724.37L1029.51,723.88L1024.67,719.26L1018.44,716.75L1007.19,718.05L998.32,716.93L990.74,717.60L986.66,719.17L988.46,721.82L988.28,725.85L990.38,727.82L988.46,729.12L984.78,727.64L981.06,729.52L973.80,729.26L966.41,723.97L957.71,725.22L950.45,722.89L944.27,723.61L935.89,725.94L926.79,733.33L916.93,737.64L911.46,742.39L909.22,746.87L909.09,753.73L909.58,758.52L911.46,761.88L907.61,762.20L900.53,760.00L892.73,756.91L889.95,752.25L887.75,745.25L881.88,739.56L878.43,733.74L873.46,726.92L866.42,722.94L858.31,723.12L852.03,731.00L843.79,728.05L838.59,725.04L836.12,719.53L832.85,714.33L826.94,709.94L821.83,706.80L818.15,703.26L800.94,703.26L800.94,707.38L793.01,707.38L773.20,707.47L750.48,700.44L735.47,695.60L736.41,693.67L723.72,694.75L712.39,695.51L710.77,690.40L704.32,684.71L699.66,683.50L698.58,680.63L692.98,680.14L689.39,677.45L680.12,676.46L677.61,674.85L676.40,669.38L666.72,659.39L658.43,645.54L658.79,643.25L654.39,639.94L646.68,631.60L645.34,623.49L640.01,618.02L642.20,609.77L641.84,601.26L638.66,593.60L642.56,584.23L643.77,575.18L644.98,566.17L643.19,552.81L640.01,544.25L637.14,539.64L638.35,537.71L652.74,541.07L658.07,550.48L660.53,547.88L658.92,539.68L655.56,531.53ZM331.22,819.56L333.01,820.41L334.63,821.76L337.14,825.25L336.91,825.79L333.01,827.90L329.83,829.47L328.35,831.12L325.89,829.73L326.20,826.96L324.54,823.28L325.04,822.20L326.74,820.55L326.07,818.62L326.65,817.68L327.41,817.86L331.22,819.56ZM325.31,812.75L324.50,813.91L321.14,814.63L319.43,812.52L318.31,811.72L318.18,811.09L319.17,810.28L322.71,811.22L325.31,812.75ZM317.73,808.63L317.42,809.70L312.04,809.39L312.80,808.18L317.73,808.63ZM305.09,803.25L305.95,803.87L308.81,807.19L308.28,807.77L307.56,807.64L304.11,807.28L302.85,805.04L302.45,804.64L305.09,803.25ZM291.78,798.27L291.96,800.60L290.75,801.59L287.44,799.80L287.93,799.08L289.45,798.09L291.78,798.27ZM221.02,418.14L228.91,419.08L229.89,422.89L223.75,424.41L217.21,422.58L211.20,419.84L221.02,418.14ZM352.87,442.21L359.50,442.88L363.67,445.97L355.06,450.72L345.16,454.49L340.05,451.93L338.53,447.27L347.53,443.73L352.87,442.21ZM474.81,325.23L474.72,362.21L474.68,418.95L484.49,419.21L494.17,421.99L501.17,426.34L509.99,432.88L519.67,427.33L529.67,424.10L534.96,429.25L541.68,433.33L550.82,437.81L557.01,444.94L567.18,456.32L584.17,462.64L584.39,468.96L578.88,473.76L573.41,469.99L564.63,466.81L561.80,458.12L548.98,450.09L543.61,440.68L534.02,440.01L518.20,439.79L506.54,436.92L485.93,426.56L476.43,424.68L458.99,421.14L445.19,421.99L425.61,417.42L413.77,413.16L402.70,415.27L404.77,422.22L399.25,422.85L387.74,424.91L378.95,428.27L367.93,430.37L366.54,424.50L371.02,414.73L381.60,411.69L378.86,409.18L366.18,414.73L359.37,421.37L345.03,428.45L352.29,433.29L342.87,440.46L332.16,444.63L322.21,447.63L319.75,452.07L304.15,457.17L301.06,461.88L289.41,466.14L282.55,465.38L273.27,468.15L263.15,471.52L254.85,474.88L237.78,477.70L236.21,476.04L247.15,471.38L256.83,468.33L267.45,462.87L279.82,461.75L284.75,457.67L298.55,451.71L300.75,449.69L308.10,446.19L309.84,438.62L314.91,432.75L303.44,435.75L300.21,434.05L294.83,437.68L288.33,432.62L285.64,436.20L281.92,431.23L271.93,435.21L265.83,435.21L264.98,429.30L266.78,425.62L260.37,422.08L247.41,423.97L238.99,419.30L232.18,416.93L232.13,411.28L224.47,407.02L228.32,401.33L236.43,395.73L239.98,390.62L248.04,389.90L254.90,391.52L262.92,386.68L270.14,387.57L277.76,384.48L275.87,379.91L270.32,378.12L277.67,374.31L271.57,374.40L260.99,376.55L257.95,378.79L250.10,376.55L236.03,377.71L221.47,375.29L217.25,371.31L204.66,365.52L218.64,361.36L240.87,356.47L249.07,356.47L247.68,361.45L268.70,361.09L260.64,354.90L248.40,351.09L241.32,346.12L231.73,341.86L218.10,338.72L223.66,333.53L241.32,333.21L253.87,328.64L256.24,323.80L266.42,319.05L276.14,317.93L295.01,313.49L304.15,314.17L319.48,308.88L334.58,310.94L341.80,315.46L346.19,313.54L363.00,314.12L362.41,316.41L377.65,318.11L387.82,317.12L408.80,320.26L427.94,321.20L435.60,322.50L448.86,320.89L463.97,323.85L474.81,325.23ZM168.63,384.30L174.72,386.23L180.95,385.20L189.02,387.80L198.92,389.14L198.07,390.22L190.50,392.33L182.97,390.17L179.16,388.38L170.38,388.92L168.00,388.07L168.63,384.30Z" fill-rule="evenodd"/>
  </g>
  <rect x="1370" y="305" width="610" height="132" rx="24" class="badge"/>
  <text x="1410" y="358" class="badge-text">United States / atlas outline</text>
  <text x="1410" y="398" class="footer">Primary atlas outline fitted for country-scale study.</text>
  <rect x="88" y="940" width="1924" height="382" rx="30" class="region-panel"/>
  <text x="132" y="998" class="region-heading">Study Region Index</text>
  <text x="132" y="1335" class="footer">Showing 5 of 5 study regions. Internal wine-region borders require an authoritative GIS layer before drawing.</text>
  
      <g class="region-row" transform="translate(135 1038)">
        <rect width="850" height="40" rx="13"/>
        <circle cx="26" cy="20" r="15"/>
        <text x="26" y="27" text-anchor="middle" class="region-number">1</text>
        <text x="54" y="28" class="region-name">Napa Valley</text>
      </g>
      <g class="region-row" transform="translate(1045 1038)">
        <rect width="850" height="40" rx="13"/>
        <circle cx="26" cy="20" r="15"/>
        <text x="26" y="27" text-anchor="middle" class="region-number">2</text>
        <text x="54" y="28" class="region-name">Sonoma</text>
      </g>
      <g class="region-row" transform="translate(135 1086)">
        <rect width="850" height="40" rx="13"/>
        <circle cx="26" cy="20" r="15"/>
        <text x="26" y="27" text-anchor="middle" class="region-number">3</text>
        <text x="54" y="28" class="region-name">Willamette Valley</text>
      </g>
      <g class="region-row" transform="translate(1045 1086)">
        <rect width="850" height="40" rx="13"/>
        <circle cx="26" cy="20" r="15"/>
        <text x="26" y="27" text-anchor="middle" class="region-number">4</text>
        <text x="54" y="28" class="region-name">Washington</text>
      </g>
      <g class="region-row" transform="translate(135 1134)">
        <rect width="850" height="40" rx="13"/>
        <circle cx="26" cy="20" r="15"/>
        <text x="26" y="27" text-anchor="middle" class="region-number">5</text>
        <text x="54" y="28" class="region-name">Finger Lakes</text>
      </g>
</svg>
