<svg xmlns="http://www.w3.org/2000/svg" width="2400" height="1600" viewBox="0 0 2400 1600" role="img" aria-label="France Wine Region Map">
  <defs>
    <linearGradient id="bg" x1="0" y1="0" x2="1" y2="1">
      <stop offset="0" stop-color="#061625"/>
      <stop offset="0.5" stop-color="#0a2f38"/>
      <stop offset="1" stop-color="#18242a"/>
    </linearGradient>
    <radialGradient id="paperGlow" cx="38%" cy="30%" r="74%">
      <stop offset="0" stop-color="#fff0ce" stop-opacity="0.18"/>
      <stop offset="1" stop-color="#fff0ce" stop-opacity="0"/>
    </radialGradient>
    <filter id="panelShadow" x="-20%" y="-20%" width="140%" height="140%">
      <feDropShadow dx="0" dy="24" stdDeviation="22" flood-color="#000816" flood-opacity="0.42"/>
    </filter>
    <clipPath id="franceClip">
      <path d="M1089.6,1166.8L1125.9,1138.8L1233.8,1124.6L1201.5,1044.7L1197.2,963.5L1177.2,942.9L1141.9,951.2L1146.0,922.7L1092.8,856.3L1093.7,805.1L1130.2,824.5L1159.7,776.3L1158.3,744.2L1184.1,703.0L1158.2,667.0L1184.0,580.6L1229.0,569.0L1222.7,519.3L1151.8,451.0L987.7,475.3L868.2,436.4L859.1,368.1L761.9,353.4L668.4,406.1L637.5,382.4L486.4,439.8L455.7,485.6L501.7,551.3L527.7,776.0L453.5,899.0L400.6,959.8L288.1,1012.3L287.9,1095.3L386.4,1112.2L509.6,1075.3L493.1,1204.8L560.2,1152.6L733.2,1236.2L756.2,1328.9L818.8,1351.5L829.2,1311.7L862.5,1310.0L896.6,1264.8L948.4,1212.2L985.7,1222.0L1051.6,1172.6L1068.5,1163.3L1089.6,1166.8ZM1339.5,406.4L1389.4,454.1L1412.1,358.3L1391.8,268.5L1351.4,288.3L1326.0,363.1L1339.5,406.4Z" fill-rule="evenodd"/>
    </clipPath>
    <style>
      .frame { fill: none; stroke: rgba(159, 218, 245, 0.34); stroke-width: 2.4; }
      .grid { stroke: rgba(159, 218, 245, 0.12); stroke-width: 1.2; }
      .title { fill: #fff0ce; font: 900 76px 'Trebuchet MS', Arial, sans-serif; letter-spacing: 0; }
      .subtitle { fill: rgba(217, 247, 255, 0.8); font: 800 28px 'Trebuchet MS', Arial, sans-serif; }
      .micro { fill: rgba(217, 247, 255, 0.66); font: 900 19px 'Trebuchet MS', Arial, sans-serif; letter-spacing: 7px; text-transform: uppercase; }
      .map-shell { fill: rgba(4, 13, 24, 0.52); stroke: rgba(159, 218, 245, 0.24); stroke-width: 2; filter: url(#panelShadow); }
      .land-base { fill: #113345; stroke: #fff0ce; stroke-width: 4.8; stroke-linejoin: round; }
      .coastline { fill: none; stroke: rgba(255, 240, 206, 0.88); stroke-width: 3.2; stroke-linejoin: round; }
      .wine-basin { fill-opacity: 0.86; stroke: rgba(4, 13, 24, 0.72); stroke-width: 1.9; stroke-linejoin: round; }
      .terrain { fill: rgba(255, 240, 206, 0.12); stroke: rgba(255, 240, 206, 0.22); stroke-width: 1.3; stroke-dasharray: 9 8; }
      .river { fill: none; stroke: rgba(159, 218, 245, 0.72); stroke-width: 3.2; stroke-linecap: round; stroke-linejoin: round; }
      .map-badge rect { fill: rgba(4, 13, 24, 0.86); stroke: rgba(255, 240, 206, 0.88); stroke-width: 2; }
      .map-badge text { fill: #fff0ce; font: 900 20px 'Trebuchet MS', Arial, sans-serif; }
      .city circle { fill: #061625; stroke: #fff0ce; stroke-width: 2.2; }
      .city text { fill: rgba(255, 240, 206, 0.86); font: 900 18px 'Trebuchet MS', Arial, sans-serif; paint-order: stroke; stroke: rgba(4, 13, 24, 0.82); stroke-width: 5; stroke-linejoin: round; }
      .legend-panel { fill: rgba(5, 18, 28, 0.84); stroke: rgba(159, 218, 245, 0.28); stroke-width: 2; filter: url(#panelShadow); }
      .legend-title { fill: #fff0ce; font: 900 38px 'Trebuchet MS', Arial, sans-serif; }
      .legend-note { fill: rgba(217, 247, 255, 0.68); font: 800 18px 'Trebuchet MS', Arial, sans-serif; }
      .legend-row rect { fill: rgba(4, 19, 31, 0.78); stroke: rgba(159, 218, 245, 0.22); stroke-width: 1.4; }
      .legend-number { fill: #04131f; font: 900 18px 'Trebuchet MS', Arial, sans-serif; }
      .legend-name { fill: #fff0ce; font: 900 23px 'Trebuchet MS', Arial, sans-serif; }
      .legend-detail { fill: rgba(217, 247, 255, 0.72); font: 800 15px 'Trebuchet MS', Arial, sans-serif; }
      .source { fill: rgba(217, 247, 255, 0.58); font: 700 16px 'Trebuchet MS', Arial, sans-serif; }
    </style>
  </defs>
  <rect width="2400" height="1600" fill="url(#bg)"/>
  <rect width="2400" height="1600" fill="url(#paperGlow)"/>
  <line class="grid" x1="120" y1="0" x2="120" y2="1600"/><line class="grid" x1="240" y1="0" x2="240" y2="1600"/><line class="grid" x1="360" y1="0" x2="360" y2="1600"/><line class="grid" x1="480" y1="0" x2="480" y2="1600"/><line class="grid" x1="600" y1="0" x2="600" y2="1600"/><line class="grid" x1="720" y1="0" x2="720" y2="1600"/><line class="grid" x1="840" y1="0" x2="840" y2="1600"/><line class="grid" x1="960" y1="0" x2="960" y2="1600"/><line class="grid" x1="1080" y1="0" x2="1080" y2="1600"/><line class="grid" x1="1200" y1="0" x2="1200" y2="1600"/><line class="grid" x1="1320" y1="0" x2="1320" y2="1600"/><line class="grid" x1="1440" y1="0" x2="1440" y2="1600"/><line class="grid" x1="1560" y1="0" x2="1560" y2="1600"/><line class="grid" x1="1680" y1="0" x2="1680" y2="1600"/><line class="grid" x1="1800" y1="0" x2="1800" y2="1600"/><line class="grid" x1="1920" y1="0" x2="1920" y2="1600"/><line class="grid" x1="2040" y1="0" x2="2040" y2="1600"/><line class="grid" x1="2160" y1="0" x2="2160" y2="1600"/>
  <line class="grid" x1="0" y1="180" x2="2400" y2="180"/><line class="grid" x1="0" y1="300" x2="2400" y2="300"/><line class="grid" x1="0" y1="420" x2="2400" y2="420"/><line class="grid" x1="0" y1="540" x2="2400" y2="540"/><line class="grid" x1="0" y1="660" x2="2400" y2="660"/><line class="grid" x1="0" y1="780" x2="2400" y2="780"/><line class="grid" x1="0" y1="900" x2="2400" y2="900"/><line class="grid" x1="0" y1="1020" x2="2400" y2="1020"/><line class="grid" x1="0" y1="1140" x2="2400" y2="1140"/><line class="grid" x1="0" y1="1260" x2="2400" y2="1260"/>
  <rect x="36" y="36" width="2328" height="1528" rx="44" class="frame"/>
  <text x="92" y="104" class="micro">Sip Studios Maps / Source-Backed Country Plate</text>
  <text x="92" y="184" class="title">France Wine Region Map</text>
  <text x="96" y="230" class="subtitle">Mainland France and Corsica / official broad AOP production-basin geometry / editable SVG</text>
  <rect x="62" y="204" width="1576" height="1216" rx="34" class="map-shell"/>
  <g>
    <path class="land-base" d="M1089.6,1166.8L1125.9,1138.8L1233.8,1124.6L1201.5,1044.7L1197.2,963.5L1177.2,942.9L1141.9,951.2L1146.0,922.7L1092.8,856.3L1093.7,805.1L1130.2,824.5L1159.7,776.3L1158.3,744.2L1184.1,703.0L1158.2,667.0L1184.0,580.6L1229.0,569.0L1222.7,519.3L1151.8,451.0L987.7,475.3L868.2,436.4L859.1,368.1L761.9,353.4L668.4,406.1L637.5,382.4L486.4,439.8L455.7,485.6L501.7,551.3L527.7,776.0L453.5,899.0L400.6,959.8L288.1,1012.3L287.9,1095.3L386.4,1112.2L509.6,1075.3L493.1,1204.8L560.2,1152.6L733.2,1236.2L756.2,1328.9L818.8,1351.5L829.2,1311.7L862.5,1310.0L896.6,1264.8L948.4,1212.2L985.7,1222.0L1051.6,1172.6L1068.5,1163.3L1089.6,1166.8ZM1339.5,406.4L1389.4,454.1L1412.1,358.3L1391.8,268.5L1351.4,288.3L1326.0,363.1L1339.5,406.4Z" fill-rule="evenodd"/>
    <g clip-path="url(#franceClip)">
      <path class="terrain" d="M487.6,458.6L569.2,426.6L676.9,412.1L793.3,388.0L864.4,365.5L822.5,422.0L702.6,457.0L583.2,471.5L487.6,458.6Z"><title>Pyrenees</title></path>
    <path class="terrain" d="M712.4,553.3L786.1,637.6L886.0,683.2L966.3,662.0L944.1,570.8L871.5,513.0L769.1,513.0L712.4,553.3Z"><title>Massif Central</title></path>
    <path class="terrain" d="M1054.1,670.4L1116.1,712.7L1182.2,670.9L1204.4,570.0L1149.9,521.5L1078.5,563.6L1054.1,670.4Z"><title>Alps</title></path>
    <path class="terrain" d="M1134.0,974.5L1178.6,994.1L1187.7,1091.2L1155.0,1138.0L1119.9,1098.6L1116.2,1024.6L1134.0,974.5Z"><title>Vosges</title></path>
      <path class="wine-basin" d="M653.2,485.0L654.1,487.7L648.9,490.0L646.9,494.2L642.4,493.0L642.5,490.5L635.7,494.9L636.2,492.0L632.4,491.1L629.5,492.4L628.2,488.0L623.1,487.1L614.1,492.5L611.8,499.2L609.5,500.1L606.9,499.8L604.9,497.1L598.8,498.6L593.5,497.6L592.7,501.4L590.1,501.8L590.5,505.1L587.2,507.4L590.9,514.1L586.0,517.8L587.5,520.7L581.3,522.2L588.8,529.1L585.8,538.4L589.5,541.6L590.8,547.9L592.2,549.1L598.3,548.2L610.8,544.8L614.0,545.2L614.5,548.7L620.3,546.9L625.5,557.3L630.2,558.1L630.3,559.5L638.5,558.7L637.6,566.2L642.7,565.8L644.0,562.3L647.3,560.3L649.1,562.3L652.0,554.2L651.7,550.1L659.0,549.4L662.8,551.7L665.0,550.4L665.8,547.8L664.1,544.3L673.3,539.8L671.8,534.2L675.0,527.4L675.2,520.5L672.8,517.7L674.9,514.6L678.7,513.2L677.1,509.4L675.0,508.5L676.8,505.9L673.0,506.3L669.9,502.7L671.4,499.2L669.0,499.9L670.3,498.7L668.3,494.3L668.9,490.4L665.1,492.2L663.6,485.9L659.1,486.5L657.9,488.6L656.0,484.8L653.7,484.8L653.2,485.0Z" fill="#a56d3f" data-basin="ARMAGNAC"/>
    <path class="wine-basin" d="M609.4,670.9L606.0,668.0L598.0,671.1L595.0,674.9L593.3,673.9L590.4,677.7L587.9,675.5L585.3,681.8L585.5,689.6L573.7,692.8L572.5,698.1L571.7,695.6L562.8,696.5L556.1,711.6L550.2,718.7L542.6,724.4L539.3,731.0L531.9,734.2L525.5,739.9L523.2,739.9L524.3,737.5L523.2,737.8L522.5,749.7L530.5,751.3L531.1,753.8L528.9,757.9L532.2,758.0L536.4,763.5L536.4,766.9L535.0,767.5L537.1,768.3L534.2,773.9L538.5,774.0L538.2,779.1L536.0,780.6L535.3,784.7L532.1,786.4L533.5,788.1L531.0,791.5L525.8,791.2L525.1,793.3L528.2,798.5L534.8,803.7L540.9,803.4L540.3,802.4L543.6,800.2L546.9,803.8L550.6,802.5L551.7,804.7L550.5,807.4L553.2,810.3L555.3,810.0L557.3,805.9L564.0,804.5L563.4,800.7L566.5,798.6L574.1,800.6L575.4,796.3L581.0,795.2L581.5,798.7L587.2,800.7L588.0,797.7L585.9,796.0L588.7,790.0L586.6,787.1L587.5,785.9L591.7,785.1L593.3,781.2L598.7,781.4L602.0,777.2L606.2,777.3L611.0,768.6L613.0,767.6L618.4,770.2L617.5,771.9L619.7,773.0L620.7,771.6L625.8,772.2L630.4,775.4L632.2,772.0L634.6,770.6L637.0,771.6L637.2,769.5L641.5,769.8L641.6,767.3L645.3,766.0L642.0,764.2L642.6,761.7L648.2,755.7L645.5,752.4L647.7,751.5L647.0,748.2L650.7,746.2L651.9,742.9L649.6,740.7L644.4,740.9L644.9,739.0L649.6,737.6L651.2,732.6L659.4,727.0L660.0,719.3L653.2,711.3L648.2,710.7L646.0,707.8L644.0,709.0L644.7,706.3L640.9,704.6L639.0,698.7L640.5,691.5L632.7,686.7L630.2,681.5L632.3,680.2L632.5,676.3L626.8,667.9L623.9,665.8L621.6,670.5L617.6,671.0L614.6,668.8L609.4,670.9L609.4,670.9ZM525.6,757.6L526.5,755.1L523.9,752.3L521.0,761.3L512.0,770.4L510.8,780.6L513.9,779.5L518.4,773.9L523.8,773.2L524.1,766.2L527.4,761.5L526.0,757.9L525.6,757.6ZM530.5,776.7L530.1,777.0L530.5,776.7ZM521.2,791.2L518.3,791.3L508.0,798.1L501.9,798.7L500.1,802.5L505.3,804.6L506.8,802.2L503.5,801.7L505.2,798.7L508.0,801.2L511.5,801.3L509.3,799.6L510.3,798.5L520.7,796.0L521.4,791.1L521.2,791.2Z" fill="#b58c67" data-basin="COGNAC"/>
    <path class="wine-basin" d="M873.4,366.7L875.1,364.4L867.4,362.8L863.6,368.2L857.4,367.3L850.3,370.5L843.2,361.8L837.7,362.2L832.6,367.1L834.4,368.8L831.8,370.6L831.9,372.0L837.9,372.8L837.1,377.7L828.7,381.4L827.7,382.5L830.1,388.3L824.7,389.1L823.5,390.8L826.6,394.3L824.5,396.3L825.9,397.2L824.6,402.1L813.3,404.3L813.1,405.7L815.3,406.0L815.6,409.0L818.4,410.8L832.1,409.2L834.1,412.0L832.4,419.3L833.2,420.8L835.7,420.2L836.4,425.5L839.1,427.8L841.4,428.3L843.0,425.9L843.3,423.4L841.1,419.7L839.6,419.9L844.1,416.3L847.9,418.2L852.2,416.0L858.8,427.3L864.0,425.7L863.1,421.0L864.9,418.5L862.5,412.1L863.3,413.0L863.6,409.5L861.0,411.1L857.9,398.3L853.7,397.2L860.2,394.9L862.6,396.0L863.1,387.1L854.7,388.4L854.5,386.8L863.3,382.1L865.0,375.3L871.7,372.9L871.0,369.7L873.8,367.3L873.4,366.7ZM847.6,470.2L840.1,473.9L840.8,477.4L844.4,474.6L848.5,474.4L849.3,472.2L847.7,470.4L847.6,470.2ZM919.4,482.0L924.9,489.1L930.1,484.8L923.8,477.9L920.1,476.3L914.9,477.3L917.4,478.2L919.2,481.9L919.4,482.0ZM1027.5,556.7L1025.2,553.1L1021.2,555.3L1020.7,557.8L1021.4,559.9L1024.9,560.9L1027.4,559.7L1027.2,557.0L1027.5,556.7ZM952.1,509.6L954.6,509.4L952.5,502.2L951.1,504.7L948.0,504.4L945.8,507.5L950.3,508.8L950.8,512.0L951.4,510.1L952.1,509.6ZM1024.1,565.9L1022.4,564.9L1016.1,566.8L1012.9,571.3L1020.3,574.5L1021.5,572.2L1020.6,568.7L1023.9,566.2L1024.1,565.9Z" fill="#db5c9b" data-basin="VIN DOUX NATURELS"/>
    <path class="wine-basin" d="M1170.8,983.2L1171.6,981.5L1164.2,982.6L1168.7,986.6L1170.3,983.8L1170.8,983.2ZM1176.2,990.8L1171.4,990.2L1176.2,991.0L1176.2,990.8ZM1175.4,997.0L1178.2,996.7L1171.2,1001.0L1170.9,1003.5L1173.7,1007.8L1176.5,1008.1L1176.8,1013.4L1173.5,1014.1L1174.9,1016.4L1174.0,1019.9L1178.4,1020.7L1182.9,1019.7L1182.8,1014.4L1185.2,1011.9L1185.1,1009.0L1179.5,1008.4L1184.7,1006.3L1184.9,1000.9L1184.3,998.6L1180.8,998.3L1177.1,993.6L1173.6,994.2L1175.2,996.8L1175.4,997.0ZM1174.2,1003.9L1176.4,1002.8L1176.6,1005.5L1174.3,1005.6L1174.2,1004.1L1174.2,1003.9ZM1180.3,1009.5L1179.1,1010.0L1180.3,1009.2L1180.3,1009.5ZM1184.8,1022.6L1184.5,1020.0L1174.7,1026.3L1174.9,1030.5L1178.2,1034.9L1180.8,1035.6L1182.1,1033.5L1190.4,1030.9L1190.1,1029.3L1186.5,1028.7L1185.0,1023.8L1184.8,1022.6ZM1178.3,1032.4L1180.1,1030.5L1180.9,1031.4L1178.2,1032.5L1178.3,1032.4ZM1183.8,1030.7L1186.4,1030.3L1183.9,1030.8L1183.8,1030.7ZM1182.2,1036.3L1184.5,1037.5L1189.0,1034.5L1187.7,1032.6L1182.0,1035.3L1182.2,1036.3ZM1192.5,1040.6L1184.1,1040.7L1188.2,1047.3L1193.1,1044.3L1192.8,1041.5L1192.5,1040.6ZM1190.6,1048.7L1183.6,1048.1L1180.5,1053.2L1187.5,1055.3L1192.5,1051.6L1190.3,1049.9L1190.6,1048.7ZM1194.1,1066.7L1191.5,1066.5L1190.1,1068.8L1193.5,1070.2L1190.8,1072.6L1188.2,1069.9L1187.5,1071.4L1193.4,1074.1L1191.1,1075.3L1190.2,1079.0L1195.8,1077.3L1195.9,1072.9L1193.3,1072.3L1195.2,1067.6L1194.1,1066.7ZM1069.6,1066.7L1069.9,1063.7L1067.9,1062.5L1064.6,1067.6L1065.3,1070.3L1062.5,1069.7L1069.9,1075.2L1069.9,1067.1L1069.6,1066.7ZM1070.3,1080.9L1068.9,1077.7L1065.7,1079.1L1064.4,1083.0L1069.4,1083.6L1070.6,1081.0L1070.3,1080.9ZM1119.7,1087.4L1117.2,1086.8L1116.4,1091.0L1119.7,1093.3L1121.4,1091.5L1119.8,1087.7L1119.7,1087.4ZM1087.0,1128.0L1088.2,1126.7L1087.1,1125.9L1084.1,1129.3L1087.0,1129.7L1087.1,1128.2L1087.0,1128.0ZM1083.1,1111.7L1084.2,1118.5L1085.9,1118.5L1085.7,1115.7L1088.8,1115.1L1087.7,1111.4L1085.1,1110.1L1083.7,1111.8L1083.1,1111.7ZM1078.4,1117.6L1079.9,1119.3L1078.4,1124.6L1081.2,1126.2L1079.3,1129.6L1085.9,1124.5L1082.7,1120.4L1083.3,1115.5L1079.7,1113.9L1079.1,1116.0L1078.4,1117.6ZM1084.5,1136.2L1082.1,1136.6L1082.2,1138.2L1085.8,1139.3L1086.7,1141.7L1087.3,1138.0L1085.3,1136.4L1084.5,1136.2ZM1103.0,1167.0L1102.7,1161.8L1101.3,1165.9L1097.3,1165.9L1100.4,1167.7L1102.7,1166.9L1103.0,1167.0Z" fill="#49c5b6" data-basin="ALSACE ET EST"/>
    <path class="wine-basin" d="M990.2,733.9L988.7,731.5L984.3,732.8L983.3,736.0L986.8,736.4L983.7,738.7L978.2,738.9L979.6,741.3L978.5,743.5L975.0,744.6L975.6,747.7L969.5,754.2L972.6,756.4L975.7,754.4L978.9,756.0L978.3,758.9L969.6,760.9L974.0,765.2L969.6,768.7L969.5,771.2L977.9,774.7L979.3,779.8L975.0,786.2L975.8,789.2L973.8,793.0L978.6,793.8L982.5,790.7L984.5,791.5L984.4,798.0L991.0,801.8L988.8,804.7L985.1,804.4L987.1,812.6L986.3,815.4L989.4,816.1L992.7,822.0L983.5,820.7L986.2,817.9L985.3,815.3L978.9,816.6L977.6,822.2L980.0,822.9L981.1,831.2L977.6,831.9L982.1,837.6L979.1,838.5L979.7,842.2L976.2,845.3L982.6,847.3L982.2,850.7L985.6,856.4L985.6,857.9L983.1,858.2L985.4,859.6L982.6,864.7L976.5,864.8L972.4,862.4L973.1,864.0L970.8,864.9L970.6,868.3L974.5,868.1L976.1,872.5L979.5,872.2L981.1,876.0L978.3,880.2L981.0,880.2L984.5,883.3L985.6,887.4L987.4,889.7L988.9,889.1L988.4,892.3L991.9,891.5L996.0,904.6L1000.2,904.6L1001.3,906.6L1003.8,905.7L1005.2,907.7L1002.8,913.7L1005.3,914.8L1003.5,919.5L1005.0,921.0L1003.0,923.6L1005.1,927.7L1010.7,925.2L1012.5,922.3L1013.0,926.5L1017.9,919.0L1017.0,916.9L1012.4,918.0L1012.9,914.3L1010.2,914.6L1013.7,909.1L1012.3,907.2L1011.3,909.0L1010.6,906.1L1012.8,898.9L1009.1,899.7L1007.0,897.2L1009.0,892.6L1008.1,890.3L1000.6,886.8L1003.1,885.1L1003.1,883.9L999.8,883.7L1001.4,880.6L997.1,881.0L995.8,880.0L996.9,878.9L994.2,878.5L993.9,873.4L996.9,873.2L998.2,867.3L995.9,866.2L996.4,855.3L990.8,855.5L994.0,851.3L992.1,849.1L995.1,847.2L991.6,845.1L991.9,841.1L989.9,839.4L994.9,838.2L999.5,847.4L1001.8,844.6L1006.2,845.8L1006.8,841.5L1008.3,841.1L1007.0,838.3L1011.5,831.5L1008.1,830.1L1004.7,816.7L1001.9,810.5L998.8,808.9L1001.5,806.5L1000.2,801.9L997.6,802.0L998.9,797.5L994.1,786.5L995.6,782.7L995.1,771.1L991.1,768.1L995.3,766.4L993.9,757.8L995.0,756.6L996.6,758.7L1000.3,757.8L999.4,752.2L1001.2,747.8L998.4,748.7L992.9,744.7L992.7,740.8L998.5,739.1L996.3,735.4L992.0,736.0L990.7,734.4L990.2,733.9ZM974.1,749.2L979.1,750.4L976.0,752.7L974.1,749.6L974.1,749.2ZM986.9,832.2L988.8,829.3L990.9,829.5L989.2,832.9L987.1,832.2L986.9,832.2ZM983.9,823.2L986.2,825.1L987.6,824.2L988.9,828.7L983.4,827.4L983.6,824.2L983.9,823.2ZM1096.7,711.4L1094.1,712.5L1093.1,709.9L1088.7,709.5L1090.2,713.1L1087.6,716.7L1093.6,724.6L1090.3,729.1L1092.3,729.7L1098.5,719.4L1101.3,720.4L1104.3,728.0L1112.8,730.9L1114.3,728.8L1099.7,716.6L1096.7,711.7L1096.7,711.4ZM994.6,722.1L992.1,719.4L990.4,721.5L989.3,720.8L988.6,727.2L985.3,728.9L993.3,733.5L996.1,731.7L999.3,732.6L1002.3,735.8L1002.2,730.9L998.8,723.3L1001.2,722.2L998.2,720.5L997.0,722.5L994.8,722.3L994.6,722.1ZM1080.8,733.1L1081.3,735.8L1085.1,736.1L1086.6,733.2L1083.7,730.4L1080.9,730.1L1081.0,731.7L1080.8,733.1ZM1083.3,746.6L1087.8,743.9L1084.7,740.5L1083.6,745.9L1083.3,746.6ZM932.8,759.5L930.5,763.1L930.3,767.1L927.8,767.8L928.1,771.3L924.5,774.9L924.9,785.0L920.9,788.2L927.0,793.1L928.6,790.1L927.1,786.6L930.8,788.0L929.3,782.5L930.9,782.1L933.6,774.5L933.4,770.0L936.0,768.6L940.3,771.4L938.1,764.0L939.2,759.7L933.6,759.6L932.8,759.5ZM1051.7,766.7L1054.0,765.6L1054.2,763.4L1052.7,763.4L1051.6,766.3L1051.7,766.7ZM1049.7,774.2L1049.0,770.4L1042.6,774.7L1042.3,776.7L1045.9,781.7L1045.8,786.0L1037.9,780.7L1037.1,789.0L1044.2,791.2L1047.5,785.7L1051.5,785.4L1052.1,781.4L1054.5,779.3L1052.7,774.7L1049.9,774.1L1049.7,774.2ZM1128.9,781.9L1123.7,780.8L1124.2,785.1L1120.1,787.9L1127.6,786.5L1131.9,790.1L1134.4,788.1L1133.3,784.7L1129.2,784.0L1128.8,782.2L1128.9,781.9ZM943.5,714.6L941.2,717.8L938.8,717.8L940.4,724.3L938.1,729.0L936.0,729.6L937.3,731.0L933.5,735.4L935.1,738.4L931.5,743.9L936.5,746.9L937.3,748.3L934.1,750.3L936.8,750.7L938.3,753.0L940.8,748.0L942.4,748.0L943.2,742.0L941.8,738.1L939.6,737.6L942.0,735.3L940.0,732.3L940.6,730.3L944.2,729.8L942.5,725.7L946.1,722.8L944.0,714.3L943.5,714.6ZM1065.3,735.0L1067.9,735.9L1067.9,738.8L1064.0,734.6L1059.5,736.5L1059.1,738.0L1061.5,737.3L1050.1,749.1L1052.1,751.0L1048.2,754.6L1048.3,757.2L1052.9,757.5L1055.0,755.7L1056.6,747.6L1060.8,744.7L1062.5,748.5L1060.1,753.8L1064.4,757.7L1065.0,770.3L1067.9,771.3L1067.9,761.7L1070.1,762.3L1070.5,759.8L1073.1,758.2L1075.0,759.8L1075.6,765.4L1071.9,774.9L1078.5,776.0L1078.6,779.7L1084.2,777.7L1082.5,783.3L1084.6,784.5L1084.4,787.1L1090.8,776.8L1090.5,774.3L1088.4,775.4L1083.3,769.5L1083.9,749.5L1082.5,748.7L1080.6,751.4L1078.5,749.5L1082.9,738.8L1081.4,735.9L1078.7,738.7L1076.9,736.3L1072.8,737.7L1071.7,740.3L1070.4,733.8L1066.1,732.2L1065.0,734.9L1065.3,735.0ZM1078.2,754.1L1079.3,752.7L1080.1,755.9L1078.3,754.2L1078.2,754.1ZM1064.3,742.8L1066.1,741.5L1066.3,744.3L1064.0,743.5L1064.3,742.8ZM1046.6,761.1L1046.7,758.4L1045.1,757.3L1042.4,758.6L1039.2,754.6L1040.0,762.7L1043.0,764.8L1045.0,763.0L1045.5,764.3L1040.8,766.9L1041.4,770.1L1047.4,769.8L1047.2,765.6L1048.8,763.4L1047.6,760.6L1046.7,761.2L1046.6,761.1ZM1037.6,792.3L1037.1,793.4L1040.0,794.1L1040.9,790.8L1038.0,792.1L1037.6,792.3ZM1049.3,796.6L1052.4,794.0L1050.4,792.9L1049.3,796.2L1049.3,796.6ZM1114.8,798.5L1111.1,797.5L1114.2,798.8L1114.8,798.5ZM1122.0,809.3L1116.7,805.0L1113.3,808.8L1114.4,812.5L1120.0,814.8L1123.9,814.1L1122.1,809.3L1122.0,809.3ZM1131.1,819.3L1130.2,816.3L1126.0,815.6L1131.4,821.8L1135.5,821.3L1136.3,819.6L1131.6,819.3L1131.1,819.3ZM1042.7,819.3L1042.1,816.4L1036.6,818.5L1038.1,820.3L1037.5,822.8L1043.0,825.4L1045.1,822.5L1043.1,820.5L1042.7,819.3ZM1045.8,826.6L1045.8,828.1L1040.8,830.8L1040.6,835.7L1044.2,838.0L1044.0,841.0L1047.4,845.5L1051.7,847.9L1049.6,850.7L1049.4,856.6L1054.1,865.8L1053.6,868.1L1054.9,867.9L1059.5,874.8L1058.5,877.5L1061.5,882.9L1067.7,884.0L1069.0,881.6L1071.7,883.4L1067.8,892.6L1069.9,891.5L1071.4,892.7L1070.3,897.1L1072.8,899.6L1075.9,897.5L1083.9,905.1L1090.4,906.0L1093.0,902.4L1089.8,896.7L1087.0,895.4L1084.1,884.8L1081.0,882.5L1086.6,884.4L1080.6,880.9L1079.9,879.7L1082.6,879.8L1082.0,877.5L1080.9,877.0L1078.9,880.3L1076.8,879.4L1076.2,874.3L1073.6,871.1L1072.0,860.3L1067.4,862.6L1070.6,865.7L1069.5,870.3L1067.1,868.3L1068.5,866.5L1063.5,862.4L1065.9,859.9L1064.8,855.3L1069.2,854.1L1072.5,857.4L1076.2,856.9L1071.3,851.2L1059.0,848.0L1062.1,846.5L1060.3,841.9L1058.2,843.4L1057.8,840.3L1053.3,844.9L1052.2,839.0L1047.3,833.2L1046.6,829.1L1047.7,829.1L1045.9,826.3L1045.8,826.6ZM1084.8,900.0L1084.4,897.2L1086.0,898.9L1084.9,899.7L1084.8,900.0ZM1060.2,869.1L1062.3,870.3L1060.0,869.3L1060.2,869.1ZM1077.3,883.1L1081.1,882.9L1082.2,888.6L1078.2,885.8L1077.5,883.2L1077.3,883.1ZM1077.4,894.4L1077.0,892.3L1077.8,894.7L1077.4,894.4ZM1053.9,870.6L1052.2,873.2L1054.4,870.9L1053.9,870.6ZM1086.1,884.5L1084.9,884.5L1086.0,884.8L1086.1,884.5ZM1071.0,912.7L1072.8,913.2L1073.0,911.9L1071.4,912.5L1071.0,912.7ZM912.5,930.9L908.7,931.0L908.3,935.3L915.3,940.2L920.3,934.2L912.6,931.1L912.5,930.9ZM995.9,918.6L993.9,917.9L992.4,921.7L994.7,921.3L995.4,924.5L997.5,921.6L996.1,918.9L995.9,918.6ZM901.3,955.1L900.2,952.9L894.6,953.3L894.3,959.7L898.3,959.7L899.4,967.0L896.1,968.2L896.4,969.7L898.4,975.0L903.4,978.1L905.3,975.7L909.5,977.5L909.5,981.2L912.3,984.6L910.7,989.8L914.0,990.3L914.5,984.2L919.3,980.6L919.9,984.3L923.1,986.6L925.0,983.5L926.7,987.7L932.7,988.4L935.5,984.1L937.8,984.7L933.3,973.7L927.9,973.6L926.4,971.5L927.4,969.6L924.6,966.4L920.3,965.8L917.7,962.8L922.1,955.6L918.1,954.0L915.2,956.4L910.5,953.4L908.1,959.2L904.7,962.4L902.7,960.5L901.8,955.2L901.3,955.1ZM901.1,965.6L902.2,964.8L902.1,968.2L900.8,966.0L901.1,965.6ZM924.6,982.6L920.9,979.7L925.9,978.2L925.7,981.8L924.6,982.6ZM964.7,980.1L963.1,978.0L961.2,980.4L957.7,979.3L959.5,987.6L955.0,990.8L973.7,992.8L972.3,996.5L976.2,999.9L978.8,999.4L976.5,998.1L977.1,994.1L975.7,991.7L976.9,990.9L979.8,993.7L985.2,991.4L987.5,992.3L986.7,982.7L982.9,982.7L982.1,980.1L980.6,979.8L978.4,983.9L973.6,982.9L971.7,985.4L967.4,978.5L965.2,980.4L964.7,980.1ZM951.6,976.9L946.7,976.7L943.5,980.4L948.2,985.9L952.3,987.1L954.3,985.5L950.7,982.0L952.7,977.7L954.6,977.7L953.1,975.9L951.8,976.8L951.6,976.9ZM888.9,991.3L885.8,990.3L883.0,991.7L885.3,996.1L884.4,997.9L887.6,1001.3L890.6,1000.4L888.1,994.6L889.1,991.3L888.9,991.3Z" fill="#c45770" data-basin="BOURGOGNE BEAUJOLAIS SAVOIE JURA"/>
    <path class="wine-basin" d="M905.5,1028.3L903.0,1027.5L901.4,1034.1L904.0,1037.7L906.6,1034.7L905.7,1029.1L905.5,1028.3ZM966.0,1040.1L963.5,1044.5L970.4,1045.1L974.5,1043.5L974.8,1040.7L967.0,1038.7L966.4,1039.8L966.0,1040.1ZM917.5,1053.6L903.0,1056.4L902.4,1060.4L901.0,1060.1L901.9,1055.3L900.6,1055.6L900.6,1060.7L896.3,1059.9L893.4,1062.9L897.0,1064.8L894.3,1066.6L894.9,1067.8L890.0,1066.8L888.5,1071.0L890.5,1072.6L890.3,1078.5L884.9,1080.8L885.9,1083.6L888.2,1083.7L888.2,1085.5L885.9,1085.9L886.3,1087.5L891.1,1086.9L894.1,1097.5L898.0,1101.4L893.7,1101.5L893.5,1099.5L890.9,1105.6L887.4,1106.7L881.8,1103.8L882.5,1100.0L879.8,1097.7L878.0,1101.8L875.3,1101.0L873.3,1102.4L872.9,1099.9L869.2,1101.4L869.6,1106.7L865.8,1108.0L869.4,1113.3L876.8,1110.0L877.0,1114.1L881.0,1116.2L889.1,1117.1L889.9,1119.9L893.3,1120.6L895.2,1119.2L900.9,1124.7L909.8,1126.3L910.5,1127.9L903.4,1132.7L904.7,1134.8L902.1,1144.8L898.0,1144.5L895.9,1146.5L891.9,1145.7L891.4,1144.1L888.1,1147.9L886.7,1144.8L883.8,1146.2L885.7,1149.6L881.1,1153.0L884.6,1154.8L886.5,1153.8L890.4,1159.8L891.5,1155.4L900.0,1156.3L900.7,1153.5L899.1,1152.0L903.7,1153.2L909.6,1147.9L915.1,1149.1L917.8,1147.7L918.0,1151.8L915.6,1154.0L922.6,1154.5L931.3,1149.7L932.1,1154.9L942.7,1154.6L943.5,1152.6L950.3,1149.4L951.5,1146.4L955.6,1145.7L960.2,1141.3L965.3,1141.5L964.6,1133.8L971.7,1135.0L977.0,1132.7L969.6,1121.3L970.8,1112.5L973.3,1113.0L975.5,1110.3L978.2,1111.4L982.3,1105.4L981.5,1098.7L986.4,1097.1L987.1,1094.9L992.6,1091.8L979.1,1081.0L977.8,1078.8L979.7,1075.1L976.5,1073.2L969.7,1073.8L964.8,1070.6L962.9,1073.0L963.5,1076.0L959.9,1078.3L964.0,1081.1L963.2,1082.4L959.5,1082.7L956.0,1080.4L955.2,1085.2L950.9,1086.7L944.3,1081.5L940.0,1073.5L936.0,1075.1L934.8,1071.5L929.1,1069.5L926.7,1064.3L924.1,1063.6L922.3,1060.5L920.0,1060.9L919.6,1055.1L917.9,1054.0L917.5,1053.6ZM990.5,1057.0L984.9,1058.1L980.1,1068.3L983.7,1068.2L984.1,1063.7L984.6,1067.0L990.1,1067.7L990.1,1065.3L987.6,1064.3L990.2,1057.9L990.5,1057.0ZM975.7,1067.4L972.7,1070.5L977.0,1070.9L978.4,1069.3L975.6,1067.7L975.7,1067.4ZM954.5,990.2L953.0,987.4L948.8,990.0L950.3,997.9L955.6,1002.6L958.0,1009.8L961.5,1012.5L971.6,1015.5L974.0,1018.7L975.1,1026.8L981.3,1030.5L984.1,1028.7L991.5,1029.4L992.2,1030.9L998.0,1030.6L998.3,1027.6L994.3,1022.2L995.9,1018.9L987.5,1021.8L988.2,1017.9L990.8,1018.1L989.3,1014.1L985.0,1007.0L981.4,1005.9L986.4,1002.0L985.6,999.5L982.7,998.4L975.6,999.8L972.6,996.0L974.2,993.3L955.2,991.6L954.5,990.4L954.5,990.2ZM930.0,1030.1L925.7,1027.6L927.4,1031.1L929.8,1030.5L930.0,1030.1ZM934.8,1029.5L935.8,1028.4L930.4,1028.2L931.9,1030.5L934.4,1029.5L934.8,1029.5ZM977.6,1030.3L976.4,1029.2L974.0,1031.8L978.2,1033.1L977.5,1031.0L977.6,1030.3Z" fill="#f2c94c" data-basin="CHAMPAGNE"/>
    <path class="wine-basin" d="M832.9,360.2L830.9,363.0L832.2,366.5L831.2,373.0L835.0,378.5L827.7,382.5L828.8,385.8L824.8,385.4L821.9,384.3L821.1,380.2L818.0,381.0L818.9,375.5L816.2,374.0L815.1,382.7L817.2,387.4L815.0,390.5L817.2,392.2L815.2,395.9L811.3,391.4L808.0,392.3L807.3,393.6L811.9,402.4L810.8,404.5L805.3,405.2L803.6,408.9L819.6,410.2L820.9,416.5L825.8,418.5L824.1,420.2L820.7,418.6L820.2,420.3L823.3,424.9L818.5,428.0L819.1,431.6L816.7,433.2L815.7,431.2L815.9,433.0L811.9,436.6L807.6,437.7L809.3,432.6L804.2,432.4L803.3,430.3L805.9,429.1L802.5,429.7L799.8,427.0L801.2,424.6L808.2,424.6L805.4,420.7L801.7,420.8L801.4,417.9L797.7,420.1L797.1,417.8L791.1,416.3L786.9,419.0L787.9,421.6L783.2,422.0L783.6,423.8L789.6,426.7L788.8,427.8L785.0,426.1L784.1,427.5L786.5,431.9L782.6,432.3L783.6,437.7L782.2,439.7L780.3,438.6L779.8,440.5L775.7,441.6L776.9,447.0L772.4,455.8L775.9,455.3L776.0,452.2L781.0,450.6L784.0,454.8L787.3,454.1L788.2,458.0L791.2,457.6L792.6,466.5L796.9,464.1L799.0,467.6L801.7,466.5L802.0,469.2L805.8,468.3L818.8,473.2L818.0,470.9L821.1,466.8L823.7,472.8L825.9,473.5L824.2,475.5L825.7,476.4L827.9,475.6L828.9,470.6L832.1,471.8L838.1,470.3L841.2,472.9L839.7,475.1L840.8,477.4L844.4,474.6L848.5,474.4L847.5,475.9L849.5,480.4L848.1,484.3L852.8,485.7L857.1,490.9L863.9,491.5L864.1,490.3L875.2,495.4L877.1,493.4L878.7,494.4L881.5,493.0L882.8,496.3L879.6,506.2L879.9,510.8L884.2,513.5L879.0,518.3L882.6,522.2L885.9,521.9L888.4,524.3L889.9,522.4L888.9,514.7L890.1,513.5L896.4,515.9L904.0,509.4L905.1,512.4L907.4,513.0L906.9,517.2L903.7,517.5L905.1,522.3L917.3,531.7L919.1,528.1L921.4,527.4L913.5,519.9L914.8,514.6L913.8,511.0L916.9,508.8L917.9,512.0L919.9,510.4L922.3,511.5L920.6,514.3L929.1,521.2L927.4,523.9L928.7,527.4L937.3,531.1L945.1,531.6L948.9,536.6L951.5,536.0L954.6,531.0L957.9,529.9L953.9,522.3L956.9,521.8L958.3,519.6L960.1,519.9L959.9,521.6L963.9,522.2L960.8,517.1L958.7,516.9L960.0,516.0L959.0,514.6L954.9,518.1L952.4,518.1L950.3,513.1L952.1,509.6L954.6,509.4L954.0,503.7L952.5,502.2L951.1,504.7L948.0,504.4L946.4,506.5L939.6,504.5L936.9,505.7L936.4,509.1L933.7,506.2L931.7,506.8L928.3,504.5L931.3,502.3L935.3,503.0L936.2,500.5L941.0,502.6L945.8,497.7L948.9,497.3L945.8,493.7L939.7,490.7L936.2,495.9L930.1,493.0L926.7,495.9L926.3,493.6L922.3,493.6L916.2,481.9L908.6,482.0L908.9,478.9L912.5,475.5L908.4,472.6L904.9,474.3L900.5,468.5L897.2,466.9L895.2,471.9L890.7,470.8L891.5,466.5L885.7,467.5L881.6,465.6L880.4,463.5L886.9,461.3L887.8,459.5L882.5,456.2L874.4,446.8L867.2,435.2L863.3,422.5L864.9,418.5L862.5,412.1L863.3,413.0L863.6,409.5L861.0,411.1L857.9,398.3L853.7,397.2L860.2,394.9L862.6,396.0L864.4,376.5L871.7,372.9L871.0,369.7L875.1,364.4L867.4,362.8L863.6,368.2L857.4,367.3L850.3,370.5L843.2,361.8L839.0,362.5L833.6,360.4L832.9,360.2ZM802.4,447.7L804.7,445.8L802.9,444.1L803.6,440.4L807.0,442.1L814.3,439.0L818.0,441.4L815.8,443.5L810.9,444.3L811.2,446.9L808.7,449.5L802.3,448.0L802.4,447.7ZM852.9,451.5L862.0,454.9L865.2,451.9L867.9,456.6L864.1,459.7L869.2,463.2L872.4,461.5L871.9,456.0L875.6,456.4L875.3,461.9L870.2,468.7L872.9,467.5L874.5,475.1L876.9,475.9L879.0,472.2L879.9,475.9L886.0,479.1L885.7,480.5L879.5,481.8L876.5,479.2L875.0,479.5L874.7,482.6L872.6,482.6L873.8,479.2L869.8,474.6L870.1,473.1L871.8,473.6L870.7,469.9L862.1,468.0L851.9,461.1L852.4,454.2L848.2,454.6L846.6,451.1L850.4,452.9L852.5,452.0L852.9,451.5ZM854.2,388.5L855.1,385.7L860.6,387.6L854.7,388.4L854.2,388.5ZM823.7,433.3L823.9,430.3L826.6,431.3L824.6,433.2L823.7,433.3ZM810.5,453.0L809.6,452.0L811.1,451.4L810.7,452.7L810.5,453.0ZM898.6,494.3L898.6,489.0L900.1,488.5L904.4,495.8L903.2,497.2L904.2,499.9L899.9,498.3L898.8,494.6L898.6,494.3ZM910.0,499.1L912.4,499.4L914.2,496.4L916.0,497.7L918.1,496.6L914.2,500.7L913.3,505.7L911.3,507.5L910.2,499.8L910.0,499.1ZM888.1,474.7L891.7,475.7L892.6,478.6L890.8,481.4L887.9,478.4L887.8,475.4L888.1,474.7ZM893.6,484.9L897.7,482.9L898.7,488.6L894.4,485.3L893.6,484.9ZM897.6,479.7L900.1,479.7L897.0,482.5L896.9,480.3L897.6,479.7ZM933.0,513.8L937.0,512.9L937.0,510.3L940.0,513.8L945.2,513.2L946.6,515.4L941.1,518.2L940.7,520.5L939.0,517.8L939.9,515.9L933.0,514.0L933.0,513.8ZM925.9,504.3L920.3,501.8L920.7,500.6L927.9,502.0L926.2,504.2L925.9,504.3ZM886.0,504.0L886.5,502.3L890.9,504.0L889.7,505.5L886.7,504.0L886.0,504.0ZM882.5,498.0L886.6,497.5L886.4,500.4L882.8,498.4L882.5,498.0ZM927.4,481.7L927.4,481.6L927.4,481.7ZM924.5,529.7L922.7,529.3L922.6,533.8L918.1,534.8L918.4,538.6L924.4,538.2L924.0,540.8L934.8,538.1L934.8,531.7L930.0,533.9L925.2,530.7L924.5,529.7ZM933.4,490.1L934.0,487.5L928.3,482.7L930.2,484.6L926.9,488.3L926.8,491.0L933.2,490.2L933.4,490.1Z" fill="#f08a4b" data-basin="LANGUEDOC-ROUSSILLON"/>
    <path class="wine-basin" d="M1395.8,280.7L1394.8,278.0L1390.8,275.5L1390.8,271.3L1394.1,274.2L1391.9,268.8L1388.0,266.6L1386.0,268.7L1380.4,269.0L1381.9,273.8L1377.5,275.2L1378.1,278.0L1375.1,276.1L1371.2,278.6L1364.8,278.7L1360.6,282.3L1357.6,281.6L1358.3,284.5L1353.3,285.4L1352.4,286.5L1353.7,287.2L1351.5,289.0L1353.3,295.0L1354.1,294.0L1358.6,296.3L1362.4,301.0L1353.4,303.4L1351.1,301.5L1349.8,306.2L1344.5,303.6L1344.3,305.2L1340.8,305.7L1346.1,310.3L1344.5,312.9L1348.9,314.0L1350.0,316.5L1347.5,317.5L1350.1,318.6L1349.0,322.3L1350.9,323.2L1350.5,324.9L1346.6,327.8L1342.8,324.6L1335.1,323.1L1335.4,326.8L1332.8,329.9L1337.3,331.1L1338.8,333.7L1337.9,336.1L1344.9,340.8L1339.9,348.0L1337.8,346.9L1333.1,349.5L1330.4,348.9L1330.4,351.4L1328.3,350.7L1330.4,352.6L1328.2,353.5L1329.6,357.2L1328.7,360.0L1326.1,360.4L1338.4,364.1L1339.2,361.1L1333.8,355.9L1334.3,353.7L1339.9,356.0L1346.6,354.3L1349.5,357.5L1349.3,353.6L1351.5,350.7L1349.8,348.9L1352.0,344.9L1355.0,343.1L1361.3,346.9L1362.2,345.9L1364.6,338.1L1362.2,335.6L1363.0,331.2L1361.3,329.1L1363.0,328.9L1365.8,321.4L1364.5,319.5L1360.6,318.9L1362.0,312.2L1365.1,309.3L1366.1,305.1L1367.7,306.1L1368.0,303.3L1370.6,303.7L1372.1,306.1L1373.5,304.3L1377.3,304.4L1378.1,301.4L1377.6,298.8L1370.9,295.4L1370.0,292.7L1372.2,291.7L1373.8,293.3L1377.6,290.5L1384.2,294.7L1385.6,302.4L1381.9,305.0L1380.6,308.4L1386.8,314.9L1388.3,313.2L1393.5,319.5L1393.2,321.7L1390.7,321.0L1387.3,322.8L1393.6,330.4L1392.5,333.0L1387.4,331.3L1390.4,336.8L1393.7,338.8L1392.7,342.7L1387.9,344.1L1386.0,344.1L1384.9,341.7L1380.3,341.2L1377.1,344.2L1377.1,347.8L1386.2,360.0L1384.0,366.6L1385.4,369.5L1387.3,370.4L1394.4,367.4L1394.0,370.5L1398.0,369.7L1403.3,378.7L1403.8,384.6L1401.0,390.9L1398.6,392.3L1399.1,395.3L1396.6,395.7L1395.4,391.4L1393.4,393.2L1394.9,398.2L1392.4,401.6L1395.5,406.1L1395.0,409.6L1386.4,410.2L1382.8,414.4L1384.9,409.4L1380.5,406.9L1371.8,413.6L1371.3,416.5L1368.2,418.8L1370.1,420.7L1377.5,421.5L1380.7,420.2L1383.9,415.6L1386.8,418.1L1388.3,422.9L1387.4,429.8L1384.5,433.4L1386.2,437.2L1384.9,441.2L1387.5,443.8L1385.5,451.7L1391.5,454.2L1395.5,452.1L1399.8,430.8L1397.7,420.9L1393.6,419.7L1392.8,417.1L1398.2,414.2L1405.9,402.8L1412.0,355.5L1401.8,334.9L1403.3,305.3L1401.1,303.5L1402.3,301.4L1400.0,297.1L1394.9,295.0L1395.4,292.1L1396.9,294.2L1401.5,294.1L1400.3,290.6L1394.3,286.0L1395.7,280.9L1395.8,280.7ZM1355.3,382.9L1354.7,376.9L1349.4,372.1L1327.3,377.4L1330.1,378.2L1330.0,381.4L1333.8,381.8L1335.4,387.8L1333.0,388.3L1333.8,392.9L1337.5,394.3L1337.7,400.8L1343.8,398.9L1344.4,403.7L1350.4,405.6L1354.1,408.9L1361.3,409.6L1365.2,412.1L1364.9,416.0L1378.4,406.2L1380.2,398.6L1383.9,397.8L1390.0,390.9L1389.8,387.4L1380.7,388.9L1389.8,385.2L1389.3,383.8L1380.3,383.3L1382.0,381.9L1382.3,377.9L1379.2,374.5L1374.7,376.7L1371.8,374.5L1370.4,378.1L1372.3,381.7L1375.5,382.9L1375.6,388.0L1373.6,389.2L1369.8,386.1L1366.9,393.5L1369.1,402.2L1366.2,403.2L1355.1,392.9L1355.6,383.7L1355.3,382.9ZM1379.7,391.9L1387.2,389.5L1385.5,392.5L1379.8,391.9L1379.7,391.9ZM1129.5,435.3L1125.9,433.1L1122.7,435.6L1126.3,435.5L1128.4,437.7L1129.3,436.6L1129.5,435.3ZM1140.3,436.6L1142.2,437.9L1143.3,436.8L1142.1,435.3L1139.4,436.1L1140.3,436.6ZM1032.9,472.5L1031.4,468.6L1028.9,468.1L1023.5,475.2L1028.5,477.0L1034.5,476.5L1038.0,478.7L1040.1,476.2L1046.0,477.4L1046.7,476.2L1042.0,475.0L1043.9,471.6L1042.8,469.0L1039.8,469.3L1036.7,472.6L1033.6,472.5L1032.9,472.5ZM1024.7,476.9L1022.3,476.5L1022.0,484.8L1013.9,492.2L1014.2,497.5L1018.6,501.3L1021.7,500.9L1020.9,499.2L1024.3,495.1L1024.0,485.0L1028.3,483.8L1029.0,477.7L1024.8,476.9L1024.7,476.9ZM1189.3,543.6L1192.7,551.3L1194.0,545.3L1189.6,543.4L1189.3,543.6ZM1150.4,441.3L1147.6,438.1L1145.5,437.0L1144.5,438.3L1150.5,442.3L1150.4,441.3ZM1095.6,447.6L1095.8,439.4L1091.3,441.5L1092.7,445.9L1090.2,446.7L1089.3,449.2L1083.2,449.5L1082.1,453.4L1078.1,454.5L1075.0,451.3L1069.4,457.1L1067.2,455.0L1066.8,458.3L1072.8,462.6L1079.0,463.4L1081.6,468.7L1084.5,469.3L1088.4,466.1L1089.8,471.6L1091.9,472.1L1093.1,469.5L1094.2,470.8L1100.7,469.8L1103.4,472.3L1103.2,476.3L1097.1,476.1L1085.6,472.1L1082.9,472.9L1080.5,478.4L1075.2,479.4L1072.7,483.6L1074.1,485.1L1073.2,486.2L1067.8,487.4L1064.9,485.1L1062.6,487.9L1060.4,486.0L1060.8,483.1L1062.6,481.1L1067.7,482.6L1068.4,480.7L1066.1,477.5L1069.2,477.0L1070.8,474.0L1068.0,469.2L1064.2,468.1L1062.5,469.9L1063.5,476.9L1058.8,476.3L1055.5,479.2L1056.0,484.6L1053.8,486.4L1051.2,487.4L1051.2,484.4L1048.9,482.5L1047.2,486.4L1040.6,487.4L1036.8,483.6L1032.8,491.0L1027.6,490.5L1025.5,494.2L1026.9,495.7L1028.2,494.7L1027.5,498.0L1031.5,499.3L1031.1,500.7L1024.4,504.1L1022.6,501.2L1019.7,503.5L1021.6,512.1L1016.3,514.5L1017.8,507.0L996.1,509.2L994.6,511.0L1000.7,515.4L999.0,516.4L999.4,523.1L1002.3,523.2L1003.6,521.1L1012.0,524.9L1017.7,520.7L1020.2,520.8L1022.6,516.8L1033.1,512.0L1033.1,517.5L1038.5,515.0L1044.7,516.2L1047.3,510.2L1051.7,512.8L1065.9,507.6L1073.3,507.9L1078.2,511.6L1082.4,507.0L1088.8,508.5L1091.7,502.8L1091.8,495.8L1097.5,495.0L1098.9,497.5L1097.2,504.0L1106.1,505.6L1110.1,504.5L1112.9,499.2L1120.8,496.2L1122.2,502.8L1127.0,502.6L1132.6,499.3L1134.7,501.9L1138.7,499.2L1148.4,505.4L1155.8,502.7L1157.0,504.9L1152.6,510.6L1148.8,511.3L1148.3,513.1L1152.4,516.6L1157.2,515.5L1160.9,511.4L1158.3,501.5L1161.4,504.1L1172.3,495.9L1179.6,497.8L1178.8,494.9L1182.0,492.7L1182.1,489.1L1176.1,484.9L1168.0,485.3L1165.9,477.0L1155.9,468.7L1156.3,466.4L1162.5,468.3L1164.8,467.4L1162.3,463.9L1163.4,460.3L1159.7,456.0L1153.4,457.8L1148.5,453.6L1148.9,456.3L1146.3,455.5L1144.6,456.3L1145.0,459.0L1142.1,458.7L1137.0,450.4L1138.4,445.6L1131.1,448.9L1125.6,448.3L1121.2,444.0L1122.2,438.9L1116.9,438.0L1116.1,438.8L1119.2,439.8L1118.9,443.1L1114.9,444.5L1110.2,443.3L1109.4,445.7L1106.4,446.4L1106.2,450.8L1104.0,452.7L1107.0,454.0L1109.0,452.7L1110.4,454.7L1113.3,452.6L1113.9,453.7L1110.8,455.7L1109.5,462.3L1107.6,463.5L1102.3,460.6L1102.2,457.1L1098.5,452.2L1098.8,447.1L1096.5,447.6L1095.6,447.6ZM1115.4,483.8L1121.0,482.4L1121.8,484.9L1115.4,484.4L1115.4,483.8ZM1073.3,489.8L1076.2,491.4L1074.7,493.2L1067.8,494.0L1067.6,490.0L1072.7,489.8L1073.3,489.8ZM1004.3,519.3L1003.8,520.8L1003.7,519.1L1004.3,519.3Z" fill="#e66b5b" data-basin="PROVENCE-CORSE"/>
    <path class="wine-basin" d="M653.4,556.7L651.2,559.6L651.0,556.6L644.7,553.6L640.0,554.8L637.6,557.4L638.4,558.4L635.3,559.6L634.1,558.4L630.3,560.8L629.5,567.5L633.2,570.2L627.2,573.8L627.6,582.4L635.9,584.8L639.0,582.7L638.6,580.1L641.9,575.4L641.7,570.6L654.7,570.3L658.1,567.3L659.6,565.4L658.7,561.8L656.9,558.3L653.8,556.9L653.4,556.7ZM593.1,581.8L590.5,588.6L590.8,586.2L588.5,583.4L580.5,587.9L583.7,594.3L583.4,600.4L581.3,602.6L582.3,603.9L567.8,608.6L566.9,614.9L563.1,615.1L557.9,622.5L546.2,633.0L544.5,638.5L546.6,647.2L542.7,649.3L538.1,657.2L539.7,662.2L546.3,663.8L545.3,666.6L547.3,670.0L542.4,675.7L545.2,683.4L543.2,685.9L540.9,685.0L525.6,689.4L528.1,715.9L533.1,724.5L535.8,724.1L538.3,717.1L554.9,699.6L563.1,669.4L571.1,659.8L572.2,660.0L565.2,673.2L561.9,696.3L571.6,695.5L572.5,698.1L573.5,693.1L585.5,689.6L585.4,682.7L587.8,674.8L590.4,677.7L592.9,674.7L596.0,674.5L598.6,670.4L606.7,668.1L611.3,671.5L614.1,669.1L617.6,671.0L621.6,670.5L624.0,665.3L621.2,659.9L623.2,659.3L624.6,655.9L636.5,653.1L633.0,650.1L634.2,649.2L641.2,652.1L642.7,657.1L645.8,655.0L646.8,658.8L650.7,657.1L651.9,650.6L652.4,652.7L654.7,653.4L661.6,651.0L664.2,652.3L665.1,649.5L662.1,646.1L662.5,643.2L668.6,641.0L668.7,637.6L672.9,636.2L673.9,633.3L666.9,634.3L668.6,630.2L666.3,627.8L667.0,625.8L672.4,625.2L673.0,629.7L676.9,629.4L676.5,626.1L672.9,623.2L672.7,621.0L668.7,622.7L663.3,621.6L661.2,618.5L658.8,620.0L650.3,616.5L645.7,618.1L644.0,614.9L638.9,615.8L637.8,614.0L639.6,613.9L640.9,610.2L644.4,607.5L637.8,602.8L638.2,600.7L626.0,596.2L627.1,591.7L625.7,588.4L619.2,589.5L616.3,587.5L616.9,585.9L611.2,585.1L608.6,582.7L607.2,583.4L607.4,586.0L605.1,586.7L599.9,584.3L597.5,584.9L596.5,582.6L593.6,581.7L593.1,581.8ZM622.3,600.9L624.1,598.6L627.0,599.2L622.8,601.8L621.5,606.5L618.9,606.6L617.9,605.6L619.4,605.9L621.6,600.8L622.3,600.9ZM630.9,618.0L636.2,615.7L631.4,618.7L630.9,618.0ZM643.4,647.2L646.6,644.9L648.4,645.5L647.2,648.9L649.4,651.9L647.2,653.5L644.5,652.3L644.2,647.8L643.4,647.2ZM683.8,620.0L681.7,621.7L678.3,620.8L680.2,624.4L683.5,622.7L683.9,620.3L683.8,620.0ZM673.5,641.8L677.6,642.6L680.5,639.0L673.0,637.3L671.5,637.8L672.7,641.2L673.5,641.8Z" fill="#9d2449" data-basin="SUD-OUEST"/>
    <path class="wine-basin" d="M515.0,447.9L517.5,453.2L514.1,452.6L511.8,448.5L511.7,451.6L508.4,454.2L506.1,448.8L501.2,447.5L499.2,451.1L495.3,452.7L497.8,461.5L496.0,467.2L499.4,469.5L505.9,467.9L510.4,459.4L514.1,458.5L515.3,454.7L518.9,454.8L520.3,450.7L516.5,447.7L521.9,438.4L520.2,435.7L518.5,437.1L516.1,435.7L514.2,438.7L517.2,443.9L515.4,447.6L515.0,447.9ZM536.0,483.8L534.5,481.8L530.6,483.1L527.8,489.3L531.0,491.8L530.5,494.9L536.6,494.0L539.3,495.9L544.7,494.6L546.0,491.4L547.9,493.2L551.9,493.2L551.7,489.8L553.0,489.9L549.8,485.8L546.4,485.0L542.9,486.7L543.9,484.1L542.1,482.0L536.4,483.3L536.0,483.8ZM605.7,483.5L604.5,480.2L600.9,483.2L598.7,482.9L596.3,488.3L590.5,488.5L591.3,492.3L591.8,491.0L593.2,492.3L591.5,498.3L586.0,494.8L580.5,496.4L579.3,499.8L575.1,498.7L574.3,500.3L577.0,502.4L576.4,503.8L573.2,506.3L569.3,506.4L569.2,512.1L567.1,511.5L566.5,512.9L566.7,515.6L571.4,517.8L570.2,519.9L576.2,519.8L576.7,521.2L580.0,518.9L586.1,518.3L589.5,515.5L589.3,516.7L597.3,516.2L592.8,511.8L592.1,508.0L595.1,509.2L599.6,506.4L604.7,505.9L605.5,507.1L603.4,509.0L597.1,511.4L604.2,514.1L605.4,511.1L611.1,509.6L617.1,512.3L617.3,519.5L621.7,516.8L626.8,520.0L631.0,518.3L626.6,513.3L632.2,508.0L634.4,499.4L632.5,499.6L630.4,494.9L628.0,493.7L628.2,488.0L623.1,487.1L622.0,490.1L624.6,490.2L621.2,494.5L622.0,491.8L617.1,489.5L612.7,494.9L610.9,493.2L610.9,483.8L606.1,483.5L605.7,483.5ZM610.2,499.8L614.5,497.7L615.4,498.7L614.6,502.2L612.7,501.4L612.7,504.7L610.5,506.3L609.8,501.0L610.2,499.8ZM582.5,450.2L579.9,452.4L578.4,450.5L573.2,450.8L564.3,456.7L565.0,460.5L563.5,462.2L560.3,460.0L555.1,464.3L555.5,466.1L552.1,470.1L553.7,472.0L551.6,473.1L553.3,475.0L551.3,476.8L552.5,479.4L559.7,477.9L559.6,475.5L563.2,475.9L561.4,474.1L563.6,472.7L566.1,475.4L568.5,471.4L569.7,472.5L578.1,465.3L583.9,463.6L586.3,459.6L583.6,455.1L586.8,451.5L584.8,448.5L582.7,450.1L582.5,450.2ZM775.0,517.6L774.2,515.6L771.7,515.8L771.6,518.0L767.3,518.8L764.2,512.7L760.6,511.5L756.0,515.5L755.0,513.0L750.8,511.5L748.8,516.0L750.9,517.9L751.0,523.3L747.7,530.1L750.7,535.2L749.9,539.0L747.1,539.4L747.9,540.9L743.3,544.2L739.1,541.0L736.2,543.5L739.1,543.6L741.0,547.1L748.2,550.1L748.5,551.8L754.1,546.7L759.1,547.7L762.6,546.3L764.3,551.5L766.8,549.3L770.1,549.2L769.9,554.7L778.6,553.6L780.7,552.1L779.5,548.6L783.2,547.2L781.4,541.5L782.3,539.3L785.0,538.4L786.8,534.2L777.9,530.6L787.5,530.0L788.2,526.5L783.8,525.8L781.6,522.7L783.8,518.1L781.7,516.0L779.4,518.7L776.4,516.2L775.4,517.2L775.0,517.6ZM709.9,519.8L708.4,515.2L705.0,517.1L700.2,515.8L698.8,516.4L700.2,519.0L689.9,522.6L691.8,525.8L694.4,525.3L691.8,529.2L695.5,536.5L698.1,537.9L699.5,535.8L705.1,541.9L708.2,541.9L713.6,527.7L716.2,529.5L716.6,533.6L722.0,533.5L724.8,536.5L726.6,532.5L734.5,531.1L735.6,529.3L737.8,531.0L738.2,528.6L741.0,526.9L740.6,524.8L738.1,524.2L738.0,519.2L735.4,515.0L732.8,516.3L727.8,514.2L717.1,520.4L716.4,519.3L712.3,521.2L710.3,519.9L709.9,519.8ZM681.1,543.6L677.3,543.7L676.2,547.3L673.9,544.0L668.5,545.5L664.1,550.9L663.6,555.2L659.7,552.7L655.5,554.6L656.1,555.7L652.6,555.6L654.8,551.4L654.0,549.1L652.3,549.4L651.8,552.6L645.5,554.1L650.7,556.6L650.6,559.1L653.4,556.7L656.2,557.6L658.1,561.6L660.7,560.2L665.2,561.5L667.6,559.3L668.8,560.5L672.9,558.4L674.5,560.0L675.0,556.8L679.8,555.1L679.5,556.3L681.9,556.4L689.7,549.3L688.2,547.2L689.3,545.0L687.2,543.5L684.4,546.4L681.0,545.6L681.2,544.4L681.1,543.6ZM863.6,546.2L860.5,544.3L854.3,545.4L852.2,541.1L846.0,541.0L846.7,543.5L845.2,545.0L846.8,546.9L845.0,548.8L842.7,548.2L841.9,555.0L846.8,553.7L850.0,562.4L856.5,557.0L859.4,558.5L859.6,560.7L861.1,559.9L861.3,561.8L867.2,562.7L866.0,569.6L868.9,567.4L871.0,569.3L870.4,572.0L872.0,569.1L877.5,567.0L876.1,563.6L878.3,562.5L877.7,559.8L873.5,557.9L878.9,546.4L874.8,546.9L872.3,543.7L864.7,546.3L863.6,546.2ZM830.6,542.8L834.1,547.9L837.1,545.1L836.0,550.9L839.6,549.6L841.7,545.8L839.6,541.9L835.1,539.3L831.1,542.4L830.6,542.8ZM784.0,545.9L784.2,547.4L786.9,547.3L784.7,546.0L784.0,545.9ZM738.9,555.3L731.0,553.7L726.8,556.9L726.8,561.4L724.8,562.0L717.2,560.2L717.9,561.4L714.7,563.6L718.1,570.4L716.9,569.0L715.6,573.2L711.8,574.6L711.3,577.1L705.5,578.7L705.0,581.3L702.5,580.6L700.9,575.9L695.3,576.5L692.3,582.6L701.7,584.9L701.7,589.7L698.8,592.4L698.3,598.8L695.6,604.0L697.8,604.2L697.9,601.7L700.7,601.0L712.1,604.1L715.8,600.5L718.5,606.6L721.6,605.1L725.9,608.3L728.0,603.5L725.6,600.7L727.0,598.3L731.2,599.7L733.5,598.5L734.0,595.1L737.1,597.3L739.4,594.5L742.5,596.6L744.5,594.3L742.6,590.8L739.1,592.0L739.2,581.4L735.2,581.1L728.8,584.2L725.4,579.6L728.7,577.3L731.2,578.8L735.8,576.2L741.9,577.0L744.2,575.7L742.8,575.7L742.1,573.0L743.5,571.0L749.2,573.2L748.0,575.4L750.0,573.6L749.4,570.8L752.2,570.0L753.3,564.8L748.3,562.7L746.1,565.0L740.0,561.3L743.1,558.9L744.9,554.2L739.5,555.2L738.9,555.3ZM679.9,559.6L687.2,559.3L687.6,558.0L685.5,556.9L678.9,559.2L679.9,559.6ZM813.6,589.5L810.6,582.3L809.5,582.6L810.2,586.4L804.3,588.1L803.1,591.3L808.4,594.5L806.2,598.5L807.3,597.4L809.5,598.5L811.0,602.6L823.1,603.2L822.1,596.9L825.9,593.9L825.7,591.3L822.5,589.8L823.3,587.5L820.4,586.3L816.9,586.5L814.6,589.0L813.6,589.5ZM831.7,598.5L826.6,602.3L828.0,602.8L827.8,605.5L820.8,607.7L821.5,614.0L804.9,614.6L807.1,618.1L806.5,620.3L808.8,621.8L812.6,616.5L816.6,614.7L818.5,619.5L823.0,624.0L822.0,623.3L827.5,628.5L828.8,627.7L826.2,621.0L834.1,615.6L835.1,612.5L831.9,612.6L827.3,609.6L831.3,606.3L839.3,611.5L838.0,608.9L840.2,605.4L831.8,598.9L831.7,598.5Z" fill="#d08d2c" data-basin="TOULOUSE-PYRENEES"/>
    <path class="wine-basin" d="M877.4,721.5L877.7,719.5L875.7,718.6L872.8,719.6L873.1,722.6L869.8,719.3L867.1,725.7L864.3,725.9L865.4,731.0L860.1,735.4L863.5,736.2L864.6,738.5L862.0,743.8L863.2,747.8L855.9,750.0L856.0,754.0L858.4,755.6L863.3,755.4L862.9,753.4L865.4,752.7L864.7,757.1L860.8,757.1L861.2,759.7L859.9,759.9L866.2,765.2L868.0,764.4L864.5,759.8L871.7,756.3L867.2,748.1L870.4,745.7L870.5,742.9L881.7,744.6L882.4,741.9L881.1,741.2L886.4,736.0L884.1,735.0L880.2,737.0L879.7,734.2L877.1,734.3L878.0,732.0L880.4,731.8L881.8,726.0L874.0,726.5L872.2,724.8L877.2,721.7L877.4,721.5ZM874.8,738.0L876.0,736.3L878.0,737.8L875.2,738.1L874.8,738.0ZM874.2,737.0L871.8,736.0L874.2,735.7L874.2,736.9L874.2,737.0ZM874.3,705.3L871.8,704.4L865.8,706.5L866.7,708.6L871.9,707.9L874.4,709.7L875.7,707.1L874.5,705.3L874.3,705.3ZM866.9,794.1L868.4,798.2L865.8,802.5L867.7,804.4L871.1,803.7L873.9,808.7L872.1,810.5L873.9,814.7L873.6,824.3L875.3,826.4L882.8,825.8L881.2,811.3L885.1,806.3L883.8,801.1L882.3,798.9L879.1,800.6L871.2,793.2L867.8,793.3L866.9,794.1ZM817.2,832.1L815.8,827.4L809.3,826.5L808.7,828.9L812.6,835.3L817.3,832.7L817.2,832.1ZM639.7,842.5L637.0,848.6L633.9,847.5L630.3,849.4L628.1,847.0L622.4,846.7L624.2,851.3L622.3,857.9L623.1,861.0L631.4,857.5L633.5,863.4L641.8,867.9L643.5,862.6L650.4,862.9L650.8,856.6L652.3,855.9L654.0,858.7L655.0,855.3L659.6,856.6L663.5,848.6L662.1,846.3L663.1,843.9L659.4,842.7L654.8,842.4L653.8,845.6L650.4,846.6L649.6,843.8L645.9,844.3L643.1,840.9L640.9,842.1L639.7,842.5ZM730.9,818.4L727.0,819.0L726.0,821.2L724.2,820.0L721.6,821.2L722.4,823.3L720.3,827.9L723.0,834.1L722.0,837.4L727.4,842.7L722.1,845.7L719.9,854.0L718.9,853.1L709.3,857.5L709.2,859.6L712.9,861.1L710.2,869.9L704.6,868.3L703.5,866.2L701.1,860.1L702.5,855.0L697.6,857.0L695.3,861.4L697.5,863.8L698.2,875.9L699.9,878.3L698.6,878.9L701.4,879.1L703.8,882.0L697.0,895.5L703.0,899.5L703.8,902.2L705.3,901.1L708.5,905.7L701.1,915.5L695.9,913.9L689.5,917.4L687.6,911.4L684.7,912.4L684.0,918.4L674.2,917.0L672.5,914.0L675.4,909.8L674.8,906.9L672.5,904.1L668.7,904.3L668.5,907.0L663.8,905.3L662.2,900.4L664.3,899.4L663.0,896.2L660.4,896.6L659.3,892.5L656.3,892.9L652.7,890.7L645.0,892.7L641.6,889.7L639.0,890.3L639.6,895.9L636.6,895.7L634.6,898.3L632.3,897.6L629.7,902.4L628.3,902.0L627.3,897.8L622.8,897.8L622.4,896.3L623.0,894.9L625.5,894.0L626.9,895.4L629.0,893.9L627.0,889.2L628.8,887.2L625.2,887.4L626.9,885.8L624.9,882.8L622.4,881.9L619.2,883.2L610.7,877.7L606.2,882.7L605.3,880.2L607.1,879.2L604.6,876.2L593.7,885.5L596.0,887.3L593.0,893.1L588.7,891.8L587.7,892.5L589.8,894.3L585.8,894.1L587.7,897.3L586.0,899.0L579.5,894.1L583.2,889.4L578.3,886.2L574.7,888.5L575.8,890.4L573.6,893.1L575.7,895.8L572.7,900.2L578.6,902.8L584.8,911.3L578.7,914.7L580.4,919.2L575.6,917.3L569.6,921.5L564.9,918.1L560.6,921.2L558.1,919.6L555.4,922.9L548.5,919.4L546.4,922.7L543.6,921.4L540.4,923.1L534.3,912.5L536.1,908.0L530.7,903.4L529.1,899.0L535.0,898.0L535.6,896.5L531.2,892.6L526.3,894.4L525.0,892.0L519.7,892.7L518.7,882.8L511.0,881.1L509.7,876.5L503.0,873.6L490.4,877.5L490.3,879.2L494.9,882.8L495.2,889.4L493.2,893.1L488.2,892.7L486.9,897.1L483.4,891.3L477.0,889.5L474.5,890.6L472.4,897.4L476.9,899.2L481.6,898.1L487.1,909.2L489.9,910.2L482.4,916.1L481.3,914.0L472.4,914.0L476.2,921.2L471.7,924.5L479.2,922.5L485.0,915.7L494.1,909.7L504.3,911.4L508.8,909.2L512.2,909.7L511.9,913.7L514.6,916.8L513.8,919.7L511.0,918.4L508.5,923.9L519.8,929.2L517.2,930.9L517.1,937.0L519.7,937.0L521.3,938.8L523.4,935.6L526.0,935.3L533.4,940.7L537.0,938.0L537.2,933.8L546.5,944.2L552.8,942.4L557.0,937.5L558.6,938.5L572.5,933.4L579.5,937.2L580.0,941.0L581.0,940.3L584.0,944.0L586.2,945.0L587.8,940.8L589.0,949.5L595.0,954.0L597.3,949.5L600.8,948.7L602.1,945.8L599.6,943.2L593.1,942.8L591.6,941.0L592.5,938.7L584.4,935.4L586.2,931.2L587.7,932.7L596.3,932.3L603.6,930.2L604.1,927.2L598.2,922.2L597.6,919.7L605.6,920.0L604.7,917.8L607.6,915.2L616.2,917.6L618.7,920.1L623.1,917.2L624.1,921.1L622.2,922.5L624.6,924.3L635.1,921.4L638.4,924.8L645.8,920.0L651.4,927.4L654.9,927.7L657.7,925.0L663.7,924.9L662.2,930.9L669.0,934.5L670.5,931.4L672.8,933.3L674.9,931.3L676.0,927.0L664.4,923.7L650.1,914.3L650.7,913.2L655.1,914.6L662.2,920.2L664.8,918.3L664.0,915.5L666.4,913.7L672.9,917.3L673.9,921.7L678.4,928.2L678.2,931.9L680.9,932.2L682.7,934.7L682.1,936.0L679.1,933.8L677.4,937.2L681.4,939.1L684.8,935.4L689.1,934.7L690.5,940.5L693.4,941.6L696.4,940.7L699.6,942.2L703.1,938.2L706.1,939.6L706.9,942.9L714.3,944.6L713.3,948.3L715.3,950.4L719.9,949.0L721.0,950.1L722.8,947.7L729.4,952.0L731.4,949.7L736.6,955.3L747.5,960.6L747.3,963.0L751.1,965.6L750.9,972.4L753.7,971.9L752.8,974.5L755.3,977.3L753.3,979.7L757.4,978.5L759.8,981.3L764.9,979.2L770.6,980.3L772.1,986.8L773.7,985.4L779.5,987.9L780.3,985.6L783.9,986.9L787.7,979.9L775.7,983.3L773.3,982.3L775.9,976.7L775.1,973.3L773.5,976.0L769.4,975.6L766.6,969.8L761.8,970.8L759.2,974.2L754.6,970.7L753.9,966.8L757.5,964.4L759.1,960.6L753.0,961.6L747.6,955.1L744.3,956.0L742.3,954.7L739.9,950.2L743.9,947.6L744.1,943.5L746.5,942.2L743.7,940.8L740.2,932.6L743.8,931.5L746.3,933.1L746.3,926.0L743.3,923.9L743.4,920.9L750.0,914.9L755.1,917.8L758.1,916.7L757.9,913.6L762.9,913.9L771.4,910.5L774.5,900.2L776.9,901.4L776.4,902.5L781.9,902.5L781.7,899.9L784.1,898.4L788.6,903.4L792.9,898.6L794.9,894.4L793.2,894.1L794.4,890.8L791.8,889.0L788.9,897.3L786.8,896.5L785.6,890.4L789.5,887.5L789.1,886.1L783.8,885.7L787.8,880.8L791.0,882.4L790.2,877.3L793.7,871.5L791.4,871.1L789.1,867.5L790.1,863.7L791.1,863.0L794.2,867.4L798.0,866.7L800.7,859.8L797.1,853.5L796.5,845.1L800.2,841.9L795.3,834.3L799.3,832.6L800.4,836.0L802.8,836.2L804.1,832.7L801.5,828.1L798.6,829.4L794.3,825.2L789.7,826.2L787.2,822.9L784.9,826.5L786.3,830.7L783.3,833.3L776.0,828.3L772.7,832.4L769.4,829.7L764.3,830.9L763.6,833.5L760.7,834.9L760.3,829.3L762.3,829.1L762.9,827.1L761.3,825.0L756.4,825.8L757.1,827.9L755.4,829.9L750.0,829.4L743.8,831.4L742.4,831.0L740.9,821.4L739.0,821.1L735.7,824.6L731.9,819.0L730.9,818.4ZM575.0,928.2L578.2,930.3L575.5,928.5L575.0,928.2ZM580.3,932.5L580.4,931.4L583.0,932.1L581.2,932.6L580.3,932.5ZM682.3,927.9L680.8,927.7L681.1,925.3L686.4,925.1L686.9,928.0L683.2,928.2L682.3,927.9ZM624.0,916.1L622.6,912.6L625.2,911.9L626.2,913.5L624.0,915.9L624.0,916.1ZM715.2,912.7L711.9,910.9L712.3,908.5L714.4,906.5L718.2,907.0L721.3,914.4L716.1,914.2L715.2,912.7ZM728.2,944.7L733.2,943.9L731.2,946.9L728.9,945.4L728.2,944.7ZM653.2,882.1L658.5,881.8L655.5,878.0L652.0,880.7L653.1,882.1L653.2,882.1ZM675.9,893.5L674.5,887.1L672.4,888.0L670.6,896.6L675.1,898.8L680.4,897.4L676.3,893.8L675.9,893.5ZM830.0,904.6L821.7,905.3L820.7,899.9L816.9,900.0L813.1,897.4L812.3,899.6L814.0,902.1L812.3,906.5L816.2,913.9L817.5,914.7L818.8,912.4L825.7,914.6L833.4,910.7L836.0,912.9L833.9,916.2L835.5,917.6L834.5,922.7L839.0,924.1L843.6,929.1L845.1,926.6L849.2,927.5L851.0,931.2L847.0,939.8L841.5,937.1L836.0,941.6L841.2,946.9L837.2,949.4L833.7,955.4L824.8,959.8L828.3,968.2L830.0,966.3L832.7,966.7L833.9,962.5L836.9,961.1L836.5,958.1L844.0,948.8L846.8,947.8L849.2,950.9L849.5,940.9L851.8,937.3L853.8,938.5L858.3,933.4L863.3,935.0L865.6,933.4L865.0,929.7L859.8,928.6L860.8,924.2L854.2,924.2L850.9,919.8L847.2,921.5L846.7,918.4L849.3,916.4L846.0,913.3L846.4,909.9L843.3,912.4L835.1,905.5L830.4,904.1L830.0,904.6ZM666.1,922.9L671.3,924.5L668.8,919.3L666.6,922.3L666.1,922.9ZM667.3,948.6L665.0,945.3L661.3,945.1L657.7,948.6L655.0,948.2L648.2,951.1L645.2,957.7L655.1,955.3L655.3,960.4L658.2,961.3L660.3,965.0L659.7,968.6L663.5,967.1L665.3,971.3L671.3,971.4L674.9,977.8L676.6,974.8L680.1,976.4L682.0,972.1L685.3,972.3L687.1,975.1L690.2,974.6L694.9,978.6L697.8,975.8L697.2,981.1L700.9,981.4L702.4,983.7L706.6,978.4L710.3,977.7L711.9,968.5L708.8,969.5L708.6,966.6L704.7,965.1L704.6,966.2L700.1,963.0L697.4,965.7L694.4,964.7L690.9,959.0L687.6,963.8L685.0,962.7L684.1,965.1L679.8,963.9L677.5,960.5L675.2,962.8L674.2,960.1L670.8,958.5L671.8,954.8L667.2,948.7L667.3,948.6ZM687.6,970.1L687.6,968.0L687.9,970.2L687.6,970.1Z" fill="#61a96f" data-basin="VAL DE LOIRE"/>
    <path class="wine-basin" d="M984.8,512.8L980.6,513.2L979.5,511.5L980.5,506.4L976.4,500.6L980.5,498.7L979.2,496.5L975.4,495.4L974.9,493.2L967.8,491.1L967.5,493.3L965.1,493.9L965.6,495.6L961.1,496.2L958.9,508.2L962.1,510.6L960.8,517.1L964.2,522.1L965.7,521.7L964.1,526.0L960.5,526.6L960.0,529.4L952.9,531.8L954.8,534.4L958.8,534.3L961.2,538.5L957.3,540.2L957.3,542.6L954.4,545.2L953.1,544.4L952.4,537.7L946.2,534.4L945.1,531.6L938.9,536.4L938.7,532.3L938.8,533.5L936.6,530.0L934.5,532.8L935.4,537.8L928.5,540.5L927.4,544.6L932.4,545.0L933.2,547.7L944.7,545.1L941.3,553.3L941.5,557.6L944.5,557.8L945.8,553.3L948.2,553.9L950.1,550.7L955.6,547.9L962.3,551.7L962.4,554.7L961.0,555.5L963.5,558.1L970.7,555.1L970.7,556.7L974.3,557.5L973.5,562.7L975.1,564.9L972.7,565.5L972.5,572.6L966.9,573.4L963.5,577.9L967.5,581.5L970.9,582.0L972.7,586.4L974.7,584.3L976.7,586.5L976.8,588.2L975.7,587.4L975.4,589.0L969.6,592.3L969.5,594.9L973.0,599.8L976.2,599.8L977.3,593.3L981.5,598.3L992.4,596.4L993.6,593.3L995.2,593.5L996.5,604.1L1000.1,602.8L1003.9,604.2L1007.6,596.3L1017.3,600.8L1026.5,601.5L1031.1,593.7L1031.1,588.3L1034.0,585.5L1031.7,582.0L1035.0,580.0L1036.1,575.3L1041.1,568.0L1048.1,563.5L1046.1,554.9L1048.3,547.2L1051.4,545.0L1057.3,547.3L1061.3,541.3L1068.0,539.6L1071.0,536.8L1067.3,525.5L1083.2,529.4L1085.8,533.6L1086.5,532.6L1089.2,534.2L1089.9,538.2L1093.8,538.4L1094.9,534.9L1090.2,524.9L1095.6,525.2L1099.6,523.5L1104.7,525.9L1103.2,523.3L1105.3,521.6L1097.4,519.4L1094.8,515.8L1086.9,519.2L1082.0,511.9L1073.3,507.9L1063.3,508.2L1049.0,515.5L1042.4,516.5L1038.5,515.0L1027.0,520.7L1026.3,522.7L1029.5,524.3L1028.2,530.3L1030.2,533.7L1029.4,539.6L1025.2,542.0L1018.3,540.1L1022.0,527.5L1010.4,534.1L1001.1,535.2L1004.8,537.6L1003.9,540.0L999.9,539.0L1000.8,534.4L997.8,531.0L994.3,529.1L993.1,531.3L991.8,530.7L991.2,526.8L994.6,521.8L991.4,512.3L986.9,512.5L984.8,512.8ZM998.1,553.3L1002.0,551.2L1004.2,554.0L1003.7,557.7L999.3,560.7L997.9,556.6L998.7,553.5L998.1,553.3ZM1017.2,550.5L1016.8,547.1L1014.5,544.8L1017.3,540.7L1025.0,547.1L1021.5,552.0L1018.0,550.8L1017.2,550.5ZM977.7,539.4L977.0,536.1L973.1,534.1L975.3,531.3L975.0,527.3L977.7,524.0L981.9,526.5L980.2,528.3L981.2,536.8L985.0,533.4L986.3,535.3L983.6,543.4L979.6,542.6L977.9,540.2L977.7,539.4ZM1051.9,527.6L1051.9,522.1L1060.3,524.5L1060.6,527.3L1052.0,528.0L1051.9,527.6ZM1010.0,542.9L1009.1,539.3L1012.0,538.9L1012.8,542.1L1010.6,543.1L1010.0,542.9ZM981.0,571.3L981.4,570.1L984.3,570.5L985.5,573.4L981.7,576.1L980.9,571.8L981.0,571.3ZM992.9,577.0L992.7,573.4L996.2,573.6L999.0,584.4L997.6,589.2L994.5,589.7L992.4,586.4L992.9,577.7L992.9,577.0ZM1109.8,513.9L1107.6,510.6L1103.8,514.4L1108.5,518.4L1112.5,517.2L1109.9,514.3L1109.8,513.9ZM967.3,602.3L964.4,604.5L965.2,608.1L967.9,604.9L967.4,603.2L967.3,602.3ZM1055.3,610.4L1051.3,612.4L1051.4,616.7L1046.6,619.8L1048.1,623.8L1044.3,620.8L1042.0,621.5L1043.1,618.6L1040.5,616.8L1036.7,621.8L1033.0,619.5L1023.0,620.4L1022.6,627.0L1026.3,628.8L1027.0,633.5L1031.3,635.4L1035.9,632.1L1043.8,636.3L1050.9,634.2L1052.1,631.1L1056.1,631.6L1057.0,634.5L1063.9,633.0L1063.0,635.4L1064.6,635.2L1070.0,630.7L1066.3,629.7L1065.9,623.8L1061.9,622.0L1059.3,612.0L1056.9,612.5L1055.5,610.7L1055.3,610.4ZM991.3,630.0L991.4,631.4L995.6,630.7L997.6,626.4L992.0,630.5L991.3,630.0ZM1000.1,631.5L1002.9,635.2L1006.8,635.6L1008.0,637.7L1009.9,635.7L1009.4,629.9L1000.1,631.3L1000.1,631.5ZM997.7,647.4L1002.4,648.7L1001.2,650.7L1005.0,655.9L1000.3,662.1L999.7,667.5L997.8,669.4L998.7,673.0L1000.8,674.0L1000.2,675.5L997.9,677.8L994.8,676.9L994.9,679.0L997.7,679.9L999.7,683.5L998.3,687.6L1000.6,689.0L999.2,690.6L991.8,691.9L994.9,694.7L993.7,696.7L995.2,698.5L993.0,706.5L996.4,710.8L995.3,712.7L999.6,716.9L1004.9,716.6L998.0,709.0L996.6,704.7L999.2,696.7L998.2,694.4L1002.3,689.9L1002.9,675.8L1007.3,673.0L1008.0,668.4L1012.5,668.0L1014.3,663.2L1012.7,659.2L1007.1,655.3L1009.6,650.3L1005.3,644.4L1000.0,643.7L997.6,644.7L998.1,646.9L997.7,647.4Z" fill="#7c6ee6" data-basin="VALLEE DU RHÔNE"/>
    </g>
    <path class="river" d="M864.1,915.2L794.9,892.4L718.3,927.1L649.3,928.6L579.7,913.9L506.6,913.8L466.2,922.8"><title>Loire</title></path>
    <path class="river" d="M999.9,742.2L1006.1,668.7L1007.0,612.1L1013.6,555.6L1019.3,504.7L1001.6,464.4"><title>Rhone</title></path>
    <path class="river" d="M732.0,496.3L687.8,542.4L643.7,571.8L604.2,607.0L570.8,641.0"><title>Garonne</title></path>
    <path class="river" d="M794.1,631.9L725.8,638.1L669.8,647.1L629.6,648.1L589.8,656.2L560.5,666.4"><title>Dordogne</title></path>
    <path class="river" d="M939.5,984.3L878.5,1011.7L806.7,1090.7L717.9,1131.2L659.4,1160.8"><title>Seine</title></path>
    <path class="river" d="M1203.5,961.6L1205.2,1018.5L1207.1,1081.1L1207.8,1126.6"><title>Rhin</title></path>
    <path class="coastline" d="M1089.6,1166.8L1125.9,1138.8L1233.8,1124.6L1201.5,1044.7L1197.2,963.5L1177.2,942.9L1141.9,951.2L1146.0,922.7L1092.8,856.3L1093.7,805.1L1130.2,824.5L1159.7,776.3L1158.3,744.2L1184.1,703.0L1158.2,667.0L1184.0,580.6L1229.0,569.0L1222.7,519.3L1151.8,451.0L987.7,475.3L868.2,436.4L859.1,368.1L761.9,353.4L668.4,406.1L637.5,382.4L486.4,439.8L455.7,485.6L501.7,551.3L527.7,776.0L453.5,899.0L400.6,959.8L288.1,1012.3L287.9,1095.3L386.4,1112.2L509.6,1075.3L493.1,1204.8L560.2,1152.6L733.2,1236.2L756.2,1328.9L818.8,1351.5L829.2,1311.7L862.5,1310.0L896.6,1264.8L948.4,1212.2L985.7,1222.0L1051.6,1172.6L1068.5,1163.3L1089.6,1166.8ZM1339.5,406.4L1389.4,454.1L1412.1,358.3L1391.8,268.5L1351.4,288.3L1326.0,363.1L1339.5,406.4Z" fill-rule="evenodd"/>
    <g class="map-badge" transform="translate(589.1 635.8)">
    <rect x="-23" y="-18" width="46" height="36" rx="14"/>
    <text y="7" text-anchor="middle">01</text>
  </g>
    <g class="map-badge" transform="translate(671.5 894.1)">
    <rect x="-23" y="-18" width="46" height="36" rx="14"/>
    <text y="7" text-anchor="middle">02</text>
  </g>
    <g class="map-badge" transform="translate(934.0 1069.2)">
    <rect x="-23" y="-18" width="46" height="36" rx="14"/>
    <text y="7" text-anchor="middle">03</text>
  </g>
    <g class="map-badge" transform="translate(1000.1 866.9)">
    <rect x="-23" y="-18" width="46" height="36" rx="14"/>
    <text y="7" text-anchor="middle">04</text>
  </g>
    <g class="map-badge" transform="translate(1175.5 1045.0)">
    <rect x="-23" y="-18" width="46" height="36" rx="14"/>
    <text y="7" text-anchor="middle">05</text>
  </g>
    <g class="map-badge" transform="translate(1008.3 595.1)">
    <rect x="-23" y="-18" width="46" height="36" rx="14"/>
    <text y="7" text-anchor="middle">06</text>
  </g>
    <g class="map-badge" transform="translate(872.1 450.7)">
    <rect x="-23" y="-18" width="46" height="36" rx="14"/>
    <text y="7" text-anchor="middle">07</text>
  </g>
    <g class="map-badge" transform="translate(1119.8 463.2)">
    <rect x="-23" y="-18" width="46" height="36" rx="14"/>
    <text y="7" text-anchor="middle">08</text>
  </g>
    <g class="map-badge" transform="translate(711.7 507.9)">
    <rect x="-23" y="-18" width="46" height="36" rx="14"/>
    <text y="7" text-anchor="middle">09</text>
  </g>
    <g class="map-badge" transform="translate(576.7 732.7)">
    <rect x="-23" y="-18" width="46" height="36" rx="14"/>
    <text y="7" text-anchor="middle">10</text>
  </g>
    <g class="map-badge" transform="translate(628.2 515.5)">
    <rect x="-23" y="-18" width="46" height="36" rx="14"/>
    <text y="7" text-anchor="middle">11</text>
  </g>
    <g class="map-badge" transform="translate(860.0 396.1)">
    <rect x="-23" y="-18" width="46" height="36" rx="14"/>
    <text y="7" text-anchor="middle">12</text>
  </g>
    <g class="city" transform="translate(570.8 641.0)">
    <circle r="4.5"/>
    <text x="9" y="-7">Bordeaux</text>
  </g>
    <g class="city" transform="translate(506.6 913.8)">
    <circle r="4.5"/>
    <text x="9" y="-7">Nantes</text>
  </g>
    <g class="city" transform="translate(678.4 926.8)">
    <circle r="4.5"/>
    <text x="9" y="-7">Tours</text>
  </g>
    <g class="city" transform="translate(931.1 1138.3)">
    <circle r="4.5"/>
    <text x="9" y="-7">Reims</text>
  </g>
    <g class="city" transform="translate(1013.1 920.6)">
    <circle r="4.5"/>
    <text x="9" y="-7">Dijon</text>
  </g>
    <g class="city" transform="translate(1211.3 1073.4)">
    <circle r="4.5"/>
    <text x="9" y="-7">Strasbourg</text>
  </g>
    <g class="city" transform="translate(1003.0 743.4)">
    <circle r="4.5"/>
    <text x="9" y="-7">Lyon</text>
  </g>
    <g class="city" transform="translate(1006.8 538.3)">
    <circle r="4.5"/>
    <text x="9" y="-7">Avignon</text>
  </g>
    <g class="city" transform="translate(931.6 498.0)">
    <circle r="4.5"/>
    <text x="9" y="-7">Montpellier</text>
  </g>
    <g class="city" transform="translate(1055.2 466.2)">
    <circle r="4.5"/>
    <text x="9" y="-7">Marseille</text>
  </g>
    <g class="city" transform="translate(1345.4 326.2)">
    <circle r="4.5"/>
    <text x="9" y="-7">Ajaccio</text>
  </g>
  </g>
  <rect x="1640" y="235" width="635" height="1145" rx="32" class="legend-panel"/>
  <text x="1670" y="285" class="legend-title">Region Index</text>
  <text x="1670" y="313" class="legend-note">Large, readable labels outside the map body.</text>
  <g class="legend-row" transform="translate(1670 327)">
    <rect width="575" height="62" rx="17"/>
    <circle cx="31" cy="31" r="19" fill="#9d2449"/>
    <text class="legend-number" x="31" y="39" text-anchor="middle">01</text>
    <text class="legend-name" x="62" y="25">Bordeaux / Sud-Ouest</text>
    <text class="legend-detail" x="62" y="49">Medoc, Graves, Right Bank, Sauternes, Bergerac</text>
  </g>
    <g class="legend-row" transform="translate(1670 405)">
    <rect width="575" height="62" rx="17"/>
    <circle cx="31" cy="31" r="19" fill="#61a96f"/>
    <text class="legend-number" x="31" y="39" text-anchor="middle">02</text>
    <text class="legend-name" x="62" y="25">Val de Loire</text>
    <text class="legend-detail" x="62" y="49">Nantais, Anjou-Saumur, Touraine, Centre-Loire</text>
  </g>
    <g class="legend-row" transform="translate(1670 483)">
    <rect width="575" height="62" rx="17"/>
    <circle cx="31" cy="31" r="19" fill="#f2c94c"/>
    <text class="legend-number" x="31" y="39" text-anchor="middle">03</text>
    <text class="legend-name" x="62" y="25">Champagne</text>
    <text class="legend-detail" x="62" y="49">Reims, Marne, Cote des Blancs, Cote des Bar</text>
  </g>
    <g class="legend-row" transform="translate(1670 561)">
    <rect width="575" height="62" rx="17"/>
    <circle cx="31" cy="31" r="19" fill="#c45770"/>
    <text class="legend-number" x="31" y="39" text-anchor="middle">04</text>
    <text class="legend-name" x="62" y="25">Bourgogne / Beaujolais / Jura / Savoie</text>
    <text class="legend-detail" x="62" y="49">Chablis, Cote d'Or, Maconnais, Beaujolais, Jura, Savoie</text>
  </g>
    <g class="legend-row" transform="translate(1670 639)">
    <rect width="575" height="62" rx="17"/>
    <circle cx="31" cy="31" r="19" fill="#49c5b6"/>
    <text class="legend-number" x="31" y="39" text-anchor="middle">05</text>
    <text class="legend-name" x="62" y="25">Alsace et Est</text>
    <text class="legend-detail" x="62" y="49">Alsace corridor, Vosges foothills, eastern study belt</text>
  </g>
    <g class="legend-row" transform="translate(1670 717)">
    <rect width="575" height="62" rx="17"/>
    <circle cx="31" cy="31" r="19" fill="#7c6ee6"/>
    <text class="legend-number" x="31" y="39" text-anchor="middle">06</text>
    <text class="legend-name" x="62" y="25">Vallee du Rhone</text>
    <text class="legend-detail" x="62" y="49">Northern Rhone, Southern Rhone, Ventoux, Luberon edge</text>
  </g>
    <g class="legend-row" transform="translate(1670 795)">
    <rect width="575" height="62" rx="17"/>
    <circle cx="31" cy="31" r="19" fill="#f08a4b"/>
    <text class="legend-number" x="31" y="39" text-anchor="middle">07</text>
    <text class="legend-name" x="62" y="25">Languedoc-Roussillon</text>
    <text class="legend-detail" x="62" y="49">Picpoul, Minervois, Corbieres, Limoux, Roussillon</text>
  </g>
    <g class="legend-row" transform="translate(1670 873)">
    <rect width="575" height="62" rx="17"/>
    <circle cx="31" cy="31" r="19" fill="#e66b5b"/>
    <text class="legend-number" x="31" y="39" text-anchor="middle">08</text>
    <text class="legend-name" x="62" y="25">Provence-Corse</text>
    <text class="legend-detail" x="62" y="49">Bandol, Cassis, Palette, Cotes de Provence, Corsica</text>
  </g>
    <g class="legend-row" transform="translate(1670 951)">
    <rect width="575" height="62" rx="17"/>
    <circle cx="31" cy="31" r="19" fill="#d08d2c"/>
    <text class="legend-number" x="31" y="39" text-anchor="middle">09</text>
    <text class="legend-name" x="62" y="25">Toulouse-Pyrenees</text>
    <text class="legend-detail" x="62" y="49">Gaillac, Fronton, Jurancon, Madiran, Irouleguy</text>
  </g>
    <g class="legend-row" transform="translate(1670 1029)">
    <rect width="575" height="62" rx="17"/>
    <circle cx="31" cy="31" r="19" fill="#b58c67"/>
    <text class="legend-number" x="31" y="39" text-anchor="middle">10</text>
    <text class="legend-name" x="62" y="25">Cognac</text>
    <text class="legend-detail" x="62" y="49">Charente winegrowing base for distillation study</text>
  </g>
    <g class="legend-row" transform="translate(1670 1107)">
    <rect width="575" height="62" rx="17"/>
    <circle cx="31" cy="31" r="19" fill="#a56d3f"/>
    <text class="legend-number" x="31" y="39" text-anchor="middle">11</text>
    <text class="legend-name" x="62" y="25">Armagnac</text>
    <text class="legend-detail" x="62" y="49">Gascogne distillation base and southwest context</text>
  </g>
    <g class="legend-row" transform="translate(1670 1185)">
    <rect width="575" height="62" rx="17"/>
    <circle cx="31" cy="31" r="19" fill="#db5c9b"/>
    <text class="legend-number" x="31" y="39" text-anchor="middle">12</text>
    <text class="legend-name" x="62" y="25">Vins Doux Naturels</text>
    <text class="legend-detail" x="62" y="49">Banyuls, Maury, Rivesaltes, Muscat production sites</text>
  </g>
  <text x="1670" y="1335" class="source">Source geometry: data.gouv.fr BassinsViticolesFranceAOP, CC BY.</text>
  <text x="1670" y="1360" class="source">Broad production basins; parcel-level AOC plans remain authoritative.</text>
</svg>
