<svg xmlns="http://www.w3.org/2000/svg" width="2100" height="1400" viewBox="0 0 2100 1400" role="img" aria-label="Italy Wine Map">
  <defs>
    <linearGradient id="bg" x1="0" y1="0" x2="1" y2="1">
      <stop offset="0" stop-color="#04131f"/>
      <stop offset="0.48" stop-color="#082d33"/>
      <stop offset="1" stop-color="#171f25"/>
    </linearGradient>
    <radialGradient id="glowGold" cx="20%" cy="16%" r="70%">
      <stop offset="0" stop-color="#edd4a8" stop-opacity="0.36"/>
      <stop offset="1" stop-color="#edd4a8" stop-opacity="0"/>
    </radialGradient>
    <radialGradient id="glowCyan" cx="60%" cy="45%" r="70%">
      <stop offset="0" stop-color="#48e5dc" stop-opacity="0.22"/>
      <stop offset="1" stop-color="#48e5dc" stop-opacity="0"/>
    </radialGradient>
    <linearGradient id="land" x1="0" y1="0" x2="1" y2="1">
      <stop offset="0" stop-color="#fff0ce"/>
      <stop offset="0.44" stop-color="#c99a22"/>
      <stop offset="1" stop-color="#3dd7ca"/>
    </linearGradient>
    <filter id="softShadow" x="-20%" y="-20%" width="140%" height="140%">
      <feDropShadow dx="0" dy="28" stdDeviation="26" flood-color="#000816" flood-opacity="0.52"/>
      <feDropShadow dx="0" dy="0" stdDeviation="12" flood-color="#48e5dc" flood-opacity="0.22"/>
    </filter>
    <style>
      .frame { fill: none; stroke: rgba(159, 218, 245, 0.32); stroke-width: 2; }
      .grid { stroke: rgba(159, 218, 245, 0.14); stroke-width: 1; }
      .micro { fill: rgba(217, 247, 255, 0.64); font: 800 19px 'Trebuchet MS', Arial, sans-serif; letter-spacing: 8px; text-transform: uppercase; }
      .title { fill: #fff0ce; font: 900 66px 'Trebuchet MS', Arial, sans-serif; letter-spacing: -2px; }
      .subtitle { fill: rgba(217, 247, 255, 0.78); font: 800 25px 'Trebuchet MS', Arial, sans-serif; }
      .land-core { fill: url(#land); stroke: #fff0ce; stroke-width: 3; stroke-linejoin: round; filter: url(#softShadow); }
      .land-line { fill: none; stroke: rgba(4, 13, 24, 0.72); stroke-width: 10; opacity: 0.55; stroke-linejoin: round; }
      .contour { fill: none; stroke: rgba(237, 212, 168, 0.16); stroke-width: 3; stroke-linecap: round; }
      .region-panel { fill: rgba(5, 18, 28, 0.72); stroke: rgba(159, 218, 245, 0.28); stroke-width: 2; }
      .region-heading { fill: #fff0ce; font: 900 34px 'Trebuchet MS', Arial, sans-serif; letter-spacing: 5px; text-transform: uppercase; }
      .region-subheading { fill: rgba(217, 247, 255, 0.68); font: 700 22px 'Trebuchet MS', Arial, sans-serif; }
      .region-row rect { fill: rgba(4, 19, 31, 0.82); stroke: rgba(159, 218, 245, 0.38); stroke-width: 1.6; }
      .region-row circle { fill: rgba(237, 212, 168, 0.95); }
      .region-number { fill: #04131f; font: 900 18px 'Trebuchet MS', Arial, sans-serif; }
      .region-name { fill: #fff0ce; font: 900 31px 'Trebuchet MS', Arial, sans-serif; }
      .badge { fill: rgba(7, 35, 48, 0.88); stroke: rgba(237, 212, 168, 0.48); stroke-width: 1.5; }
      .badge-text { fill: #edd4a8; font: 900 18px 'Trebuchet MS', Arial, sans-serif; letter-spacing: 3px; text-transform: uppercase; }
      .footer { fill: rgba(217, 247, 255, 0.58); font: 700 18px 'Trebuchet MS', Arial, sans-serif; }
    </style>
  </defs>
  <rect width="2100" height="1400" fill="url(#bg)"/>
  <rect width="2100" height="1400" fill="url(#glowGold)"/>
  <rect width="2100" height="1400" fill="url(#glowCyan)"/>
  <line class="grid" x1="120" y1="0" x2="120" y2="1400"/><line class="grid" x1="240" y1="0" x2="240" y2="1400"/><line class="grid" x1="360" y1="0" x2="360" y2="1400"/><line class="grid" x1="480" y1="0" x2="480" y2="1400"/><line class="grid" x1="600" y1="0" x2="600" y2="1400"/><line class="grid" x1="720" y1="0" x2="720" y2="1400"/><line class="grid" x1="840" y1="0" x2="840" y2="1400"/><line class="grid" x1="960" y1="0" x2="960" y2="1400"/><line class="grid" x1="1080" y1="0" x2="1080" y2="1400"/><line class="grid" x1="1200" y1="0" x2="1200" y2="1400"/><line class="grid" x1="1320" y1="0" x2="1320" y2="1400"/><line class="grid" x1="1440" y1="0" x2="1440" y2="1400"/><line class="grid" x1="1560" y1="0" x2="1560" y2="1400"/><line class="grid" x1="1680" y1="0" x2="1680" y2="1400"/><line class="grid" x1="1800" y1="0" x2="1800" y2="1400"/>
  <line class="grid" x1="0" y1="180" x2="2100" y2="180"/><line class="grid" x1="0" y1="300" x2="2100" y2="300"/><line class="grid" x1="0" y1="420" x2="2100" y2="420"/><line class="grid" x1="0" y1="540" x2="2100" y2="540"/><line class="grid" x1="0" y1="660" x2="2100" y2="660"/><line class="grid" x1="0" y1="780" x2="2100" y2="780"/><line class="grid" x1="0" y1="900" x2="2100" y2="900"/><line class="grid" x1="0" y1="1020" x2="2100" y2="1020"/>
  <rect x="34" y="34" width="2032" height="1332" rx="42" class="frame"/>
  <text x="80" y="108" class="micro">Sip Studios Maps / Country Study Plate</text>
  <text x="80" y="185" class="title">Italy Wine Map</text>
  <text x="84" y="232" class="subtitle">Europe / 12 study regions / Wine geography</text>
  <g opacity="0.9">
    <path class="contour" d="M134 319 C 390 247, 670 391, 922 320 S 1170 268, 1250 334"/><path class="contour" d="M134 360 C 390 288, 670 498, 922 394 S 1170 342, 1250 408"/><path class="contour" d="M134 465 C 390 393, 670 541, 922 468 S 1170 416, 1250 482"/><path class="contour" d="M134 506 C 390 434, 670 648, 922 542 S 1170 490, 1250 556"/><path class="contour" d="M134 611 C 390 539, 670 691, 922 616 S 1170 564, 1250 630"/><path class="contour" d="M134 716 C 390 644, 670 734, 922 690 S 1170 638, 1250 704"/><path class="contour" d="M134 757 C 390 685, 670 841, 922 764 S 1170 712, 1250 778"/><path class="contour" d="M134 862 C 390 790, 670 884, 922 838 S 1170 786, 1250 852"/>
    <path class="land-line" d="M574.31,302.72L606.85,310.38L612.83,300.09L665.23,291.00L677.20,309.42L753.29,323.30L747.55,349.38L760.23,372.12L717.88,364.22L674.81,383.12L677.68,409.44L670.98,424.76L688.44,451.80L738.45,478.60L765.25,522.38L824.36,565.45L865.99,564.98L878.91,576.70L864.08,587.47L911.69,606.61L950.70,622.64L996.40,650.40L1001.90,660.45L991.85,679.35L962.42,654.47L916.00,645.85L893.99,680.07L932.27,699.93L925.81,727.69L903.56,730.80L875.32,776.50L853.07,780.57L853.31,764.30L864.32,735.82L875.80,724.34L854.98,693.47L838.71,666.67L816.70,660.21L801.15,637.24L766.69,627.43L743.72,606.13L704.48,602.78L662.84,578.61L614.27,544.16L578.14,513.53L561.63,460.89L535.07,454.67L492.00,437.20L467.35,444.38L436.48,469.02L414.47,472.85L420.69,449.88L391.74,443.18L378.10,402.03L396.52,385.75L380.97,365.89L382.88,350.82L405.86,362.07L431.70,359.67L461.37,341.49L470.70,350.10L495.82,348.43L507.31,326.89L546.79,333.59L570.24,324.50L574.31,302.72ZM804.02,768.12L844.45,763.34L825.31,805.21L833.21,821.72L822.20,849.00L781.29,829.14L754.25,823.16L680.31,796.36L687.49,768.84L749.70,773.87L804.02,768.12ZM482.42,621.45L508.98,604.93L540.81,642.74L533.15,713.09L509.22,709.74L487.45,727.45L467.35,713.33L465.20,649.20L452.99,618.81L482.42,621.45Z"/>
    <path class="land-core" d="M574.31,302.72L606.85,310.38L612.83,300.09L665.23,291.00L677.20,309.42L753.29,323.30L747.55,349.38L760.23,372.12L717.88,364.22L674.81,383.12L677.68,409.44L670.98,424.76L688.44,451.80L738.45,478.60L765.25,522.38L824.36,565.45L865.99,564.98L878.91,576.70L864.08,587.47L911.69,606.61L950.70,622.64L996.40,650.40L1001.90,660.45L991.85,679.35L962.42,654.47L916.00,645.85L893.99,680.07L932.27,699.93L925.81,727.69L903.56,730.80L875.32,776.50L853.07,780.57L853.31,764.30L864.32,735.82L875.80,724.34L854.98,693.47L838.71,666.67L816.70,660.21L801.15,637.24L766.69,627.43L743.72,606.13L704.48,602.78L662.84,578.61L614.27,544.16L578.14,513.53L561.63,460.89L535.07,454.67L492.00,437.20L467.35,444.38L436.48,469.02L414.47,472.85L420.69,449.88L391.74,443.18L378.10,402.03L396.52,385.75L380.97,365.89L382.88,350.82L405.86,362.07L431.70,359.67L461.37,341.49L470.70,350.10L495.82,348.43L507.31,326.89L546.79,333.59L570.24,324.50L574.31,302.72ZM804.02,768.12L844.45,763.34L825.31,805.21L833.21,821.72L822.20,849.00L781.29,829.14L754.25,823.16L680.31,796.36L687.49,768.84L749.70,773.87L804.02,768.12ZM482.42,621.45L508.98,604.93L540.81,642.74L533.15,713.09L509.22,709.74L487.45,727.45L467.35,713.33L465.20,649.20L452.99,618.81L482.42,621.45Z" fill-rule="evenodd"/>
  </g>
  <rect x="1370" y="305" width="610" height="132" rx="24" class="badge"/>
  <text x="1410" y="358" class="badge-text">Italy / atlas outline</text>
  <text x="1410" y="398" class="footer">Primary atlas outline fitted for country-scale study.</text>
  <rect x="88" y="940" width="1924" height="382" rx="30" class="region-panel"/>
  <text x="132" y="998" class="region-heading">Study Region Index</text>
  <text x="132" y="1335" class="footer">Showing 12 of 12 study regions. Internal wine-region borders require an authoritative GIS layer before drawing.</text>
  
      <g class="region-row" transform="translate(135 1038)">
        <rect width="850" height="40" rx="13"/>
        <circle cx="26" cy="20" r="15"/>
        <text x="26" y="27" text-anchor="middle" class="region-number">1</text>
        <text x="54" y="28" class="region-name">Piedmont (Piemonte)</text>
      </g>
      <g class="region-row" transform="translate(1045 1038)">
        <rect width="850" height="40" rx="13"/>
        <circle cx="26" cy="20" r="15"/>
        <text x="26" y="27" text-anchor="middle" class="region-number">2</text>
        <text x="54" y="28" class="region-name">Tuscany (Toscana)</text>
      </g>
      <g class="region-row" transform="translate(135 1086)">
        <rect width="850" height="40" rx="13"/>
        <circle cx="26" cy="20" r="15"/>
        <text x="26" y="27" text-anchor="middle" class="region-number">3</text>
        <text x="54" y="28" class="region-name">Trentino Alto Adige</text>
      </g>
      <g class="region-row" transform="translate(1045 1086)">
        <rect width="850" height="40" rx="13"/>
        <circle cx="26" cy="20" r="15"/>
        <text x="26" y="27" text-anchor="middle" class="region-number">4</text>
        <text x="54" y="28" class="region-name">Veneto</text>
      </g>
      <g class="region-row" transform="translate(135 1134)">
        <rect width="850" height="40" rx="13"/>
        <circle cx="26" cy="20" r="15"/>
        <text x="26" y="27" text-anchor="middle" class="region-number">5</text>
        <text x="54" y="28" class="region-name">Friuli-Venezia Giulia</text>
      </g>
      <g class="region-row" transform="translate(1045 1134)">
        <rect width="850" height="40" rx="13"/>
        <circle cx="26" cy="20" r="15"/>
        <text x="26" y="27" text-anchor="middle" class="region-number">6</text>
        <text x="54" y="28" class="region-name">Sicily (Sicilia)</text>
      </g>
      <g class="region-row" transform="translate(135 1182)">
        <rect width="850" height="40" rx="13"/>
        <circle cx="26" cy="20" r="15"/>
        <text x="26" y="27" text-anchor="middle" class="region-number">7</text>
        <text x="54" y="28" class="region-name">Abruzzo</text>
      </g>
      <g class="region-row" transform="translate(1045 1182)">
        <rect width="850" height="40" rx="13"/>
        <circle cx="26" cy="20" r="15"/>
        <text x="26" y="27" text-anchor="middle" class="region-number">8</text>
        <text x="54" y="28" class="region-name">Puglia (Apulia)</text>
      </g>
      <g class="region-row" transform="translate(135 1230)">
        <rect width="850" height="40" rx="13"/>
        <circle cx="26" cy="20" r="15"/>
        <text x="26" y="27" text-anchor="middle" class="region-number">9</text>
        <text x="54" y="28" class="region-name">Lombardy (Lombardia)</text>
      </g>
      <g class="region-row" transform="translate(1045 1230)">
        <rect width="850" height="40" rx="13"/>
        <circle cx="26" cy="20" r="15"/>
        <text x="26" y="27" text-anchor="middle" class="region-number">10</text>
        <text x="54" y="28" class="region-name">Campania</text>
      </g>
      <g class="region-row" transform="translate(135 1278)">
        <rect width="850" height="40" rx="13"/>
        <circle cx="26" cy="20" r="15"/>
        <text x="26" y="27" text-anchor="middle" class="region-number">11</text>
        <text x="54" y="28" class="region-name">Emilia Romagna</text>
      </g>
      <g class="region-row" transform="translate(1045 1278)">
        <rect width="850" height="40" rx="13"/>
        <circle cx="26" cy="20" r="15"/>
        <text x="26" y="27" text-anchor="middle" class="region-number">12</text>
        <text x="54" y="28" class="region-name">Marche</text>
      </g>
</svg>
