<svg xmlns="http://www.w3.org/2000/svg" width="2100" height="1400" viewBox="0 0 2100 1400" role="img" aria-label="Algeria Wine Map">
  <defs>
    <linearGradient id="bg" x1="0" y1="0" x2="1" y2="1">
      <stop offset="0" stop-color="#04131f"/>
      <stop offset="0.48" stop-color="#082d33"/>
      <stop offset="1" stop-color="#171f25"/>
    </linearGradient>
    <radialGradient id="glowGold" cx="20%" cy="16%" r="70%">
      <stop offset="0" stop-color="#edd4a8" stop-opacity="0.36"/>
      <stop offset="1" stop-color="#edd4a8" stop-opacity="0"/>
    </radialGradient>
    <radialGradient id="glowCyan" cx="60%" cy="45%" r="70%">
      <stop offset="0" stop-color="#48e5dc" stop-opacity="0.22"/>
      <stop offset="1" stop-color="#48e5dc" stop-opacity="0"/>
    </radialGradient>
    <linearGradient id="land" x1="0" y1="0" x2="1" y2="1">
      <stop offset="0" stop-color="#fff0ce"/>
      <stop offset="0.44" stop-color="#c99a22"/>
      <stop offset="1" stop-color="#3dd7ca"/>
    </linearGradient>
    <filter id="softShadow" x="-20%" y="-20%" width="140%" height="140%">
      <feDropShadow dx="0" dy="28" stdDeviation="26" flood-color="#000816" flood-opacity="0.52"/>
      <feDropShadow dx="0" dy="0" stdDeviation="12" flood-color="#48e5dc" flood-opacity="0.22"/>
    </filter>
    <style>
      .frame { fill: none; stroke: rgba(159, 218, 245, 0.32); stroke-width: 2; }
      .grid { stroke: rgba(159, 218, 245, 0.14); stroke-width: 1; }
      .micro { fill: rgba(217, 247, 255, 0.64); font: 800 19px 'Trebuchet MS', Arial, sans-serif; letter-spacing: 8px; text-transform: uppercase; }
      .title { fill: #fff0ce; font: 900 66px 'Trebuchet MS', Arial, sans-serif; letter-spacing: -2px; }
      .subtitle { fill: rgba(217, 247, 255, 0.78); font: 800 25px 'Trebuchet MS', Arial, sans-serif; }
      .land-core { fill: url(#land); stroke: #fff0ce; stroke-width: 3; stroke-linejoin: round; filter: url(#softShadow); }
      .land-line { fill: none; stroke: rgba(4, 13, 24, 0.72); stroke-width: 10; opacity: 0.55; stroke-linejoin: round; }
      .contour { fill: none; stroke: rgba(237, 212, 168, 0.16); stroke-width: 3; stroke-linecap: round; }
      .region-panel { fill: rgba(5, 18, 28, 0.72); stroke: rgba(159, 218, 245, 0.28); stroke-width: 2; }
      .region-heading { fill: #fff0ce; font: 900 34px 'Trebuchet MS', Arial, sans-serif; letter-spacing: 5px; text-transform: uppercase; }
      .region-subheading { fill: rgba(217, 247, 255, 0.68); font: 700 22px 'Trebuchet MS', Arial, sans-serif; }
      .region-row rect { fill: rgba(4, 19, 31, 0.82); stroke: rgba(159, 218, 245, 0.38); stroke-width: 1.6; }
      .region-row circle { fill: rgba(237, 212, 168, 0.95); }
      .region-number { fill: #04131f; font: 900 18px 'Trebuchet MS', Arial, sans-serif; }
      .region-name { fill: #fff0ce; font: 900 31px 'Trebuchet MS', Arial, sans-serif; }
      .badge { fill: rgba(7, 35, 48, 0.88); stroke: rgba(237, 212, 168, 0.48); stroke-width: 1.5; }
      .badge-text { fill: #edd4a8; font: 900 18px 'Trebuchet MS', Arial, sans-serif; letter-spacing: 3px; text-transform: uppercase; }
      .footer { fill: rgba(217, 247, 255, 0.58); font: 700 18px 'Trebuchet MS', Arial, sans-serif; }
    </style>
  </defs>
  <rect width="2100" height="1400" fill="url(#bg)"/>
  <rect width="2100" height="1400" fill="url(#glowGold)"/>
  <rect width="2100" height="1400" fill="url(#glowCyan)"/>
  <line class="grid" x1="120" y1="0" x2="120" y2="1400"/><line class="grid" x1="240" y1="0" x2="240" y2="1400"/><line class="grid" x1="360" y1="0" x2="360" y2="1400"/><line class="grid" x1="480" y1="0" x2="480" y2="1400"/><line class="grid" x1="600" y1="0" x2="600" y2="1400"/><line class="grid" x1="720" y1="0" x2="720" y2="1400"/><line class="grid" x1="840" y1="0" x2="840" y2="1400"/><line class="grid" x1="960" y1="0" x2="960" y2="1400"/><line class="grid" x1="1080" y1="0" x2="1080" y2="1400"/><line class="grid" x1="1200" y1="0" x2="1200" y2="1400"/><line class="grid" x1="1320" y1="0" x2="1320" y2="1400"/><line class="grid" x1="1440" y1="0" x2="1440" y2="1400"/><line class="grid" x1="1560" y1="0" x2="1560" y2="1400"/><line class="grid" x1="1680" y1="0" x2="1680" y2="1400"/><line class="grid" x1="1800" y1="0" x2="1800" y2="1400"/>
  <line class="grid" x1="0" y1="180" x2="2100" y2="180"/><line class="grid" x1="0" y1="300" x2="2100" y2="300"/><line class="grid" x1="0" y1="420" x2="2100" y2="420"/><line class="grid" x1="0" y1="540" x2="2100" y2="540"/><line class="grid" x1="0" y1="660" x2="2100" y2="660"/><line class="grid" x1="0" y1="780" x2="2100" y2="780"/><line class="grid" x1="0" y1="900" x2="2100" y2="900"/><line class="grid" x1="0" y1="1020" x2="2100" y2="1020"/>
  <rect x="34" y="34" width="2032" height="1332" rx="42" class="frame"/>
  <text x="80" y="108" class="micro">Sip Studios Maps / Country Study Plate</text>
  <text x="80" y="185" class="title">Algeria Wine Map</text>
  <text x="84" y="232" class="subtitle">Africa / 5 study regions / Wine geography</text>
  <g opacity="0.9">
    <path class="contour" d="M134 305 C 390 233, 670 405, 922 320 S 1170 268, 1250 334"/><path class="contour" d="M134 410 C 390 338, 670 448, 922 394 S 1170 342, 1250 408"/><path class="contour" d="M134 451 C 390 379, 670 555, 922 468 S 1170 416, 1250 482"/><path class="contour" d="M134 556 C 390 484, 670 598, 922 542 S 1170 490, 1250 556"/><path class="contour" d="M134 597 C 390 525, 670 705, 922 616 S 1170 564, 1250 630"/><path class="contour" d="M134 702 C 390 630, 670 748, 922 690 S 1170 638, 1250 704"/><path class="contour" d="M134 743 C 390 671, 670 855, 922 764 S 1170 712, 1250 778"/><path class="contour" d="M134 848 C 390 776, 670 898, 922 838 S 1170 786, 1250 852"/>
    <path class="land-line" d="M370.48,591.41L371.17,585.43L371.03,583.35L370.76,546.78L420.80,523.99L451.52,519.26L476.82,510.92L488.64,495.49L524.78,483.26L526.03,460.32L543.97,457.68L558.01,446.28L598.32,441.13L604.02,429.04L595.96,422.51L585.25,389.84L583.31,371.07L571.77,351.33L601.52,334.37L634.88,329.09L654.34,316.30L684.09,306.85L736.50,301.43L787.52,298.92L803.09,303.51L832.28,291.28L865.23,291.00L877.88,298.23L899.01,296.42L892.61,312.27L897.48,341.74L890.25,367.18L871.20,384.42L873.98,407.63L899.15,426.12L899.56,433.49L918.47,446.00L931.67,501.47L941.68,528.71L943.35,543.03L937.93,568.33L940.15,582.37L936.26,599.33L938.90,618.65L926.67,631.58L944.88,654.10L946.13,667.31L957.11,684.69L971.57,678.99L995.90,693.30L1009.52,712.63L903.59,771.57L814.21,832.18L770.56,845.94L736.36,849.00L736.08,829.40L721.63,824.39L702.44,815.50L695.07,801.04L590.95,733.62L486.69,666.20L370.48,591.41Z"/>
    <path class="land-core" d="M370.48,591.41L371.17,585.43L371.03,583.35L370.76,546.78L420.80,523.99L451.52,519.26L476.82,510.92L488.64,495.49L524.78,483.26L526.03,460.32L543.97,457.68L558.01,446.28L598.32,441.13L604.02,429.04L595.96,422.51L585.25,389.84L583.31,371.07L571.77,351.33L601.52,334.37L634.88,329.09L654.34,316.30L684.09,306.85L736.50,301.43L787.52,298.92L803.09,303.51L832.28,291.28L865.23,291.00L877.88,298.23L899.01,296.42L892.61,312.27L897.48,341.74L890.25,367.18L871.20,384.42L873.98,407.63L899.15,426.12L899.56,433.49L918.47,446.00L931.67,501.47L941.68,528.71L943.35,543.03L937.93,568.33L940.15,582.37L936.26,599.33L938.90,618.65L926.67,631.58L944.88,654.10L946.13,667.31L957.11,684.69L971.57,678.99L995.90,693.30L1009.52,712.63L903.59,771.57L814.21,832.18L770.56,845.94L736.36,849.00L736.08,829.40L721.63,824.39L702.44,815.50L695.07,801.04L590.95,733.62L486.69,666.20L370.48,591.41Z" fill-rule="evenodd"/>
  </g>
  <rect x="1370" y="305" width="610" height="132" rx="24" class="badge"/>
  <text x="1410" y="358" class="badge-text">Algeria / atlas outline</text>
  <text x="1410" y="398" class="footer">Primary atlas outline fitted for country-scale study.</text>
  <rect x="88" y="940" width="1924" height="382" rx="30" class="region-panel"/>
  <text x="132" y="998" class="region-heading">Study Region Index</text>
  <text x="132" y="1335" class="footer">Showing 5 of 5 study regions. Internal wine-region borders require an authoritative GIS layer before drawing.</text>
  
      <g class="region-row" transform="translate(135 1038)">
        <rect width="850" height="40" rx="13"/>
        <circle cx="26" cy="20" r="15"/>
        <text x="26" y="27" text-anchor="middle" class="region-number">1</text>
        <text x="54" y="28" class="region-name">Algeria Northern Corridor</text>
      </g>
      <g class="region-row" transform="translate(1045 1038)">
        <rect width="850" height="40" rx="13"/>
        <circle cx="26" cy="20" r="15"/>
        <text x="26" y="27" text-anchor="middle" class="region-number">2</text>
        <text x="54" y="28" class="region-name">Algeria Central Highlands</text>
      </g>
      <g class="region-row" transform="translate(135 1086)">
        <rect width="850" height="40" rx="13"/>
        <circle cx="26" cy="20" r="15"/>
        <text x="26" y="27" text-anchor="middle" class="region-number">3</text>
        <text x="54" y="28" class="region-name">Algeria River Valley Belt</text>
      </g>
      <g class="region-row" transform="translate(1045 1086)">
        <rect width="850" height="40" rx="13"/>
        <circle cx="26" cy="20" r="15"/>
        <text x="26" y="27" text-anchor="middle" class="region-number">4</text>
        <text x="54" y="28" class="region-name">Algeria Coastal Influence Zone</text>
      </g>
      <g class="region-row" transform="translate(135 1134)">
        <rect width="850" height="40" rx="13"/>
        <circle cx="26" cy="20" r="15"/>
        <text x="26" y="27" text-anchor="middle" class="region-number">5</text>
        <text x="54" y="28" class="region-name">Algeria Heritage District</text>
      </g>
</svg>
