<svg xmlns="http://www.w3.org/2000/svg" width="2100" height="1400" viewBox="0 0 2100 1400" role="img" aria-label="Ethiopia Wine Map">
  <defs>
    <linearGradient id="bg" x1="0" y1="0" x2="1" y2="1">
      <stop offset="0" stop-color="#04131f"/>
      <stop offset="0.48" stop-color="#082d33"/>
      <stop offset="1" stop-color="#171f25"/>
    </linearGradient>
    <radialGradient id="glowGold" cx="20%" cy="16%" r="70%">
      <stop offset="0" stop-color="#edd4a8" stop-opacity="0.36"/>
      <stop offset="1" stop-color="#edd4a8" stop-opacity="0"/>
    </radialGradient>
    <radialGradient id="glowCyan" cx="60%" cy="45%" r="70%">
      <stop offset="0" stop-color="#48e5dc" stop-opacity="0.22"/>
      <stop offset="1" stop-color="#48e5dc" stop-opacity="0"/>
    </radialGradient>
    <linearGradient id="land" x1="0" y1="0" x2="1" y2="1">
      <stop offset="0" stop-color="#fff0ce"/>
      <stop offset="0.44" stop-color="#c99a22"/>
      <stop offset="1" stop-color="#3dd7ca"/>
    </linearGradient>
    <filter id="softShadow" x="-20%" y="-20%" width="140%" height="140%">
      <feDropShadow dx="0" dy="28" stdDeviation="26" flood-color="#000816" flood-opacity="0.52"/>
      <feDropShadow dx="0" dy="0" stdDeviation="12" flood-color="#48e5dc" flood-opacity="0.22"/>
    </filter>
    <style>
      .frame { fill: none; stroke: rgba(159, 218, 245, 0.32); stroke-width: 2; }
      .grid { stroke: rgba(159, 218, 245, 0.14); stroke-width: 1; }
      .micro { fill: rgba(217, 247, 255, 0.64); font: 800 19px 'Trebuchet MS', Arial, sans-serif; letter-spacing: 8px; text-transform: uppercase; }
      .title { fill: #fff0ce; font: 900 66px 'Trebuchet MS', Arial, sans-serif; letter-spacing: -2px; }
      .subtitle { fill: rgba(217, 247, 255, 0.78); font: 800 25px 'Trebuchet MS', Arial, sans-serif; }
      .land-core { fill: url(#land); stroke: #fff0ce; stroke-width: 3; stroke-linejoin: round; filter: url(#softShadow); }
      .land-line { fill: none; stroke: rgba(4, 13, 24, 0.72); stroke-width: 10; opacity: 0.55; stroke-linejoin: round; }
      .contour { fill: none; stroke: rgba(237, 212, 168, 0.16); stroke-width: 3; stroke-linecap: round; }
      .region-panel { fill: rgba(5, 18, 28, 0.72); stroke: rgba(159, 218, 245, 0.28); stroke-width: 2; }
      .region-heading { fill: #fff0ce; font: 900 34px 'Trebuchet MS', Arial, sans-serif; letter-spacing: 5px; text-transform: uppercase; }
      .region-subheading { fill: rgba(217, 247, 255, 0.68); font: 700 22px 'Trebuchet MS', Arial, sans-serif; }
      .region-row rect { fill: rgba(4, 19, 31, 0.82); stroke: rgba(159, 218, 245, 0.38); stroke-width: 1.6; }
      .region-row circle { fill: rgba(237, 212, 168, 0.95); }
      .region-number { fill: #04131f; font: 900 18px 'Trebuchet MS', Arial, sans-serif; }
      .region-name { fill: #fff0ce; font: 900 31px 'Trebuchet MS', Arial, sans-serif; }
      .badge { fill: rgba(7, 35, 48, 0.88); stroke: rgba(237, 212, 168, 0.48); stroke-width: 1.5; }
      .badge-text { fill: #edd4a8; font: 900 18px 'Trebuchet MS', Arial, sans-serif; letter-spacing: 3px; text-transform: uppercase; }
      .footer { fill: rgba(217, 247, 255, 0.58); font: 700 18px 'Trebuchet MS', Arial, sans-serif; }
    </style>
  </defs>
  <rect width="2100" height="1400" fill="url(#bg)"/>
  <rect width="2100" height="1400" fill="url(#glowGold)"/>
  <rect width="2100" height="1400" fill="url(#glowCyan)"/>
  <line class="grid" x1="120" y1="0" x2="120" y2="1400"/><line class="grid" x1="240" y1="0" x2="240" y2="1400"/><line class="grid" x1="360" y1="0" x2="360" y2="1400"/><line class="grid" x1="480" y1="0" x2="480" y2="1400"/><line class="grid" x1="600" y1="0" x2="600" y2="1400"/><line class="grid" x1="720" y1="0" x2="720" y2="1400"/><line class="grid" x1="840" y1="0" x2="840" y2="1400"/><line class="grid" x1="960" y1="0" x2="960" y2="1400"/><line class="grid" x1="1080" y1="0" x2="1080" y2="1400"/><line class="grid" x1="1200" y1="0" x2="1200" y2="1400"/><line class="grid" x1="1320" y1="0" x2="1320" y2="1400"/><line class="grid" x1="1440" y1="0" x2="1440" y2="1400"/><line class="grid" x1="1560" y1="0" x2="1560" y2="1400"/><line class="grid" x1="1680" y1="0" x2="1680" y2="1400"/><line class="grid" x1="1800" y1="0" x2="1800" y2="1400"/>
  <line class="grid" x1="0" y1="180" x2="2100" y2="180"/><line class="grid" x1="0" y1="300" x2="2100" y2="300"/><line class="grid" x1="0" y1="420" x2="2100" y2="420"/><line class="grid" x1="0" y1="540" x2="2100" y2="540"/><line class="grid" x1="0" y1="660" x2="2100" y2="660"/><line class="grid" x1="0" y1="780" x2="2100" y2="780"/><line class="grid" x1="0" y1="900" x2="2100" y2="900"/><line class="grid" x1="0" y1="1020" x2="2100" y2="1020"/>
  <rect x="34" y="34" width="2032" height="1332" rx="42" class="frame"/>
  <text x="80" y="108" class="micro">Sip Studios Maps / Country Study Plate</text>
  <text x="80" y="185" class="title">Ethiopia Wine Map</text>
  <text x="84" y="232" class="subtitle">Africa / 5 study regions / Wine geography</text>
  <g opacity="0.9">
    <path class="contour" d="M134 303 C 390 231, 670 407, 922 320 S 1170 268, 1250 334"/><path class="contour" d="M134 408 C 390 336, 670 450, 922 394 S 1170 342, 1250 408"/><path class="contour" d="M134 449 C 390 377, 670 557, 922 468 S 1170 416, 1250 482"/><path class="contour" d="M134 554 C 390 482, 670 600, 922 542 S 1170 490, 1250 556"/><path class="contour" d="M134 595 C 390 523, 670 707, 922 616 S 1170 564, 1250 630"/><path class="contour" d="M134 700 C 390 628, 670 750, 922 690 S 1170 638, 1250 704"/><path class="contour" d="M134 741 C 390 669, 670 857, 922 764 S 1170 712, 1250 778"/><path class="contour" d="M134 846 C 390 774, 670 900, 922 838 S 1170 786, 1250 852"/>
    <path class="land-line" d="M1048.76,627.45L912.09,772.39L848.98,774.57L805.89,808.74L774.98,809.61L761.71,824.84L728.63,824.84L709.26,808.52L664.86,828.76L650.72,849.00L618.51,845.08L607.63,839.42L596.31,840.73L581.29,840.29L519.92,799.16L486.41,799.16L469.87,783.28L469.87,756.29L444.62,748.02L415.90,695.35L393.92,684.26L385.43,664.89L361.05,641.38L331.24,637.90L347.78,610.26L373.24,609.17L380.64,594.37L379.99,550.85L394.13,500.36L417.20,486.65L421.99,467.06L442.88,430.06L472.04,406.13L491.63,358.46L499.47,316.90L555.61,327.13L570.85,291.00L600.01,312.76L628.30,301.45L640.05,311.67L673.35,312.11L715.35,331.70L727.76,348.24L749.30,363.91L769.33,392.20L785.87,407.87L768.67,429.19L752.35,451.83L756.27,465.10L756.92,479.90L783.91,480.77L795.44,477.29L806.32,486.00L795.66,503.19L813.72,529.74L831.35,553.02L849.85,570.22L1008.06,627.67L1048.76,627.45Z"/>
    <path class="land-core" d="M1048.76,627.45L912.09,772.39L848.98,774.57L805.89,808.74L774.98,809.61L761.71,824.84L728.63,824.84L709.26,808.52L664.86,828.76L650.72,849.00L618.51,845.08L607.63,839.42L596.31,840.73L581.29,840.29L519.92,799.16L486.41,799.16L469.87,783.28L469.87,756.29L444.62,748.02L415.90,695.35L393.92,684.26L385.43,664.89L361.05,641.38L331.24,637.90L347.78,610.26L373.24,609.17L380.64,594.37L379.99,550.85L394.13,500.36L417.20,486.65L421.99,467.06L442.88,430.06L472.04,406.13L491.63,358.46L499.47,316.90L555.61,327.13L570.85,291.00L600.01,312.76L628.30,301.45L640.05,311.67L673.35,312.11L715.35,331.70L727.76,348.24L749.30,363.91L769.33,392.20L785.87,407.87L768.67,429.19L752.35,451.83L756.27,465.10L756.92,479.90L783.91,480.77L795.44,477.29L806.32,486.00L795.66,503.19L813.72,529.74L831.35,553.02L849.85,570.22L1008.06,627.67L1048.76,627.45Z" fill-rule="evenodd"/>
  </g>
  <rect x="1370" y="305" width="610" height="132" rx="24" class="badge"/>
  <text x="1410" y="358" class="badge-text">Ethiopia / atlas outline</text>
  <text x="1410" y="398" class="footer">Primary atlas outline fitted for country-scale study.</text>
  <rect x="88" y="940" width="1924" height="382" rx="30" class="region-panel"/>
  <text x="132" y="998" class="region-heading">Study Region Index</text>
  <text x="132" y="1335" class="footer">Showing 5 of 5 study regions. Internal wine-region borders require an authoritative GIS layer before drawing.</text>
  
      <g class="region-row" transform="translate(135 1038)">
        <rect width="850" height="40" rx="13"/>
        <circle cx="26" cy="20" r="15"/>
        <text x="26" y="27" text-anchor="middle" class="region-number">1</text>
        <text x="54" y="28" class="region-name">Ethiopia Northern Corridor</text>
      </g>
      <g class="region-row" transform="translate(1045 1038)">
        <rect width="850" height="40" rx="13"/>
        <circle cx="26" cy="20" r="15"/>
        <text x="26" y="27" text-anchor="middle" class="region-number">2</text>
        <text x="54" y="28" class="region-name">Ethiopia Central Highlands</text>
      </g>
      <g class="region-row" transform="translate(135 1086)">
        <rect width="850" height="40" rx="13"/>
        <circle cx="26" cy="20" r="15"/>
        <text x="26" y="27" text-anchor="middle" class="region-number">3</text>
        <text x="54" y="28" class="region-name">Ethiopia River Valley Belt</text>
      </g>
      <g class="region-row" transform="translate(1045 1086)">
        <rect width="850" height="40" rx="13"/>
        <circle cx="26" cy="20" r="15"/>
        <text x="26" y="27" text-anchor="middle" class="region-number">4</text>
        <text x="54" y="28" class="region-name">Ethiopia Coastal Influence Zone</text>
      </g>
      <g class="region-row" transform="translate(135 1134)">
        <rect width="850" height="40" rx="13"/>
        <circle cx="26" cy="20" r="15"/>
        <text x="26" y="27" text-anchor="middle" class="region-number">5</text>
        <text x="54" y="28" class="region-name">Ethiopia Heritage District</text>
      </g>
</svg>
