<svg xmlns="http://www.w3.org/2000/svg" width="2100" height="1400" viewBox="0 0 2100 1400" role="img" aria-label="South Africa Wine Map">
  <defs>
    <linearGradient id="bg" x1="0" y1="0" x2="1" y2="1">
      <stop offset="0" stop-color="#04131f"/>
      <stop offset="0.48" stop-color="#082d33"/>
      <stop offset="1" stop-color="#171f25"/>
    </linearGradient>
    <radialGradient id="glowGold" cx="20%" cy="16%" r="70%">
      <stop offset="0" stop-color="#edd4a8" stop-opacity="0.36"/>
      <stop offset="1" stop-color="#edd4a8" stop-opacity="0"/>
    </radialGradient>
    <radialGradient id="glowCyan" cx="60%" cy="45%" r="70%">
      <stop offset="0" stop-color="#48e5dc" stop-opacity="0.22"/>
      <stop offset="1" stop-color="#48e5dc" stop-opacity="0"/>
    </radialGradient>
    <linearGradient id="land" x1="0" y1="0" x2="1" y2="1">
      <stop offset="0" stop-color="#fff0ce"/>
      <stop offset="0.44" stop-color="#c99a22"/>
      <stop offset="1" stop-color="#3dd7ca"/>
    </linearGradient>
    <filter id="softShadow" x="-20%" y="-20%" width="140%" height="140%">
      <feDropShadow dx="0" dy="28" stdDeviation="26" flood-color="#000816" flood-opacity="0.52"/>
      <feDropShadow dx="0" dy="0" stdDeviation="12" flood-color="#48e5dc" flood-opacity="0.22"/>
    </filter>
    <style>
      .frame { fill: none; stroke: rgba(159, 218, 245, 0.32); stroke-width: 2; }
      .grid { stroke: rgba(159, 218, 245, 0.14); stroke-width: 1; }
      .micro { fill: rgba(217, 247, 255, 0.64); font: 800 19px 'Trebuchet MS', Arial, sans-serif; letter-spacing: 8px; text-transform: uppercase; }
      .title { fill: #fff0ce; font: 900 66px 'Trebuchet MS', Arial, sans-serif; letter-spacing: -2px; }
      .subtitle { fill: rgba(217, 247, 255, 0.78); font: 800 25px 'Trebuchet MS', Arial, sans-serif; }
      .land-core { fill: url(#land); stroke: #fff0ce; stroke-width: 3; stroke-linejoin: round; filter: url(#softShadow); }
      .land-line { fill: none; stroke: rgba(4, 13, 24, 0.72); stroke-width: 10; opacity: 0.55; stroke-linejoin: round; }
      .contour { fill: none; stroke: rgba(237, 212, 168, 0.16); stroke-width: 3; stroke-linecap: round; }
      .region-panel { fill: rgba(5, 18, 28, 0.72); stroke: rgba(159, 218, 245, 0.28); stroke-width: 2; }
      .region-heading { fill: #fff0ce; font: 900 34px 'Trebuchet MS', Arial, sans-serif; letter-spacing: 5px; text-transform: uppercase; }
      .region-subheading { fill: rgba(217, 247, 255, 0.68); font: 700 22px 'Trebuchet MS', Arial, sans-serif; }
      .region-row rect { fill: rgba(4, 19, 31, 0.82); stroke: rgba(159, 218, 245, 0.38); stroke-width: 1.6; }
      .region-row circle { fill: rgba(237, 212, 168, 0.95); }
      .region-number { fill: #04131f; font: 900 18px 'Trebuchet MS', Arial, sans-serif; }
      .region-name { fill: #fff0ce; font: 900 31px 'Trebuchet MS', Arial, sans-serif; }
      .badge { fill: rgba(7, 35, 48, 0.88); stroke: rgba(237, 212, 168, 0.48); stroke-width: 1.5; }
      .badge-text { fill: #edd4a8; font: 900 18px 'Trebuchet MS', Arial, sans-serif; letter-spacing: 3px; text-transform: uppercase; }
      .footer { fill: rgba(217, 247, 255, 0.58); font: 700 18px 'Trebuchet MS', Arial, sans-serif; }
    </style>
  </defs>
  <rect width="2100" height="1400" fill="url(#bg)"/>
  <rect width="2100" height="1400" fill="url(#glowGold)"/>
  <rect width="2100" height="1400" fill="url(#glowCyan)"/>
  <line class="grid" x1="120" y1="0" x2="120" y2="1400"/><line class="grid" x1="240" y1="0" x2="240" y2="1400"/><line class="grid" x1="360" y1="0" x2="360" y2="1400"/><line class="grid" x1="480" y1="0" x2="480" y2="1400"/><line class="grid" x1="600" y1="0" x2="600" y2="1400"/><line class="grid" x1="720" y1="0" x2="720" y2="1400"/><line class="grid" x1="840" y1="0" x2="840" y2="1400"/><line class="grid" x1="960" y1="0" x2="960" y2="1400"/><line class="grid" x1="1080" y1="0" x2="1080" y2="1400"/><line class="grid" x1="1200" y1="0" x2="1200" y2="1400"/><line class="grid" x1="1320" y1="0" x2="1320" y2="1400"/><line class="grid" x1="1440" y1="0" x2="1440" y2="1400"/><line class="grid" x1="1560" y1="0" x2="1560" y2="1400"/><line class="grid" x1="1680" y1="0" x2="1680" y2="1400"/><line class="grid" x1="1800" y1="0" x2="1800" y2="1400"/>
  <line class="grid" x1="0" y1="180" x2="2100" y2="180"/><line class="grid" x1="0" y1="300" x2="2100" y2="300"/><line class="grid" x1="0" y1="420" x2="2100" y2="420"/><line class="grid" x1="0" y1="540" x2="2100" y2="540"/><line class="grid" x1="0" y1="660" x2="2100" y2="660"/><line class="grid" x1="0" y1="780" x2="2100" y2="780"/><line class="grid" x1="0" y1="900" x2="2100" y2="900"/><line class="grid" x1="0" y1="1020" x2="2100" y2="1020"/>
  <rect x="34" y="34" width="2032" height="1332" rx="42" class="frame"/>
  <text x="80" y="108" class="micro">Sip Studios Maps / Country Study Plate</text>
  <text x="80" y="185" class="title">South Africa Wine Map</text>
  <text x="84" y="232" class="subtitle">Africa / 5 study regions / Wine geography</text>
  <g opacity="0.9">
    <path class="contour" d="M134 290 C 390 218, 670 420, 922 320 S 1170 268, 1250 334"/><path class="contour" d="M134 395 C 390 323, 670 463, 922 394 S 1170 342, 1250 408"/><path class="contour" d="M134 436 C 390 364, 670 570, 922 468 S 1170 416, 1250 482"/><path class="contour" d="M134 541 C 390 469, 670 613, 922 542 S 1170 490, 1250 556"/><path class="contour" d="M134 582 C 390 510, 670 720, 922 616 S 1170 564, 1250 630"/><path class="contour" d="M134 687 C 390 615, 670 763, 922 690 S 1170 638, 1250 704"/><path class="contour" d="M134 728 C 390 656, 670 870, 922 764 S 1170 712, 1250 778"/><path class="contour" d="M134 833 C 390 761, 670 913, 922 838 S 1170 786, 1250 852"/>
    <path class="land-line" d="M328.52,575.33L349.64,553.82L366.80,565.66L374.30,584.40L394.03,587.56L421.65,596.05L445.14,592.69L484.20,570.39L484.20,408.40L496.04,414.91L522.09,456.74L517.94,483.38L527.81,498.77L559.18,494.23L581.08,474.70L602.00,461.48L612.65,440.56L633.96,430.30L652.51,435.63L673.43,448.06L709.14,450.03L737.36,439.97L741.70,426.16L749.19,405.24L773.27,401.69L786.29,385.32L801.09,356.11L840.35,323.36L902.31,291.00L920.26,291.59L941.38,298.89L956.17,293.76L979.65,298.10L1000.57,359.86L1012.01,390.84L1004.12,439.77L1007.87,455.56L985.77,447.47L973.14,450.63L969.00,463.45L956.96,479.83L957.36,495.02L983.60,518.70L1009.25,514.16L1018.13,494.63L1051.48,495.02L1040.43,526.79L1035.30,563.29L1023.85,583.02L993.86,605.32L985.38,611.63L966.83,633.93L954.60,656.42L929.73,687.80L880.21,732.98L849.23,759.42L816.08,779.35L770.31,796.32L748.01,798.69L742.29,810.72L715.65,804.21L693.95,812.69L646.39,804.21L619.76,809.54L601.60,807.17L556.62,824.53L518.93,831.44L491.90,848.01L471.97,849.00L453.42,833.61L438.62,832.62L419.68,813.09L417.71,819.21L411.79,807.37L412.18,781.72L397.98,752.32L411.99,744.23L410.80,710.68L382.19,669.64L360.09,632.55L360.09,632.35L328.52,575.33ZM882.58,592.10L863.44,578.48L842.92,587.36L819.04,604.73L795.76,632.35L828.71,666.09L844.30,661.75L852.39,647.74L876.86,640.84L884.16,626.63L897.57,605.32L882.58,592.10Z"/>
    <path class="land-core" d="M328.52,575.33L349.64,553.82L366.80,565.66L374.30,584.40L394.03,587.56L421.65,596.05L445.14,592.69L484.20,570.39L484.20,408.40L496.04,414.91L522.09,456.74L517.94,483.38L527.81,498.77L559.18,494.23L581.08,474.70L602.00,461.48L612.65,440.56L633.96,430.30L652.51,435.63L673.43,448.06L709.14,450.03L737.36,439.97L741.70,426.16L749.19,405.24L773.27,401.69L786.29,385.32L801.09,356.11L840.35,323.36L902.31,291.00L920.26,291.59L941.38,298.89L956.17,293.76L979.65,298.10L1000.57,359.86L1012.01,390.84L1004.12,439.77L1007.87,455.56L985.77,447.47L973.14,450.63L969.00,463.45L956.96,479.83L957.36,495.02L983.60,518.70L1009.25,514.16L1018.13,494.63L1051.48,495.02L1040.43,526.79L1035.30,563.29L1023.85,583.02L993.86,605.32L985.38,611.63L966.83,633.93L954.60,656.42L929.73,687.80L880.21,732.98L849.23,759.42L816.08,779.35L770.31,796.32L748.01,798.69L742.29,810.72L715.65,804.21L693.95,812.69L646.39,804.21L619.76,809.54L601.60,807.17L556.62,824.53L518.93,831.44L491.90,848.01L471.97,849.00L453.42,833.61L438.62,832.62L419.68,813.09L417.71,819.21L411.79,807.37L412.18,781.72L397.98,752.32L411.99,744.23L410.80,710.68L382.19,669.64L360.09,632.55L360.09,632.35L328.52,575.33ZM882.58,592.10L863.44,578.48L842.92,587.36L819.04,604.73L795.76,632.35L828.71,666.09L844.30,661.75L852.39,647.74L876.86,640.84L884.16,626.63L897.57,605.32L882.58,592.10Z" fill-rule="evenodd"/>
  </g>
  <rect x="1370" y="305" width="610" height="132" rx="24" class="badge"/>
  <text x="1410" y="358" class="badge-text">South Africa / atlas outline</text>
  <text x="1410" y="398" class="footer">Primary atlas outline fitted for country-scale study.</text>
  <rect x="88" y="940" width="1924" height="382" rx="30" class="region-panel"/>
  <text x="132" y="998" class="region-heading">Study Region Index</text>
  <text x="132" y="1335" class="footer">Showing 5 of 5 study regions. Internal wine-region borders require an authoritative GIS layer before drawing.</text>
  
      <g class="region-row" transform="translate(135 1038)">
        <rect width="850" height="40" rx="13"/>
        <circle cx="26" cy="20" r="15"/>
        <text x="26" y="27" text-anchor="middle" class="region-number">1</text>
        <text x="54" y="28" class="region-name">Stellenbosch</text>
      </g>
      <g class="region-row" transform="translate(1045 1038)">
        <rect width="850" height="40" rx="13"/>
        <circle cx="26" cy="20" r="15"/>
        <text x="26" y="27" text-anchor="middle" class="region-number">2</text>
        <text x="54" y="28" class="region-name">Swartland</text>
      </g>
      <g class="region-row" transform="translate(135 1086)">
        <rect width="850" height="40" rx="13"/>
        <circle cx="26" cy="20" r="15"/>
        <text x="26" y="27" text-anchor="middle" class="region-number">3</text>
        <text x="54" y="28" class="region-name">Paarl</text>
      </g>
      <g class="region-row" transform="translate(1045 1086)">
        <rect width="850" height="40" rx="13"/>
        <circle cx="26" cy="20" r="15"/>
        <text x="26" y="27" text-anchor="middle" class="region-number">4</text>
        <text x="54" y="28" class="region-name">Walker Bay</text>
      </g>
      <g class="region-row" transform="translate(135 1134)">
        <rect width="850" height="40" rx="13"/>
        <circle cx="26" cy="20" r="15"/>
        <text x="26" y="27" text-anchor="middle" class="region-number">5</text>
        <text x="54" y="28" class="region-name">Constantia</text>
      </g>
</svg>
