<svg xmlns="http://www.w3.org/2000/svg" width="2100" height="1400" viewBox="0 0 2100 1400" role="img" aria-label="China Wine Map">
  <defs>
    <linearGradient id="bg" x1="0" y1="0" x2="1" y2="1">
      <stop offset="0" stop-color="#04131f"/>
      <stop offset="0.48" stop-color="#082d33"/>
      <stop offset="1" stop-color="#171f25"/>
    </linearGradient>
    <radialGradient id="glowGold" cx="20%" cy="16%" r="70%">
      <stop offset="0" stop-color="#edd4a8" stop-opacity="0.36"/>
      <stop offset="1" stop-color="#edd4a8" stop-opacity="0"/>
    </radialGradient>
    <radialGradient id="glowCyan" cx="60%" cy="45%" r="70%">
      <stop offset="0" stop-color="#48e5dc" stop-opacity="0.22"/>
      <stop offset="1" stop-color="#48e5dc" stop-opacity="0"/>
    </radialGradient>
    <linearGradient id="land" x1="0" y1="0" x2="1" y2="1">
      <stop offset="0" stop-color="#fff0ce"/>
      <stop offset="0.44" stop-color="#c99a22"/>
      <stop offset="1" stop-color="#3dd7ca"/>
    </linearGradient>
    <filter id="softShadow" x="-20%" y="-20%" width="140%" height="140%">
      <feDropShadow dx="0" dy="28" stdDeviation="26" flood-color="#000816" flood-opacity="0.52"/>
      <feDropShadow dx="0" dy="0" stdDeviation="12" flood-color="#48e5dc" flood-opacity="0.22"/>
    </filter>
    <style>
      .frame { fill: none; stroke: rgba(159, 218, 245, 0.32); stroke-width: 2; }
      .grid { stroke: rgba(159, 218, 245, 0.14); stroke-width: 1; }
      .micro { fill: rgba(217, 247, 255, 0.64); font: 800 19px 'Trebuchet MS', Arial, sans-serif; letter-spacing: 8px; text-transform: uppercase; }
      .title { fill: #fff0ce; font: 900 66px 'Trebuchet MS', Arial, sans-serif; letter-spacing: -2px; }
      .subtitle { fill: rgba(217, 247, 255, 0.78); font: 800 25px 'Trebuchet MS', Arial, sans-serif; }
      .land-core { fill: url(#land); stroke: #fff0ce; stroke-width: 3; stroke-linejoin: round; filter: url(#softShadow); }
      .land-line { fill: none; stroke: rgba(4, 13, 24, 0.72); stroke-width: 10; opacity: 0.55; stroke-linejoin: round; }
      .contour { fill: none; stroke: rgba(237, 212, 168, 0.16); stroke-width: 3; stroke-linecap: round; }
      .region-panel { fill: rgba(5, 18, 28, 0.72); stroke: rgba(159, 218, 245, 0.28); stroke-width: 2; }
      .region-heading { fill: #fff0ce; font: 900 34px 'Trebuchet MS', Arial, sans-serif; letter-spacing: 5px; text-transform: uppercase; }
      .region-subheading { fill: rgba(217, 247, 255, 0.68); font: 700 22px 'Trebuchet MS', Arial, sans-serif; }
      .region-row rect { fill: rgba(4, 19, 31, 0.82); stroke: rgba(159, 218, 245, 0.38); stroke-width: 1.6; }
      .region-row circle { fill: rgba(237, 212, 168, 0.95); }
      .region-number { fill: #04131f; font: 900 18px 'Trebuchet MS', Arial, sans-serif; }
      .region-name { fill: #fff0ce; font: 900 31px 'Trebuchet MS', Arial, sans-serif; }
      .badge { fill: rgba(7, 35, 48, 0.88); stroke: rgba(237, 212, 168, 0.48); stroke-width: 1.5; }
      .badge-text { fill: #edd4a8; font: 900 18px 'Trebuchet MS', Arial, sans-serif; letter-spacing: 3px; text-transform: uppercase; }
      .footer { fill: rgba(217, 247, 255, 0.58); font: 700 18px 'Trebuchet MS', Arial, sans-serif; }
    </style>
  </defs>
  <rect width="2100" height="1400" fill="url(#bg)"/>
  <rect width="2100" height="1400" fill="url(#glowGold)"/>
  <rect width="2100" height="1400" fill="url(#glowCyan)"/>
  <line class="grid" x1="120" y1="0" x2="120" y2="1400"/><line class="grid" x1="240" y1="0" x2="240" y2="1400"/><line class="grid" x1="360" y1="0" x2="360" y2="1400"/><line class="grid" x1="480" y1="0" x2="480" y2="1400"/><line class="grid" x1="600" y1="0" x2="600" y2="1400"/><line class="grid" x1="720" y1="0" x2="720" y2="1400"/><line class="grid" x1="840" y1="0" x2="840" y2="1400"/><line class="grid" x1="960" y1="0" x2="960" y2="1400"/><line class="grid" x1="1080" y1="0" x2="1080" y2="1400"/><line class="grid" x1="1200" y1="0" x2="1200" y2="1400"/><line class="grid" x1="1320" y1="0" x2="1320" y2="1400"/><line class="grid" x1="1440" y1="0" x2="1440" y2="1400"/><line class="grid" x1="1560" y1="0" x2="1560" y2="1400"/><line class="grid" x1="1680" y1="0" x2="1680" y2="1400"/><line class="grid" x1="1800" y1="0" x2="1800" y2="1400"/>
  <line class="grid" x1="0" y1="180" x2="2100" y2="180"/><line class="grid" x1="0" y1="300" x2="2100" y2="300"/><line class="grid" x1="0" y1="420" x2="2100" y2="420"/><line class="grid" x1="0" y1="540" x2="2100" y2="540"/><line class="grid" x1="0" y1="660" x2="2100" y2="660"/><line class="grid" x1="0" y1="780" x2="2100" y2="780"/><line class="grid" x1="0" y1="900" x2="2100" y2="900"/><line class="grid" x1="0" y1="1020" x2="2100" y2="1020"/>
  <rect x="34" y="34" width="2032" height="1332" rx="42" class="frame"/>
  <text x="80" y="108" class="micro">Sip Studios Maps / Country Study Plate</text>
  <text x="80" y="185" class="title">China Wine Map</text>
  <text x="84" y="232" class="subtitle">Asia / 5 study regions / Wine geography</text>
  <g opacity="0.9">
    <path class="contour" d="M134 287 C 390 215, 670 423, 922 320 S 1170 268, 1250 334"/><path class="contour" d="M134 392 C 390 320, 670 466, 922 394 S 1170 342, 1250 408"/><path class="contour" d="M134 433 C 390 361, 670 573, 922 468 S 1170 416, 1250 482"/><path class="contour" d="M134 538 C 390 466, 670 616, 922 542 S 1170 490, 1250 556"/><path class="contour" d="M134 643 C 390 571, 670 659, 922 616 S 1170 564, 1250 630"/><path class="contour" d="M134 684 C 390 612, 670 766, 922 690 S 1170 638, 1250 704"/><path class="contour" d="M134 789 C 390 717, 670 809, 922 764 S 1170 712, 1250 778"/><path class="contour" d="M134 830 C 390 758, 670 916, 922 838 S 1170 786, 1250 852"/>
    <path class="land-line" d="M771.07,849.00L758.04,844.09L757.61,830.49L765.45,823.29L782.75,818.88L791.79,819.23L795.35,825.29L788.38,832.27L784.74,841.38L771.07,849.00ZM308.78,466.82L307.50,457.77L318.32,453.64L304.08,426.16L335.41,419.89L343.60,416.33L354.99,387.99L386.33,393.19L395.16,386.07L395.94,370.19L409.04,368.69L421.08,358.15L427.34,356.87L431.47,367.91L444.72,376.31L467.29,382.22L478.26,394.97L472.13,413.48L477.83,420.32L496.63,423.02L517.92,425.30L537.08,435.13L546.83,436.91L554.10,451.44L563.35,460.84L580.80,460.48L613.49,464.04L634.49,461.83L650.09,464.18L673.51,473.80L692.67,473.80L699.65,478.71L718.16,470.24L743.66,464.75L767.44,464.11L785.88,458.56L797.28,450.08L808.32,444.74L805.75,439.54L800.70,433.49L809.03,423.24L817.86,424.66L834.16,427.87L849.97,419.53L874.04,413.41L885.65,402.87L896.76,398.38L919.83,396.32L932.29,398.10L934.00,392.47L919.69,381.37L907.01,376.31L894.76,382.22L879.17,379.73L870.27,381.72L866.14,375.24L877.39,359.43L885.08,347.54L904.02,353.45L926.38,343.48L926.17,336.50L940.48,319.77L949.31,314.64L949.10,305.95L940.41,302.18L953.44,294.28L973.09,291.43L994.17,291.00L1017.81,295.77L1031.70,301.54L1041.46,317.49L1047.44,324.33L1052.92,334.01L1058.83,349.53L1086.32,354.59L1105.05,365.84L1111.46,380.72L1135.52,380.72L1149.20,374.53L1175.40,369.83L1167.07,384.07L1160.95,389.84L1155.46,407.21L1144.85,422.60L1125.63,419.82L1112.10,425.37L1116.23,438.90L1113.95,457.63L1105.83,458.06L1105.97,466.10L1095.79,456.78L1089.45,465.61L1065.03,472.44L1067.52,480.77L1053.78,480.20L1046.30,475.22L1035.47,486.47L1018.03,495.02L1005.07,505.13L982.99,509.69L971.39,517.16L954.30,521.43L962.70,514.10L959.42,507.98L971.96,497.29L963.55,489.03L949.74,494.59L931.86,505.63L922.11,515.81L906.66,516.59L898.54,524.00L906.94,534.68L919.83,537.24L920.40,544.36L932.93,548.99L950.59,537.67L964.69,543.87L974.87,544.29L977.44,552.55L955.08,556.97L947.67,565.51L932.29,573.49L924.17,584.53L941.19,593.29L947.46,608.81L957.07,623.34L967.83,635.44L967.54,647.19L957.64,651.54L961.42,659.94L970.74,664.92L968.25,677.81L964.26,690.34L955.43,691.77L943.83,708.86L931.01,729.65L916.34,748.52L894.55,763.12L872.55,776.44L854.74,778.29L845.06,785.27L839.58,780.14L830.67,788.04L808.53,795.95L791.79,798.37L786.38,815.10L777.62,816.03L773.42,804.49L777.20,798.44L755.98,793.39L748.50,795.95L732.55,791.82L725.00,785.34L727.56,776.29L713.04,773.38L705.42,767.39L691.96,775.87L676.58,777.72L663.97,777.58L655.50,781.49L647.24,783.77L649.66,801.93L641.26,801.50L639.83,797.73L639.26,791.18L627.73,795.81L620.82,792.89L609.07,786.98L613.70,773.80L603.66,770.74L599.96,756.21L583.22,758.78L585.14,740.05L600.10,726.80L600.74,713.77L600.24,701.67L593.40,697.89L588.06,688.56L578.88,689.77L561.79,687.35L567.13,680.73L559.72,670.90L548.40,677.60L535.15,673.68L516.85,683.72L502.54,695.54L489.72,697.47L482.82,693.26L474.41,692.84L463.16,689.21L454.62,693.19L444.15,704.94L442.80,692.48L433.11,695.83L414.67,694.33L396.79,690.70L383.98,683.72L371.66,680.59L366.39,672.97L357.41,670.76L341.46,660.44L328.79,655.52L322.24,659.30L300.23,648.26L284.64,638.22L280.22,620.84L291.62,622.91L292.12,614.86L285.78,606.74L287.42,593.86L270.40,575.34L244.40,568.93L239.70,556.75L228.03,549.35L225.18,544.86L222.83,535.82L223.40,529.62L213.71,526.06L208.59,527.63L204.60,513.03L209.08,509.40L206.88,505.70L221.97,498.22L232.94,495.09L249.67,497.22L255.66,487.11L275.95,485.26L281.58,478.99L306.57,470.38L308.78,466.82Z"/>
    <path class="land-core" d="M771.07,849.00L758.04,844.09L757.61,830.49L765.45,823.29L782.75,818.88L791.79,819.23L795.35,825.29L788.38,832.27L784.74,841.38L771.07,849.00ZM308.78,466.82L307.50,457.77L318.32,453.64L304.08,426.16L335.41,419.89L343.60,416.33L354.99,387.99L386.33,393.19L395.16,386.07L395.94,370.19L409.04,368.69L421.08,358.15L427.34,356.87L431.47,367.91L444.72,376.31L467.29,382.22L478.26,394.97L472.13,413.48L477.83,420.32L496.63,423.02L517.92,425.30L537.08,435.13L546.83,436.91L554.10,451.44L563.35,460.84L580.80,460.48L613.49,464.04L634.49,461.83L650.09,464.18L673.51,473.80L692.67,473.80L699.65,478.71L718.16,470.24L743.66,464.75L767.44,464.11L785.88,458.56L797.28,450.08L808.32,444.74L805.75,439.54L800.70,433.49L809.03,423.24L817.86,424.66L834.16,427.87L849.97,419.53L874.04,413.41L885.65,402.87L896.76,398.38L919.83,396.32L932.29,398.10L934.00,392.47L919.69,381.37L907.01,376.31L894.76,382.22L879.17,379.73L870.27,381.72L866.14,375.24L877.39,359.43L885.08,347.54L904.02,353.45L926.38,343.48L926.17,336.50L940.48,319.77L949.31,314.64L949.10,305.95L940.41,302.18L953.44,294.28L973.09,291.43L994.17,291.00L1017.81,295.77L1031.70,301.54L1041.46,317.49L1047.44,324.33L1052.92,334.01L1058.83,349.53L1086.32,354.59L1105.05,365.84L1111.46,380.72L1135.52,380.72L1149.20,374.53L1175.40,369.83L1167.07,384.07L1160.95,389.84L1155.46,407.21L1144.85,422.60L1125.63,419.82L1112.10,425.37L1116.23,438.90L1113.95,457.63L1105.83,458.06L1105.97,466.10L1095.79,456.78L1089.45,465.61L1065.03,472.44L1067.52,480.77L1053.78,480.20L1046.30,475.22L1035.47,486.47L1018.03,495.02L1005.07,505.13L982.99,509.69L971.39,517.16L954.30,521.43L962.70,514.10L959.42,507.98L971.96,497.29L963.55,489.03L949.74,494.59L931.86,505.63L922.11,515.81L906.66,516.59L898.54,524.00L906.94,534.68L919.83,537.24L920.40,544.36L932.93,548.99L950.59,537.67L964.69,543.87L974.87,544.29L977.44,552.55L955.08,556.97L947.67,565.51L932.29,573.49L924.17,584.53L941.19,593.29L947.46,608.81L957.07,623.34L967.83,635.44L967.54,647.19L957.64,651.54L961.42,659.94L970.74,664.92L968.25,677.81L964.26,690.34L955.43,691.77L943.83,708.86L931.01,729.65L916.34,748.52L894.55,763.12L872.55,776.44L854.74,778.29L845.06,785.27L839.58,780.14L830.67,788.04L808.53,795.95L791.79,798.37L786.38,815.10L777.62,816.03L773.42,804.49L777.20,798.44L755.98,793.39L748.50,795.95L732.55,791.82L725.00,785.34L727.56,776.29L713.04,773.38L705.42,767.39L691.96,775.87L676.58,777.72L663.97,777.58L655.50,781.49L647.24,783.77L649.66,801.93L641.26,801.50L639.83,797.73L639.26,791.18L627.73,795.81L620.82,792.89L609.07,786.98L613.70,773.80L603.66,770.74L599.96,756.21L583.22,758.78L585.14,740.05L600.10,726.80L600.74,713.77L600.24,701.67L593.40,697.89L588.06,688.56L578.88,689.77L561.79,687.35L567.13,680.73L559.72,670.90L548.40,677.60L535.15,673.68L516.85,683.72L502.54,695.54L489.72,697.47L482.82,693.26L474.41,692.84L463.16,689.21L454.62,693.19L444.15,704.94L442.80,692.48L433.11,695.83L414.67,694.33L396.79,690.70L383.98,683.72L371.66,680.59L366.39,672.97L357.41,670.76L341.46,660.44L328.79,655.52L322.24,659.30L300.23,648.26L284.64,638.22L280.22,620.84L291.62,622.91L292.12,614.86L285.78,606.74L287.42,593.86L270.40,575.34L244.40,568.93L239.70,556.75L228.03,549.35L225.18,544.86L222.83,535.82L223.40,529.62L213.71,526.06L208.59,527.63L204.60,513.03L209.08,509.40L206.88,505.70L221.97,498.22L232.94,495.09L249.67,497.22L255.66,487.11L275.95,485.26L281.58,478.99L306.57,470.38L308.78,466.82Z" fill-rule="evenodd"/>
  </g>
  <rect x="1370" y="305" width="610" height="132" rx="24" class="badge"/>
  <text x="1410" y="358" class="badge-text">China / atlas outline</text>
  <text x="1410" y="398" class="footer">Primary atlas outline fitted for country-scale study.</text>
  <rect x="88" y="940" width="1924" height="382" rx="30" class="region-panel"/>
  <text x="132" y="998" class="region-heading">Study Region Index</text>
  <text x="132" y="1335" class="footer">Showing 5 of 5 study regions. Internal wine-region borders require an authoritative GIS layer before drawing.</text>
  
      <g class="region-row" transform="translate(135 1038)">
        <rect width="850" height="40" rx="13"/>
        <circle cx="26" cy="20" r="15"/>
        <text x="26" y="27" text-anchor="middle" class="region-number">1</text>
        <text x="54" y="28" class="region-name">Ningxia</text>
      </g>
      <g class="region-row" transform="translate(1045 1038)">
        <rect width="850" height="40" rx="13"/>
        <circle cx="26" cy="20" r="15"/>
        <text x="26" y="27" text-anchor="middle" class="region-number">2</text>
        <text x="54" y="28" class="region-name">Shandong</text>
      </g>
      <g class="region-row" transform="translate(135 1086)">
        <rect width="850" height="40" rx="13"/>
        <circle cx="26" cy="20" r="15"/>
        <text x="26" y="27" text-anchor="middle" class="region-number">3</text>
        <text x="54" y="28" class="region-name">Xinjiang</text>
      </g>
      <g class="region-row" transform="translate(1045 1086)">
        <rect width="850" height="40" rx="13"/>
        <circle cx="26" cy="20" r="15"/>
        <text x="26" y="27" text-anchor="middle" class="region-number">4</text>
        <text x="54" y="28" class="region-name">Hebei</text>
      </g>
      <g class="region-row" transform="translate(135 1134)">
        <rect width="850" height="40" rx="13"/>
        <circle cx="26" cy="20" r="15"/>
        <text x="26" y="27" text-anchor="middle" class="region-number">5</text>
        <text x="54" y="28" class="region-name">Yunnan</text>
      </g>
</svg>
