<svg xmlns="http://www.w3.org/2000/svg" width="2100" height="1400" viewBox="0 0 2100 1400" role="img" aria-label="India Wine Map">
  <defs>
    <linearGradient id="bg" x1="0" y1="0" x2="1" y2="1">
      <stop offset="0" stop-color="#04131f"/>
      <stop offset="0.48" stop-color="#082d33"/>
      <stop offset="1" stop-color="#171f25"/>
    </linearGradient>
    <radialGradient id="glowGold" cx="20%" cy="16%" r="70%">
      <stop offset="0" stop-color="#edd4a8" stop-opacity="0.36"/>
      <stop offset="1" stop-color="#edd4a8" stop-opacity="0"/>
    </radialGradient>
    <radialGradient id="glowCyan" cx="60%" cy="45%" r="70%">
      <stop offset="0" stop-color="#48e5dc" stop-opacity="0.22"/>
      <stop offset="1" stop-color="#48e5dc" stop-opacity="0"/>
    </radialGradient>
    <linearGradient id="land" x1="0" y1="0" x2="1" y2="1">
      <stop offset="0" stop-color="#fff0ce"/>
      <stop offset="0.44" stop-color="#c99a22"/>
      <stop offset="1" stop-color="#3dd7ca"/>
    </linearGradient>
    <filter id="softShadow" x="-20%" y="-20%" width="140%" height="140%">
      <feDropShadow dx="0" dy="28" stdDeviation="26" flood-color="#000816" flood-opacity="0.52"/>
      <feDropShadow dx="0" dy="0" stdDeviation="12" flood-color="#48e5dc" flood-opacity="0.22"/>
    </filter>
    <style>
      .frame { fill: none; stroke: rgba(159, 218, 245, 0.32); stroke-width: 2; }
      .grid { stroke: rgba(159, 218, 245, 0.14); stroke-width: 1; }
      .micro { fill: rgba(217, 247, 255, 0.64); font: 800 19px 'Trebuchet MS', Arial, sans-serif; letter-spacing: 8px; text-transform: uppercase; }
      .title { fill: #fff0ce; font: 900 66px 'Trebuchet MS', Arial, sans-serif; letter-spacing: -2px; }
      .subtitle { fill: rgba(217, 247, 255, 0.78); font: 800 25px 'Trebuchet MS', Arial, sans-serif; }
      .land-core { fill: url(#land); stroke: #fff0ce; stroke-width: 3; stroke-linejoin: round; filter: url(#softShadow); }
      .land-line { fill: none; stroke: rgba(4, 13, 24, 0.72); stroke-width: 10; opacity: 0.55; stroke-linejoin: round; }
      .contour { fill: none; stroke: rgba(237, 212, 168, 0.16); stroke-width: 3; stroke-linecap: round; }
      .region-panel { fill: rgba(5, 18, 28, 0.72); stroke: rgba(159, 218, 245, 0.28); stroke-width: 2; }
      .region-heading { fill: #fff0ce; font: 900 34px 'Trebuchet MS', Arial, sans-serif; letter-spacing: 5px; text-transform: uppercase; }
      .region-subheading { fill: rgba(217, 247, 255, 0.68); font: 700 22px 'Trebuchet MS', Arial, sans-serif; }
      .region-row rect { fill: rgba(4, 19, 31, 0.82); stroke: rgba(159, 218, 245, 0.38); stroke-width: 1.6; }
      .region-row circle { fill: rgba(237, 212, 168, 0.95); }
      .region-number { fill: #04131f; font: 900 18px 'Trebuchet MS', Arial, sans-serif; }
      .region-name { fill: #fff0ce; font: 900 31px 'Trebuchet MS', Arial, sans-serif; }
      .badge { fill: rgba(7, 35, 48, 0.88); stroke: rgba(237, 212, 168, 0.48); stroke-width: 1.5; }
      .badge-text { fill: #edd4a8; font: 900 18px 'Trebuchet MS', Arial, sans-serif; letter-spacing: 3px; text-transform: uppercase; }
      .footer { fill: rgba(217, 247, 255, 0.58); font: 700 18px 'Trebuchet MS', Arial, sans-serif; }
    </style>
  </defs>
  <rect width="2100" height="1400" fill="url(#bg)"/>
  <rect width="2100" height="1400" fill="url(#glowGold)"/>
  <rect width="2100" height="1400" fill="url(#glowCyan)"/>
  <line class="grid" x1="120" y1="0" x2="120" y2="1400"/><line class="grid" x1="240" y1="0" x2="240" y2="1400"/><line class="grid" x1="360" y1="0" x2="360" y2="1400"/><line class="grid" x1="480" y1="0" x2="480" y2="1400"/><line class="grid" x1="600" y1="0" x2="600" y2="1400"/><line class="grid" x1="720" y1="0" x2="720" y2="1400"/><line class="grid" x1="840" y1="0" x2="840" y2="1400"/><line class="grid" x1="960" y1="0" x2="960" y2="1400"/><line class="grid" x1="1080" y1="0" x2="1080" y2="1400"/><line class="grid" x1="1200" y1="0" x2="1200" y2="1400"/><line class="grid" x1="1320" y1="0" x2="1320" y2="1400"/><line class="grid" x1="1440" y1="0" x2="1440" y2="1400"/><line class="grid" x1="1560" y1="0" x2="1560" y2="1400"/><line class="grid" x1="1680" y1="0" x2="1680" y2="1400"/><line class="grid" x1="1800" y1="0" x2="1800" y2="1400"/>
  <line class="grid" x1="0" y1="180" x2="2100" y2="180"/><line class="grid" x1="0" y1="300" x2="2100" y2="300"/><line class="grid" x1="0" y1="420" x2="2100" y2="420"/><line class="grid" x1="0" y1="540" x2="2100" y2="540"/><line class="grid" x1="0" y1="660" x2="2100" y2="660"/><line class="grid" x1="0" y1="780" x2="2100" y2="780"/><line class="grid" x1="0" y1="900" x2="2100" y2="900"/><line class="grid" x1="0" y1="1020" x2="2100" y2="1020"/>
  <rect x="34" y="34" width="2032" height="1332" rx="42" class="frame"/>
  <text x="80" y="108" class="micro">Sip Studios Maps / Country Study Plate</text>
  <text x="80" y="185" class="title">India Wine Map</text>
  <text x="84" y="232" class="subtitle">Asia / 5 study regions / Wine geography</text>
  <g opacity="0.9">
    <path class="contour" d="M134 289 C 390 217, 670 421, 922 320 S 1170 268, 1250 334"/><path class="contour" d="M134 394 C 390 322, 670 464, 922 394 S 1170 342, 1250 408"/><path class="contour" d="M134 435 C 390 363, 670 571, 922 468 S 1170 416, 1250 482"/><path class="contour" d="M134 540 C 390 468, 670 614, 922 542 S 1170 490, 1250 556"/><path class="contour" d="M134 581 C 390 509, 670 721, 922 616 S 1170 564, 1250 630"/><path class="contour" d="M134 686 C 390 614, 670 764, 922 690 S 1170 638, 1250 704"/><path class="contour" d="M134 791 C 390 719, 670 807, 922 764 S 1170 712, 1250 778"/><path class="contour" d="M134 832 C 390 760, 670 914, 922 838 S 1170 786, 1250 852"/>
    <path class="land-line" d="M984.78,437.59L986.24,445.26L979.13,449.00L980.77,461.49L966.26,457.75L940.08,471.80L940.63,483.39L929.50,500.35L928.50,510.30L919.47,526.99L903.59,522.34L902.77,543.32L898.21,550.25L900.40,558.83L890.37,563.66L879.69,531.55L874.13,531.55L870.75,544.50L859.63,534.01L865.92,522.52L874.95,521.33L884.35,504.18L872.67,500.72L853.88,500.99L834.54,498.16L832.81,484.12L823.14,483.11L807.08,474.35L799.88,488.13L814.47,498.80L801.88,506.37L797.32,513.76L809.82,519.24L806.35,531.46L813.38,546.69L816.57,563.39L813.65,570.78L799.88,570.50L774.88,574.70L776.07,589.93L765.21,601.97L736.02,615.56L713.31,639.46L698.07,652.24L677.91,665.55L677.91,674.86L667.79,679.88L649.45,687.08L640.06,688.18L633.94,703.59L638.14,729.96L639.24,746.83L630.66,766.08L630.57,800.47L620.08,801.47L610.87,816.98L616.98,823.64L598.55,829.39L591.80,843.16L583.59,849.00L564.43,830.03L555.04,801.66L547.28,781.22L540.17,771.64L529.41,752.12L524.30,726.76L520.83,714.18L502.40,686.35L494.01,647.04L487.90,621.13L487.99,596.50L484.07,577.53L454.60,589.66L440.28,587.29L413.83,562.66L423.59,555.36L417.57,547.42L393.76,530.18L407.26,516.68L451.96,516.68L447.85,499.35L436.45,489.04L434.17,473.44L420.94,464.32L443.29,443.07L466.83,444.62L487.99,423.36L500.67,402.84L520.37,382.49L520.10,367.99L537.34,356.31L521.01,346.28L513.99,332.51L506.78,314.81L516.73,306.05L547.47,310.98L570.09,307.97L589.61,291.00L611.41,314.72L609.31,331.23L617.43,341.63L616.79,351.94L602.20,349.29L607.86,371.55L627.83,384.41L656.02,398.55L643.16,407.76L635.22,426.74L654.93,434.40L673.99,444.34L700.44,455.75L728.27,458.39L739.94,468.70L755.63,470.61L779.99,475.36L796.87,474.99L799.15,466.97L796.50,454.10L798.05,445.35L810.46,441.06L812.19,457.02L812.56,461.13L830.98,468.79L843.75,465.69L860.81,466.97L877.41,466.42L878.87,454.01L870.57,447.44L886.99,444.98L905.33,429.84L928.77,416.98L945.74,421.99L960.24,413.42L969.73,426.01L962.89,434.49L984.78,437.59Z"/>
    <path class="land-core" d="M984.78,437.59L986.24,445.26L979.13,449.00L980.77,461.49L966.26,457.75L940.08,471.80L940.63,483.39L929.50,500.35L928.50,510.30L919.47,526.99L903.59,522.34L902.77,543.32L898.21,550.25L900.40,558.83L890.37,563.66L879.69,531.55L874.13,531.55L870.75,544.50L859.63,534.01L865.92,522.52L874.95,521.33L884.35,504.18L872.67,500.72L853.88,500.99L834.54,498.16L832.81,484.12L823.14,483.11L807.08,474.35L799.88,488.13L814.47,498.80L801.88,506.37L797.32,513.76L809.82,519.24L806.35,531.46L813.38,546.69L816.57,563.39L813.65,570.78L799.88,570.50L774.88,574.70L776.07,589.93L765.21,601.97L736.02,615.56L713.31,639.46L698.07,652.24L677.91,665.55L677.91,674.86L667.79,679.88L649.45,687.08L640.06,688.18L633.94,703.59L638.14,729.96L639.24,746.83L630.66,766.08L630.57,800.47L620.08,801.47L610.87,816.98L616.98,823.64L598.55,829.39L591.80,843.16L583.59,849.00L564.43,830.03L555.04,801.66L547.28,781.22L540.17,771.64L529.41,752.12L524.30,726.76L520.83,714.18L502.40,686.35L494.01,647.04L487.90,621.13L487.99,596.50L484.07,577.53L454.60,589.66L440.28,587.29L413.83,562.66L423.59,555.36L417.57,547.42L393.76,530.18L407.26,516.68L451.96,516.68L447.85,499.35L436.45,489.04L434.17,473.44L420.94,464.32L443.29,443.07L466.83,444.62L487.99,423.36L500.67,402.84L520.37,382.49L520.10,367.99L537.34,356.31L521.01,346.28L513.99,332.51L506.78,314.81L516.73,306.05L547.47,310.98L570.09,307.97L589.61,291.00L611.41,314.72L609.31,331.23L617.43,341.63L616.79,351.94L602.20,349.29L607.86,371.55L627.83,384.41L656.02,398.55L643.16,407.76L635.22,426.74L654.93,434.40L673.99,444.34L700.44,455.75L728.27,458.39L739.94,468.70L755.63,470.61L779.99,475.36L796.87,474.99L799.15,466.97L796.50,454.10L798.05,445.35L810.46,441.06L812.19,457.02L812.56,461.13L830.98,468.79L843.75,465.69L860.81,466.97L877.41,466.42L878.87,454.01L870.57,447.44L886.99,444.98L905.33,429.84L928.77,416.98L945.74,421.99L960.24,413.42L969.73,426.01L962.89,434.49L984.78,437.59Z" fill-rule="evenodd"/>
  </g>
  <rect x="1370" y="305" width="610" height="132" rx="24" class="badge"/>
  <text x="1410" y="358" class="badge-text">India / atlas outline</text>
  <text x="1410" y="398" class="footer">Primary atlas outline fitted for country-scale study.</text>
  <rect x="88" y="940" width="1924" height="382" rx="30" class="region-panel"/>
  <text x="132" y="998" class="region-heading">Study Region Index</text>
  <text x="132" y="1335" class="footer">Showing 5 of 5 study regions. Internal wine-region borders require an authoritative GIS layer before drawing.</text>
  
      <g class="region-row" transform="translate(135 1038)">
        <rect width="850" height="40" rx="13"/>
        <circle cx="26" cy="20" r="15"/>
        <text x="26" y="27" text-anchor="middle" class="region-number">1</text>
        <text x="54" y="28" class="region-name">India Northern Corridor</text>
      </g>
      <g class="region-row" transform="translate(1045 1038)">
        <rect width="850" height="40" rx="13"/>
        <circle cx="26" cy="20" r="15"/>
        <text x="26" y="27" text-anchor="middle" class="region-number">2</text>
        <text x="54" y="28" class="region-name">India Central Highlands</text>
      </g>
      <g class="region-row" transform="translate(135 1086)">
        <rect width="850" height="40" rx="13"/>
        <circle cx="26" cy="20" r="15"/>
        <text x="26" y="27" text-anchor="middle" class="region-number">3</text>
        <text x="54" y="28" class="region-name">India River Valley Belt</text>
      </g>
      <g class="region-row" transform="translate(1045 1086)">
        <rect width="850" height="40" rx="13"/>
        <circle cx="26" cy="20" r="15"/>
        <text x="26" y="27" text-anchor="middle" class="region-number">4</text>
        <text x="54" y="28" class="region-name">India Coastal Influence Zone</text>
      </g>
      <g class="region-row" transform="translate(135 1134)">
        <rect width="850" height="40" rx="13"/>
        <circle cx="26" cy="20" r="15"/>
        <text x="26" y="27" text-anchor="middle" class="region-number">5</text>
        <text x="54" y="28" class="region-name">India Heritage District</text>
      </g>
</svg>
