<svg xmlns="http://www.w3.org/2000/svg" width="2100" height="1400" viewBox="0 0 2100 1400" role="img" aria-label="Australia Wine Map">
  <defs>
    <linearGradient id="bg" x1="0" y1="0" x2="1" y2="1">
      <stop offset="0" stop-color="#04131f"/>
      <stop offset="0.48" stop-color="#082d33"/>
      <stop offset="1" stop-color="#171f25"/>
    </linearGradient>
    <radialGradient id="glowGold" cx="20%" cy="16%" r="70%">
      <stop offset="0" stop-color="#edd4a8" stop-opacity="0.36"/>
      <stop offset="1" stop-color="#edd4a8" stop-opacity="0"/>
    </radialGradient>
    <radialGradient id="glowCyan" cx="60%" cy="45%" r="70%">
      <stop offset="0" stop-color="#48e5dc" stop-opacity="0.22"/>
      <stop offset="1" stop-color="#48e5dc" stop-opacity="0"/>
    </radialGradient>
    <linearGradient id="land" x1="0" y1="0" x2="1" y2="1">
      <stop offset="0" stop-color="#fff0ce"/>
      <stop offset="0.44" stop-color="#c99a22"/>
      <stop offset="1" stop-color="#3dd7ca"/>
    </linearGradient>
    <filter id="softShadow" x="-20%" y="-20%" width="140%" height="140%">
      <feDropShadow dx="0" dy="28" stdDeviation="26" flood-color="#000816" flood-opacity="0.52"/>
      <feDropShadow dx="0" dy="0" stdDeviation="12" flood-color="#48e5dc" flood-opacity="0.22"/>
    </filter>
    <style>
      .frame { fill: none; stroke: rgba(159, 218, 245, 0.32); stroke-width: 2; }
      .grid { stroke: rgba(159, 218, 245, 0.14); stroke-width: 1; }
      .micro { fill: rgba(217, 247, 255, 0.64); font: 800 19px 'Trebuchet MS', Arial, sans-serif; letter-spacing: 8px; text-transform: uppercase; }
      .title { fill: #fff0ce; font: 900 66px 'Trebuchet MS', Arial, sans-serif; letter-spacing: -2px; }
      .subtitle { fill: rgba(217, 247, 255, 0.78); font: 800 25px 'Trebuchet MS', Arial, sans-serif; }
      .land-core { fill: url(#land); stroke: #fff0ce; stroke-width: 3; stroke-linejoin: round; filter: url(#softShadow); }
      .land-line { fill: none; stroke: rgba(4, 13, 24, 0.72); stroke-width: 10; opacity: 0.55; stroke-linejoin: round; }
      .contour { fill: none; stroke: rgba(237, 212, 168, 0.16); stroke-width: 3; stroke-linecap: round; }
      .region-panel { fill: rgba(5, 18, 28, 0.72); stroke: rgba(159, 218, 245, 0.28); stroke-width: 2; }
      .region-heading { fill: #fff0ce; font: 900 34px 'Trebuchet MS', Arial, sans-serif; letter-spacing: 5px; text-transform: uppercase; }
      .region-subheading { fill: rgba(217, 247, 255, 0.68); font: 700 22px 'Trebuchet MS', Arial, sans-serif; }
      .region-row rect { fill: rgba(4, 19, 31, 0.82); stroke: rgba(159, 218, 245, 0.38); stroke-width: 1.6; }
      .region-row circle { fill: rgba(237, 212, 168, 0.95); }
      .region-number { fill: #04131f; font: 900 18px 'Trebuchet MS', Arial, sans-serif; }
      .region-name { fill: #fff0ce; font: 900 31px 'Trebuchet MS', Arial, sans-serif; }
      .badge { fill: rgba(7, 35, 48, 0.88); stroke: rgba(237, 212, 168, 0.48); stroke-width: 1.5; }
      .badge-text { fill: #edd4a8; font: 900 18px 'Trebuchet MS', Arial, sans-serif; letter-spacing: 3px; text-transform: uppercase; }
      .footer { fill: rgba(217, 247, 255, 0.58); font: 700 18px 'Trebuchet MS', Arial, sans-serif; }
    </style>
  </defs>
  <rect width="2100" height="1400" fill="url(#bg)"/>
  <rect width="2100" height="1400" fill="url(#glowGold)"/>
  <rect width="2100" height="1400" fill="url(#glowCyan)"/>
  <line class="grid" x1="120" y1="0" x2="120" y2="1400"/><line class="grid" x1="240" y1="0" x2="240" y2="1400"/><line class="grid" x1="360" y1="0" x2="360" y2="1400"/><line class="grid" x1="480" y1="0" x2="480" y2="1400"/><line class="grid" x1="600" y1="0" x2="600" y2="1400"/><line class="grid" x1="720" y1="0" x2="720" y2="1400"/><line class="grid" x1="840" y1="0" x2="840" y2="1400"/><line class="grid" x1="960" y1="0" x2="960" y2="1400"/><line class="grid" x1="1080" y1="0" x2="1080" y2="1400"/><line class="grid" x1="1200" y1="0" x2="1200" y2="1400"/><line class="grid" x1="1320" y1="0" x2="1320" y2="1400"/><line class="grid" x1="1440" y1="0" x2="1440" y2="1400"/><line class="grid" x1="1560" y1="0" x2="1560" y2="1400"/><line class="grid" x1="1680" y1="0" x2="1680" y2="1400"/><line class="grid" x1="1800" y1="0" x2="1800" y2="1400"/>
  <line class="grid" x1="0" y1="180" x2="2100" y2="180"/><line class="grid" x1="0" y1="300" x2="2100" y2="300"/><line class="grid" x1="0" y1="420" x2="2100" y2="420"/><line class="grid" x1="0" y1="540" x2="2100" y2="540"/><line class="grid" x1="0" y1="660" x2="2100" y2="660"/><line class="grid" x1="0" y1="780" x2="2100" y2="780"/><line class="grid" x1="0" y1="900" x2="2100" y2="900"/><line class="grid" x1="0" y1="1020" x2="2100" y2="1020"/>
  <rect x="34" y="34" width="2032" height="1332" rx="42" class="frame"/>
  <text x="80" y="108" class="micro">Sip Studios Maps / Country Study Plate</text>
  <text x="80" y="185" class="title">Australia Wine Map</text>
  <text x="84" y="232" class="subtitle">Oceania / 5 study regions / Wine geography</text>
  <g opacity="0.9">
    <path class="contour" d="M134 290 C 390 218, 670 420, 922 320 S 1170 268, 1250 334"/><path class="contour" d="M134 395 C 390 323, 670 463, 922 394 S 1170 342, 1250 408"/><path class="contour" d="M134 436 C 390 364, 670 570, 922 468 S 1170 416, 1250 482"/><path class="contour" d="M134 541 C 390 469, 670 613, 922 542 S 1170 490, 1250 556"/><path class="contour" d="M134 582 C 390 510, 670 720, 922 616 S 1170 564, 1250 630"/><path class="contour" d="M134 687 C 390 615, 670 763, 922 690 S 1170 638, 1250 704"/><path class="contour" d="M134 728 C 390 656, 670 870, 922 764 S 1170 712, 1250 778"/><path class="contour" d="M134 833 C 390 761, 670 913, 922 838 S 1170 786, 1250 852"/>
    <path class="land-line" d="M930.99,801.17L941.12,802.23L942.34,822.34L936.55,828.21L934.80,841.84L928.86,837.19L917.13,849.00L913.63,848.09L903.19,847.55L892.76,833.08L890.47,821.88L880.72,807.11L881.18,799.34L892.15,800.86L908.60,806.73L917.74,804.37L930.99,801.17ZM566.38,655.69L548.41,664.37L533.78,668.33L530.51,677.17L524.26,684.02L509.86,684.48L499.28,685.93L484.27,682.88L472.16,684.71L460.51,685.47L450.45,694.53L445.50,693.77L436.97,698.57L428.90,703.90L416.48,703.22L405.21,703.22L387.24,692.48L378.10,689.20L378.48,679.53L386.93,677.17L389.75,673.36L389.14,667.27L391.20,655.54L389.37,645.48L380.38,628.34L377.64,618.67L378.40,609.07L371.62,598.03L371.16,593.08L363.70,586.30L361.57,573.05L351.89,559.72L349.53,552.48L357.00,559.79L351.29,544.10L359.66,548.98L364.69,555.53L364.39,546.85L356.01,533.52L354.41,528.18L350.45,523.16L352.35,513.33L355.78,509.22L358.06,500.76L356.31,490.79L363.24,478.68L364.54,491.55L371.70,479.89L385.41,474.26L393.71,467.02L406.66,460.78L414.35,459.48L419.00,461.54L432.33,455.29L442.61,453.39L445.12,449.66L449.69,448.13L458.99,448.51L476.81,443.56L485.95,436.10L490.29,427.03L500.27,418.43L501.03,411.65L501.49,402.43L513.29,388.11L520.38,402.66L527.69,399.31L521.59,391.31L526.93,383.09L534.39,386.74L536.45,373.87L545.66,365.57L549.78,358.86L558.31,355.97L558.54,351.25L566.00,353.23L566.30,349.04L573.69,346.60L581.92,344.32L594.41,352.01L603.86,362.06L614.37,362.22L625.18,363.82L621.53,354.45L629.68,340.97L637.37,336.47L634.63,332.28L642.01,322.61L652.30,316.67L660.90,318.65L675.15,315.45L674.84,306.84L662.43,301.21L671.49,298.77L682.69,302.96L691.68,309.89L705.92,314.23L710.79,312.48L721.23,317.73L731.13,312.86L737.53,314.31L741.49,311.11L749.26,319.49L744.69,328.55L738.29,335.41L732.50,335.94L734.41,342.72L729.45,351.17L723.44,359.47L724.66,364.27L738.14,373.64L751.16,379.05L759.92,384.91L772.11,394.89L776.91,394.89L785.74,399.23L788.33,404.41L804.48,410.20L815.68,404.41L819.03,395.27L822.38,387.81L824.51,378.52L829.69,365.03L827.25,356.88L828.47,351.93L826.57,342.26L828.78,329.46L832.05,326.04L829.39,320.40L833.50,311.49L836.70,302.12L837.08,297.32L843.40,291.00L848.20,299.23L849.34,309.89L853.61,311.95L854.29,319.03L860.46,327.64L861.68,337.23L861.07,343.40L867.16,356.66L878.13,350.26L883.69,357.42L891.84,364.04L890.01,371.58L893.67,386.06L896.26,394.51L900.53,396.57L905.10,411.04L903.42,419.80L908.90,431.30L927.26,440.14L939.29,448.21L950.64,455.52L948.36,459.63L958.03,470.30L964.66,488.58L971.36,484.85L978.29,492.16L982.41,489.57L985.38,507.54L997.33,517.90L1005.18,524.38L1018.43,538.09L1023.15,551.72L1023.61,561.32L1022.47,571.83L1030.47,586.22L1029.55,601.15L1026.58,609.00L1022.01,624.15L1022.39,633.83L1019.04,645.94L1011.58,661.32L999.09,669.70L992.84,682.80L987.20,691.18L982.18,705.73L975.63,714.18L971.36,726.83L969.23,738.48L970.07,743.89L960.39,749.75L941.43,750.36L925.74,757.29L918.04,763.85L907.76,771.16L893.75,763.62L883.39,760.65L886.05,751.81L876.76,755.01L861.99,767.27L847.36,762.70L837.69,760.04L828.01,758.82L811.64,753.94L800.75,743.51L797.55,730.64L793.66,722.11L785.29,715.25L769.06,713.19L774.55,704.97L770.51,692.40L762.21,704.13L747.13,707.25L756.04,697.88L758.63,688.06L765.10,679.83L763.81,667.27L750.02,681.74L739.43,687.53L732.96,700.93L719.71,694.00L720.31,685.01L709.65,672.75L700.74,666.43L703.86,662.47L682.15,652.26L670.27,651.73L654.05,643.50L623.66,645.10L601.80,651.19L582.53,656.83L566.38,655.69Z"/>
    <path class="land-core" d="M930.99,801.17L941.12,802.23L942.34,822.34L936.55,828.21L934.80,841.84L928.86,837.19L917.13,849.00L913.63,848.09L903.19,847.55L892.76,833.08L890.47,821.88L880.72,807.11L881.18,799.34L892.15,800.86L908.60,806.73L917.74,804.37L930.99,801.17ZM566.38,655.69L548.41,664.37L533.78,668.33L530.51,677.17L524.26,684.02L509.86,684.48L499.28,685.93L484.27,682.88L472.16,684.71L460.51,685.47L450.45,694.53L445.50,693.77L436.97,698.57L428.90,703.90L416.48,703.22L405.21,703.22L387.24,692.48L378.10,689.20L378.48,679.53L386.93,677.17L389.75,673.36L389.14,667.27L391.20,655.54L389.37,645.48L380.38,628.34L377.64,618.67L378.40,609.07L371.62,598.03L371.16,593.08L363.70,586.30L361.57,573.05L351.89,559.72L349.53,552.48L357.00,559.79L351.29,544.10L359.66,548.98L364.69,555.53L364.39,546.85L356.01,533.52L354.41,528.18L350.45,523.16L352.35,513.33L355.78,509.22L358.06,500.76L356.31,490.79L363.24,478.68L364.54,491.55L371.70,479.89L385.41,474.26L393.71,467.02L406.66,460.78L414.35,459.48L419.00,461.54L432.33,455.29L442.61,453.39L445.12,449.66L449.69,448.13L458.99,448.51L476.81,443.56L485.95,436.10L490.29,427.03L500.27,418.43L501.03,411.65L501.49,402.43L513.29,388.11L520.38,402.66L527.69,399.31L521.59,391.31L526.93,383.09L534.39,386.74L536.45,373.87L545.66,365.57L549.78,358.86L558.31,355.97L558.54,351.25L566.00,353.23L566.30,349.04L573.69,346.60L581.92,344.32L594.41,352.01L603.86,362.06L614.37,362.22L625.18,363.82L621.53,354.45L629.68,340.97L637.37,336.47L634.63,332.28L642.01,322.61L652.30,316.67L660.90,318.65L675.15,315.45L674.84,306.84L662.43,301.21L671.49,298.77L682.69,302.96L691.68,309.89L705.92,314.23L710.79,312.48L721.23,317.73L731.13,312.86L737.53,314.31L741.49,311.11L749.26,319.49L744.69,328.55L738.29,335.41L732.50,335.94L734.41,342.72L729.45,351.17L723.44,359.47L724.66,364.27L738.14,373.64L751.16,379.05L759.92,384.91L772.11,394.89L776.91,394.89L785.74,399.23L788.33,404.41L804.48,410.20L815.68,404.41L819.03,395.27L822.38,387.81L824.51,378.52L829.69,365.03L827.25,356.88L828.47,351.93L826.57,342.26L828.78,329.46L832.05,326.04L829.39,320.40L833.50,311.49L836.70,302.12L837.08,297.32L843.40,291.00L848.20,299.23L849.34,309.89L853.61,311.95L854.29,319.03L860.46,327.64L861.68,337.23L861.07,343.40L867.16,356.66L878.13,350.26L883.69,357.42L891.84,364.04L890.01,371.58L893.67,386.06L896.26,394.51L900.53,396.57L905.10,411.04L903.42,419.80L908.90,431.30L927.26,440.14L939.29,448.21L950.64,455.52L948.36,459.63L958.03,470.30L964.66,488.58L971.36,484.85L978.29,492.16L982.41,489.57L985.38,507.54L997.33,517.90L1005.18,524.38L1018.43,538.09L1023.15,551.72L1023.61,561.32L1022.47,571.83L1030.47,586.22L1029.55,601.15L1026.58,609.00L1022.01,624.15L1022.39,633.83L1019.04,645.94L1011.58,661.32L999.09,669.70L992.84,682.80L987.20,691.18L982.18,705.73L975.63,714.18L971.36,726.83L969.23,738.48L970.07,743.89L960.39,749.75L941.43,750.36L925.74,757.29L918.04,763.85L907.76,771.16L893.75,763.62L883.39,760.65L886.05,751.81L876.76,755.01L861.99,767.27L847.36,762.70L837.69,760.04L828.01,758.82L811.64,753.94L800.75,743.51L797.55,730.64L793.66,722.11L785.29,715.25L769.06,713.19L774.55,704.97L770.51,692.40L762.21,704.13L747.13,707.25L756.04,697.88L758.63,688.06L765.10,679.83L763.81,667.27L750.02,681.74L739.43,687.53L732.96,700.93L719.71,694.00L720.31,685.01L709.65,672.75L700.74,666.43L703.86,662.47L682.15,652.26L670.27,651.73L654.05,643.50L623.66,645.10L601.80,651.19L582.53,656.83L566.38,655.69Z" fill-rule="evenodd"/>
  </g>
  <rect x="1370" y="305" width="610" height="132" rx="24" class="badge"/>
  <text x="1410" y="358" class="badge-text">Australia / atlas outline</text>
  <text x="1410" y="398" class="footer">Primary atlas outline fitted for country-scale study.</text>
  <rect x="88" y="940" width="1924" height="382" rx="30" class="region-panel"/>
  <text x="132" y="998" class="region-heading">Study Region Index</text>
  <text x="132" y="1335" class="footer">Showing 5 of 5 study regions. Internal wine-region borders require an authoritative GIS layer before drawing.</text>
  
      <g class="region-row" transform="translate(135 1038)">
        <rect width="850" height="40" rx="13"/>
        <circle cx="26" cy="20" r="15"/>
        <text x="26" y="27" text-anchor="middle" class="region-number">1</text>
        <text x="54" y="28" class="region-name">Barossa Valley</text>
      </g>
      <g class="region-row" transform="translate(1045 1038)">
        <rect width="850" height="40" rx="13"/>
        <circle cx="26" cy="20" r="15"/>
        <text x="26" y="27" text-anchor="middle" class="region-number">2</text>
        <text x="54" y="28" class="region-name">McLaren Vale</text>
      </g>
      <g class="region-row" transform="translate(135 1086)">
        <rect width="850" height="40" rx="13"/>
        <circle cx="26" cy="20" r="15"/>
        <text x="26" y="27" text-anchor="middle" class="region-number">3</text>
        <text x="54" y="28" class="region-name">Yarra Valley</text>
      </g>
      <g class="region-row" transform="translate(1045 1086)">
        <rect width="850" height="40" rx="13"/>
        <circle cx="26" cy="20" r="15"/>
        <text x="26" y="27" text-anchor="middle" class="region-number">4</text>
        <text x="54" y="28" class="region-name">Margaret River</text>
      </g>
      <g class="region-row" transform="translate(135 1134)">
        <rect width="850" height="40" rx="13"/>
        <circle cx="26" cy="20" r="15"/>
        <text x="26" y="27" text-anchor="middle" class="region-number">5</text>
        <text x="54" y="28" class="region-name">Tasmania</text>
      </g>
</svg>
