<svg xmlns="http://www.w3.org/2000/svg" width="2100" height="1400" viewBox="0 0 2100 1400" role="img" aria-label="New Zealand Wine Map">
  <defs>
    <linearGradient id="bg" x1="0" y1="0" x2="1" y2="1">
      <stop offset="0" stop-color="#04131f"/>
      <stop offset="0.48" stop-color="#082d33"/>
      <stop offset="1" stop-color="#171f25"/>
    </linearGradient>
    <radialGradient id="glowGold" cx="20%" cy="16%" r="70%">
      <stop offset="0" stop-color="#edd4a8" stop-opacity="0.36"/>
      <stop offset="1" stop-color="#edd4a8" stop-opacity="0"/>
    </radialGradient>
    <radialGradient id="glowCyan" cx="60%" cy="45%" r="70%">
      <stop offset="0" stop-color="#48e5dc" stop-opacity="0.22"/>
      <stop offset="1" stop-color="#48e5dc" stop-opacity="0"/>
    </radialGradient>
    <linearGradient id="land" x1="0" y1="0" x2="1" y2="1">
      <stop offset="0" stop-color="#fff0ce"/>
      <stop offset="0.44" stop-color="#c99a22"/>
      <stop offset="1" stop-color="#3dd7ca"/>
    </linearGradient>
    <filter id="softShadow" x="-20%" y="-20%" width="140%" height="140%">
      <feDropShadow dx="0" dy="28" stdDeviation="26" flood-color="#000816" flood-opacity="0.52"/>
      <feDropShadow dx="0" dy="0" stdDeviation="12" flood-color="#48e5dc" flood-opacity="0.22"/>
    </filter>
    <style>
      .frame { fill: none; stroke: rgba(159, 218, 245, 0.32); stroke-width: 2; }
      .grid { stroke: rgba(159, 218, 245, 0.14); stroke-width: 1; }
      .micro { fill: rgba(217, 247, 255, 0.64); font: 800 19px 'Trebuchet MS', Arial, sans-serif; letter-spacing: 8px; text-transform: uppercase; }
      .title { fill: #fff0ce; font: 900 66px 'Trebuchet MS', Arial, sans-serif; letter-spacing: -2px; }
      .subtitle { fill: rgba(217, 247, 255, 0.78); font: 800 25px 'Trebuchet MS', Arial, sans-serif; }
      .land-core { fill: url(#land); stroke: #fff0ce; stroke-width: 3; stroke-linejoin: round; filter: url(#softShadow); }
      .land-line { fill: none; stroke: rgba(4, 13, 24, 0.72); stroke-width: 10; opacity: 0.55; stroke-linejoin: round; }
      .contour { fill: none; stroke: rgba(237, 212, 168, 0.16); stroke-width: 3; stroke-linecap: round; }
      .region-panel { fill: rgba(5, 18, 28, 0.72); stroke: rgba(159, 218, 245, 0.28); stroke-width: 2; }
      .region-heading { fill: #fff0ce; font: 900 34px 'Trebuchet MS', Arial, sans-serif; letter-spacing: 5px; text-transform: uppercase; }
      .region-subheading { fill: rgba(217, 247, 255, 0.68); font: 700 22px 'Trebuchet MS', Arial, sans-serif; }
      .region-row rect { fill: rgba(4, 19, 31, 0.82); stroke: rgba(159, 218, 245, 0.38); stroke-width: 1.6; }
      .region-row circle { fill: rgba(237, 212, 168, 0.95); }
      .region-number { fill: #04131f; font: 900 18px 'Trebuchet MS', Arial, sans-serif; }
      .region-name { fill: #fff0ce; font: 900 31px 'Trebuchet MS', Arial, sans-serif; }
      .badge { fill: rgba(7, 35, 48, 0.88); stroke: rgba(237, 212, 168, 0.48); stroke-width: 1.5; }
      .badge-text { fill: #edd4a8; font: 900 18px 'Trebuchet MS', Arial, sans-serif; letter-spacing: 3px; text-transform: uppercase; }
      .footer { fill: rgba(217, 247, 255, 0.58); font: 700 18px 'Trebuchet MS', Arial, sans-serif; }
    </style>
  </defs>
  <rect width="2100" height="1400" fill="url(#bg)"/>
  <rect width="2100" height="1400" fill="url(#glowGold)"/>
  <rect width="2100" height="1400" fill="url(#glowCyan)"/>
  <line class="grid" x1="120" y1="0" x2="120" y2="1400"/><line class="grid" x1="240" y1="0" x2="240" y2="1400"/><line class="grid" x1="360" y1="0" x2="360" y2="1400"/><line class="grid" x1="480" y1="0" x2="480" y2="1400"/><line class="grid" x1="600" y1="0" x2="600" y2="1400"/><line class="grid" x1="720" y1="0" x2="720" y2="1400"/><line class="grid" x1="840" y1="0" x2="840" y2="1400"/><line class="grid" x1="960" y1="0" x2="960" y2="1400"/><line class="grid" x1="1080" y1="0" x2="1080" y2="1400"/><line class="grid" x1="1200" y1="0" x2="1200" y2="1400"/><line class="grid" x1="1320" y1="0" x2="1320" y2="1400"/><line class="grid" x1="1440" y1="0" x2="1440" y2="1400"/><line class="grid" x1="1560" y1="0" x2="1560" y2="1400"/><line class="grid" x1="1680" y1="0" x2="1680" y2="1400"/><line class="grid" x1="1800" y1="0" x2="1800" y2="1400"/>
  <line class="grid" x1="0" y1="180" x2="2100" y2="180"/><line class="grid" x1="0" y1="300" x2="2100" y2="300"/><line class="grid" x1="0" y1="420" x2="2100" y2="420"/><line class="grid" x1="0" y1="540" x2="2100" y2="540"/><line class="grid" x1="0" y1="660" x2="2100" y2="660"/><line class="grid" x1="0" y1="780" x2="2100" y2="780"/><line class="grid" x1="0" y1="900" x2="2100" y2="900"/><line class="grid" x1="0" y1="1020" x2="2100" y2="1020"/>
  <rect x="34" y="34" width="2032" height="1332" rx="42" class="frame"/>
  <text x="80" y="108" class="micro">Sip Studios Maps / Country Study Plate</text>
  <text x="80" y="185" class="title">New Zealand Wine Map</text>
  <text x="84" y="232" class="subtitle">Oceania / 5 study regions / Wine geography</text>
  <g opacity="0.9">
    <path class="contour" d="M134 306 C 390 234, 670 404, 922 320 S 1170 268, 1250 334"/><path class="contour" d="M134 411 C 390 339, 670 447, 922 394 S 1170 342, 1250 408"/><path class="contour" d="M134 452 C 390 380, 670 554, 922 468 S 1170 416, 1250 482"/><path class="contour" d="M134 557 C 390 485, 670 597, 922 542 S 1170 490, 1250 556"/><path class="contour" d="M134 598 C 390 526, 670 704, 922 616 S 1170 564, 1250 630"/><path class="contour" d="M134 703 C 390 631, 670 747, 922 690 S 1170 638, 1250 704"/><path class="contour" d="M134 744 C 390 672, 670 854, 922 764 S 1170 712, 1250 778"/><path class="contour" d="M134 849 C 390 777, 670 897, 922 838 S 1170 786, 1250 852"/>
    <path class="land-line" d="M890.21,547.86L872.91,572.57L850.25,603.88L814.82,622.22L807.00,610.27L787.84,603.68L814.21,565.98L799.17,540.85L749.94,522.52L751.38,505.84L784.34,489.98L792.17,454.75L790.11,425.09L771.36,394.40L772.80,386.37L750.76,367.42L714.92,326.84L695.56,294.50L712.66,291.00L737.58,316.34L773.22,328.28L785.99,369.07L819.36,417.27L820.18,385.96L840.98,398.52L847.78,433.13L884.65,447.96L915.55,451.66L941.71,434.16L964.78,439.51L953.86,480.09L939.85,506.87L904.84,505.84L892.68,519.84L897.01,539.41L890.21,547.86ZM559.82,707.70L598.96,683.60L626.56,659.91L646.74,625.72L664.25,614.18L671.05,588.64L703.18,567.63L713.28,586.99L723.57,605.94L756.33,587.41L769.51,606.77L769.51,625.92L752.41,647.14L722.54,680.92L699.06,699.25L715.95,721.29L680.73,721.91L641.59,739.21L629.24,769.08L603.28,815.43L567.24,835.82L544.58,849.00L502.35,847.97L472.69,832.93L422.84,829.64L415.22,812.75L439.94,778.97L497.41,733.65L526.86,725.21L559.82,707.70Z"/>
    <path class="land-core" d="M890.21,547.86L872.91,572.57L850.25,603.88L814.82,622.22L807.00,610.27L787.84,603.68L814.21,565.98L799.17,540.85L749.94,522.52L751.38,505.84L784.34,489.98L792.17,454.75L790.11,425.09L771.36,394.40L772.80,386.37L750.76,367.42L714.92,326.84L695.56,294.50L712.66,291.00L737.58,316.34L773.22,328.28L785.99,369.07L819.36,417.27L820.18,385.96L840.98,398.52L847.78,433.13L884.65,447.96L915.55,451.66L941.71,434.16L964.78,439.51L953.86,480.09L939.85,506.87L904.84,505.84L892.68,519.84L897.01,539.41L890.21,547.86ZM559.82,707.70L598.96,683.60L626.56,659.91L646.74,625.72L664.25,614.18L671.05,588.64L703.18,567.63L713.28,586.99L723.57,605.94L756.33,587.41L769.51,606.77L769.51,625.92L752.41,647.14L722.54,680.92L699.06,699.25L715.95,721.29L680.73,721.91L641.59,739.21L629.24,769.08L603.28,815.43L567.24,835.82L544.58,849.00L502.35,847.97L472.69,832.93L422.84,829.64L415.22,812.75L439.94,778.97L497.41,733.65L526.86,725.21L559.82,707.70Z" fill-rule="evenodd"/>
  </g>
  <rect x="1370" y="305" width="610" height="132" rx="24" class="badge"/>
  <text x="1410" y="358" class="badge-text">New Zealand / atlas outline</text>
  <text x="1410" y="398" class="footer">Primary atlas outline fitted for country-scale study.</text>
  <rect x="88" y="940" width="1924" height="382" rx="30" class="region-panel"/>
  <text x="132" y="998" class="region-heading">Study Region Index</text>
  <text x="132" y="1335" class="footer">Showing 5 of 5 study regions. Internal wine-region borders require an authoritative GIS layer before drawing.</text>
  
      <g class="region-row" transform="translate(135 1038)">
        <rect width="850" height="40" rx="13"/>
        <circle cx="26" cy="20" r="15"/>
        <text x="26" y="27" text-anchor="middle" class="region-number">1</text>
        <text x="54" y="28" class="region-name">Marlborough</text>
      </g>
      <g class="region-row" transform="translate(1045 1038)">
        <rect width="850" height="40" rx="13"/>
        <circle cx="26" cy="20" r="15"/>
        <text x="26" y="27" text-anchor="middle" class="region-number">2</text>
        <text x="54" y="28" class="region-name">Central Otago</text>
      </g>
      <g class="region-row" transform="translate(135 1086)">
        <rect width="850" height="40" rx="13"/>
        <circle cx="26" cy="20" r="15"/>
        <text x="26" y="27" text-anchor="middle" class="region-number">3</text>
        <text x="54" y="28" class="region-name">Hawke's Bay</text>
      </g>
      <g class="region-row" transform="translate(1045 1086)">
        <rect width="850" height="40" rx="13"/>
        <circle cx="26" cy="20" r="15"/>
        <text x="26" y="27" text-anchor="middle" class="region-number">4</text>
        <text x="54" y="28" class="region-name">Martinborough</text>
      </g>
      <g class="region-row" transform="translate(135 1134)">
        <rect width="850" height="40" rx="13"/>
        <circle cx="26" cy="20" r="15"/>
        <text x="26" y="27" text-anchor="middle" class="region-number">5</text>
        <text x="54" y="28" class="region-name">Gisborne</text>
      </g>
</svg>
